<svg width="219" height="1007" viewBox="0 0 219 1007" fill="none" xmlns="http://www.w3.org/2000/svg">
<path d="M61.2824 488.058L46.5882 502.753L21.8098 478.031L25.3249 474.516C25.613 474.227 25.613 473.709 25.3249 473.421C25.0368 473.133 24.5182 473.133 24.2301 473.421L19.6201 478.031L46.6458 505L62.4349 489.153C62.723 488.865 62.723 488.346 62.4349 488.058C62.1468 487.712 61.6281 487.712 61.2824 488.058Z" fill="white"/>
<path d="M57.5944 463.394C57.3063 463.682 57.3063 464.2 57.5944 464.489L72.7496 479.587L66.2957 486.041L57.1911 476.936L56.6725 476.475L55.0014 474.804C54.7132 474.516 54.1946 474.516 53.9065 474.804C53.6184 475.092 53.6184 475.61 53.9065 475.899L55.5776 477.57L56.0386 478.031L66.2957 488.231L74.9394 479.529L58.6893 463.336C58.4012 463.048 57.8826 463.048 57.5944 463.394Z" fill="white"/>
<path d="M53.4457 462.99C57.1337 461.031 57.9981 458.15 56.0388 454.346C55.5778 453.424 55.0593 452.733 54.483 452.157C52.639 450.313 50.2764 450.14 47.4528 451.638C45.6665 452.56 44.1682 454.519 43.0158 456.536C43.1886 454.289 43.0158 451.811 42.0938 450.024C40.1346 446.336 37.1957 445.472 33.4501 447.431C29.7046 449.448 28.7826 452.329 30.7418 456.018C31.0875 456.651 31.5485 457.285 32.1824 457.862C33.162 458.841 34.3721 459.706 35.6399 460.397C33.3925 460.224 30.9147 460.397 29.1283 461.319C25.4404 463.278 24.576 466.217 26.5352 469.963C26.9962 470.885 27.5148 471.577 28.0911 472.153C29.935 473.997 32.2976 474.17 35.1212 472.672C36.9076 471.75 38.4058 469.79 39.5583 467.773C39.3854 470.021 39.5583 472.499 40.4803 474.285C40.9413 475.149 41.4599 475.841 41.9785 476.417C43.8225 478.261 46.2427 478.434 49.1239 476.878C52.8695 474.861 53.7915 471.98 51.8323 468.292C51.4865 467.658 51.0255 467.024 50.3917 466.448C49.4121 465.468 48.2019 464.604 46.9342 463.912C49.1816 464.085 51.6594 463.912 53.4457 462.99ZM34.3721 471.288C31.4909 472.844 30.0503 471.865 29.1859 471.058C28.7249 470.597 28.3216 470.021 27.9182 469.214C26.3047 466.217 26.8809 464.258 29.8198 462.702C32.6434 461.204 38.1177 462.184 40.1922 462.702C39.443 464.719 37.2533 469.79 34.3721 471.288ZM33.2772 456.767C32.7586 456.248 32.4129 455.787 32.1248 455.268C30.5689 452.329 31.2028 450.428 34.1993 448.814C36.5042 447.604 38.1177 447.662 39.443 448.987C39.904 449.448 40.3074 450.024 40.6532 450.716C42.1514 453.54 41.1718 459.014 40.6532 461.089C39.0973 460.512 35.4093 458.899 33.2772 456.767ZM49.2392 467.6C49.7578 468.119 50.1035 468.58 50.3917 469.099C51.9475 472.038 51.3137 473.939 48.3172 475.553C45.2631 477.166 43.3615 476.533 41.8057 473.651C40.3074 470.828 41.287 465.353 41.8057 463.278C43.4768 463.855 47.1071 465.468 49.2392 467.6ZM42.3243 461.607C43.131 459.59 45.3207 454.577 48.1443 453.021C51.0256 451.465 52.4662 452.445 53.3305 453.251C53.7915 453.713 54.1949 454.289 54.5982 455.096C56.2117 458.092 55.6355 460.051 52.6966 461.607C49.8154 463.106 44.3987 462.068 42.3243 461.607Z" fill="white"/>
<path d="M149.62 446.279C149.274 446.567 149.217 447.028 149.505 447.374L166.446 469.329L146.739 484.543L129.74 462.587C129.452 462.241 128.991 462.184 128.645 462.472C128.299 462.76 128.242 463.221 128.53 463.567L146.393 486.79L168.636 469.675L150.773 446.452C150.427 446.048 149.966 445.991 149.62 446.279Z" fill="white"/>
<path d="M130.489 455.096C130.201 454.75 129.74 454.692 129.394 454.98L123.459 459.533L118.331 452.906L129.51 444.262L129.625 444.204C130.316 446.682 132.103 448.987 133.947 451.35C137.058 455.384 140.343 459.533 138.269 465.007C138.096 465.411 138.326 465.872 138.73 466.045C139.018 466.16 139.306 466.102 139.479 465.929C139.594 465.814 139.709 465.699 139.709 465.584C142.014 459.245 138.384 454.519 135.099 450.37C133.659 448.584 132.333 446.797 131.527 445.069C135.33 448.18 142.59 453.77 145.529 453.194C145.644 453.194 145.76 453.136 145.875 453.021C146.105 452.848 146.221 452.56 146.163 452.272C146.105 451.868 145.644 451.58 145.241 451.638C143.109 452.041 135.906 446.682 131.296 442.764L131.642 442.475L142.821 433.831L147.949 440.458L141.957 445.069C141.611 445.357 141.553 445.818 141.841 446.163C142.129 446.509 142.59 446.567 142.936 446.279L150.197 440.689L143.167 431.526L137.174 436.136C137.404 435.618 137.635 435.042 137.75 434.465C138.672 429.682 136.079 427.435 133.428 426.916C131.757 426.628 130.259 426.916 129.106 427.838C127.896 428.76 127.032 430.316 126.686 432.333C126.167 435.214 127.723 438.787 128.876 440.919C127.147 439.306 124.093 436.828 121.154 436.598C119.08 436.425 117.409 436.828 116.141 437.808C114.931 438.73 114.239 440.113 114.124 441.784C113.951 444.492 115.449 447.547 120.29 447.892C120.866 447.95 121.442 447.892 122.019 447.777L116.026 452.387L123.056 461.55L130.259 456.018C130.72 455.902 130.777 455.441 130.489 455.096ZM128.242 432.852C128.53 431.181 129.164 430.028 130.086 429.279C131.123 428.472 132.333 428.472 133.198 428.645C135.791 429.106 136.886 431.123 136.252 434.35C135.675 437.289 131.988 440.401 130.835 441.265C129.855 439.652 127.723 435.675 128.242 432.852ZM120.463 446.509C117.236 446.279 115.565 444.723 115.738 442.072C115.795 441.208 116.083 440.055 117.12 439.248C118.042 438.557 119.368 438.269 121.039 438.384C123.92 438.614 127.262 441.669 128.53 442.994C127.435 443.858 123.459 446.682 120.463 446.509Z" fill="white"/>
<path d="M24.5755 181.486L6.71205 158.262C6.42393 157.916 5.96292 157.859 5.61718 158.147C5.27144 158.435 5.21384 158.896 5.50196 159.242L22.4434 181.197L2.73598 196.411L-14.3208 174.455C-14.6089 174.109 -15.0699 174.052 -15.4156 174.34C-15.7614 174.628 -15.819 175.089 -15.5308 175.435L2.33263 198.658L24.5755 181.486Z" fill="white"/>
<path d="M-13.5712 166.964C-13.8593 166.618 -14.3203 166.56 -14.666 166.848L-20.6014 171.401L-25.7299 164.774L-14.5508 156.13L-14.4356 156.072C-13.7441 158.55 -11.9577 160.855 -10.1137 163.218C-7.00203 167.252 -3.71745 171.401 -5.79192 176.875C-5.9648 177.279 -5.73431 177.74 -5.33093 177.913C-5.04281 178.028 -4.75466 177.97 -4.58179 177.797C-4.46654 177.682 -4.35131 177.567 -4.35131 177.452C-2.04634 171.113 -5.67667 166.387 -8.96126 162.238C-10.4019 160.452 -11.7272 158.666 -12.534 156.937C-8.73077 160.049 -1.47008 165.638 1.46877 165.062C1.58401 165.062 1.69925 165.004 1.8145 164.889C2.04499 164.716 2.16024 164.428 2.10262 164.082C2.04499 163.679 1.58401 163.391 1.18064 163.448C-0.951458 163.852 -8.1545 158.493 -12.7645 154.574L-12.4187 154.286L-1.23959 145.642L3.88896 152.269L-2.10395 156.879C-2.4497 157.167 -2.50733 157.628 -2.21921 157.974C-1.93109 158.32 -1.47008 158.377 -1.12433 158.089L6.13632 152.499L-0.893854 143.337L-6.88676 147.947C-6.65627 147.428 -6.42577 146.852 -6.31052 146.276C-5.38853 141.493 -7.98163 139.245 -10.6323 138.727C-12.3035 138.439 -13.8017 138.727 -14.9542 139.649C-16.1643 140.571 -17.0287 142.127 -17.3744 144.144C-17.893 147.025 -16.3372 150.598 -15.1847 152.73C-16.9134 151.116 -19.9675 148.639 -22.9064 148.408C-24.9808 148.235 -26.6519 148.639 -27.9197 149.618C-29.1298 150.54 -29.8213 151.923 -29.9365 153.594C-30.1094 156.303 -28.6112 159.357 -23.7707 159.703C-23.1945 159.76 -22.6182 159.703 -22.042 159.588L-28.0349 164.198L-21.0047 173.36L-13.8017 167.828C-13.3407 167.77 -13.2831 167.309 -13.5712 166.964ZM-15.8185 144.662C-15.5304 142.991 -14.8966 141.839 -13.9746 141.089C-12.9373 140.283 -11.7272 140.283 -10.8629 140.456C-8.26976 140.917 -7.17491 142.934 -7.80877 146.161C-8.38502 149.1 -12.073 152.211 -13.2254 153.076C-14.2051 151.52 -16.3372 147.544 -15.8185 144.662ZM-23.5978 158.377C-26.8248 158.147 -28.4959 156.591 -28.323 153.94C-28.2654 153.076 -27.9773 151.923 -26.94 151.116C-26.0181 150.425 -24.6927 150.137 -23.0216 150.252C-20.1404 150.483 -16.7982 153.537 -15.5304 154.862C-16.6253 155.727 -20.6014 158.55 -23.5978 158.377Z" fill="white"/>
<path d="M183.1 61.8534L198.716 37.0741C198.947 36.7284 198.831 36.2097 198.486 35.9792C198.14 35.7487 197.621 35.864 197.391 36.2097L182.639 59.6637L161.549 46.4096L176.3 22.9557C176.531 22.6099 176.416 22.0913 176.07 21.8608C175.724 21.6303 175.206 21.7455 174.975 22.0913L159.359 46.8706L183.1 61.8534Z" fill="white"/>
<path d="M183.619 21.0539C183.849 20.7082 183.734 20.1895 183.388 19.959L177.05 15.9828L181.487 8.89478L193.472 16.4438L193.588 16.5015C191.456 17.9997 189.957 20.4777 188.344 23.0132C185.636 27.3352 182.87 31.8301 176.992 31.8301C176.531 31.8301 176.185 32.1758 176.185 32.6368C176.185 32.925 176.358 33.1555 176.531 33.3284C176.646 33.386 176.819 33.4436 176.934 33.4436C183.676 33.4436 186.846 28.3725 189.612 23.8776C190.822 21.9183 191.974 20.0743 193.357 18.6913C191.744 23.3014 188.978 32.1182 190.534 34.6538C190.591 34.769 190.707 34.8266 190.764 34.9419C190.995 35.1148 191.34 35.1148 191.571 34.9419C191.917 34.7114 192.09 34.2504 191.859 33.847C190.764 32.0029 193.3 23.359 195.374 17.7116L195.72 17.9421L207.706 25.4912L203.269 32.5792L196.872 28.5454C196.527 28.3149 196.008 28.4301 195.777 28.7759C195.547 29.1216 195.662 29.6403 196.008 29.8708L203.73 34.7114L209.895 24.9725L203.499 20.9387C204.075 20.9963 204.709 20.9963 205.228 20.8811C210.011 20.0743 211.221 16.9048 210.817 14.1964C210.529 12.5252 209.723 11.2575 208.455 10.4507C207.129 9.64392 205.458 9.35579 203.384 9.70155C200.503 10.1626 197.679 12.9286 196.123 14.715C197.045 12.5252 198.313 8.77953 197.506 5.95583C196.93 3.93891 195.95 2.49825 194.683 1.69148C193.415 0.884715 191.917 0.711836 190.246 1.17285C187.595 1.92199 185.29 4.39992 186.615 9.06766C186.788 9.64392 187.019 10.1626 187.307 10.6812L180.91 6.64735L174.745 16.3862L182.409 21.2268C182.927 21.5726 183.388 21.4573 183.619 21.0539ZM203.73 11.3151C205.401 11.027 206.726 11.1998 207.706 11.8337C208.801 12.5252 209.204 13.6778 209.377 14.4845C209.838 17.0777 208.282 18.8065 205.113 19.3251C202.174 19.8438 197.967 17.3659 196.757 16.6167C197.852 15.1761 200.848 11.7761 203.73 11.3151ZM188.229 8.7219C187.307 5.61008 188.229 3.4779 190.764 2.78638C191.571 2.55588 192.781 2.44063 193.876 3.13214C194.855 3.76603 195.605 4.86093 196.066 6.47447C196.872 9.29816 195.144 13.4473 194.337 15.1184C193.069 14.3117 189.035 11.6032 188.229 8.7219Z" fill="white"/>
<path d="M25.325 272.766C25.0369 272.42 24.5759 272.362 24.2301 272.593C23.8844 272.881 23.8267 273.342 24.0572 273.688L31.4332 283.484L36.0431 280.027L40.7682 276.454L45.4934 272.881L50.2186 269.308L54.9438 265.735L59.669 262.163L64.3942 258.59L69.1193 255.017L73.7293 251.559L66.3534 241.763C66.0653 241.417 65.6043 241.359 65.2585 241.59C64.9128 241.878 64.8552 242.339 65.0857 242.685L71.482 251.214L68.7736 253.23L62.3773 244.702C62.0892 244.356 61.6282 244.298 61.2825 244.529C60.9367 244.817 60.8791 245.278 61.1096 245.624L67.5059 254.153L64.0484 256.746L57.6522 248.217C57.364 247.871 56.903 247.814 56.5573 248.044C56.2115 248.332 56.1539 248.793 56.3844 249.139L62.7807 257.668L59.3232 260.261L52.927 251.732C52.6388 251.386 52.1778 251.329 51.8321 251.559C51.4863 251.847 51.4287 252.308 51.6592 252.654L58.0555 261.183L54.598 263.776L48.2018 255.247C47.9137 254.902 47.4526 254.844 47.1069 255.075C46.7612 255.363 46.7035 255.824 46.934 256.169L53.3303 264.698L49.8729 267.291L43.4766 258.763C43.1885 258.417 42.7275 258.359 42.3817 258.59C42.036 258.878 41.9784 259.339 42.2088 259.685L48.6052 268.213L45.1477 270.807L38.7514 262.278C38.4633 261.932 38.0023 261.874 37.6566 262.105C37.3108 262.393 37.2532 262.854 37.4837 263.2L43.88 271.729L40.4225 274.322L34.0262 265.793C33.7381 265.447 33.2771 265.39 32.9314 265.62C32.5856 265.908 32.528 266.369 32.7585 266.715L39.1548 275.244L35.6973 277.837L29.3011 269.308C29.0129 268.962 28.5519 268.905 28.2062 269.135C27.8604 269.423 27.8028 269.885 28.0333 270.23L34.4296 278.759L31.7213 280.776L25.325 272.766Z" fill="white"/>
<path d="M33.4498 232.312C33.0464 232.6 32.7583 233.119 32.643 233.983C32.182 236.519 34.4294 242.109 35.6395 244.932C33.2769 242.973 28.5517 239.285 25.9586 238.997C25.1519 238.882 24.5756 238.997 24.1723 239.343C23.3079 240.034 23.5961 241.129 23.9418 242.339C24.2299 243.261 24.518 244.298 24.4028 245.393C24.2875 246.431 23.7689 247.41 23.3079 248.275C22.7893 249.312 22.3283 250.176 22.7317 250.983C23.135 251.675 23.9994 251.847 24.6333 251.963C26.362 252.136 29.4161 251.041 32.0092 249.831L12.7627 264.064L18.8708 272.19L66.4684 236.519L60.3603 228.394L41.2291 242.743C43.073 240.553 45.0322 237.96 45.3204 236.231C45.4356 235.597 45.4932 234.732 44.917 234.156C44.2831 233.522 43.3035 233.695 42.151 233.926C41.229 234.099 40.1342 234.329 39.097 234.156C38.0597 233.983 37.1377 233.407 36.331 232.888C35.2938 232.255 34.3142 231.621 33.4498 232.312ZM24.6909 250.234C24.3452 250.176 24.1723 250.119 24.057 250.119C24.1146 249.888 24.4028 249.312 24.6333 248.909C25.1519 247.987 25.7281 246.834 25.901 245.451C26.0739 244.068 25.6705 242.858 25.3824 241.82C25.2672 241.359 25.0943 240.783 25.0943 240.553C25.1519 240.553 25.3824 240.495 25.7281 240.553C27.8026 240.783 32.4702 244.414 34.948 246.488C32.1244 247.929 26.7654 250.464 24.6909 250.234ZM60.0721 230.583L64.2787 236.173L19.2166 269.942L15.0101 264.352L60.0721 230.583ZM42.4968 235.539C42.9578 235.424 43.534 235.309 43.8221 235.366C43.8221 235.482 43.8221 235.654 43.7645 236C43.4188 238.075 39.4427 242.454 37.253 244.817C35.9852 241.878 33.7955 236.346 34.1989 234.271C34.2565 233.926 34.3141 233.753 34.3718 233.638C34.6023 233.695 35.1209 234.041 35.5242 234.271C36.3886 234.848 37.5411 235.539 38.8664 235.77C40.1918 236 41.5171 235.712 42.4968 235.539Z" fill="white"/>
<path d="M106.633 161.028C108.246 161.662 109.975 162.066 111.531 161.835C113.663 161.547 115.219 160.74 116.256 159.53C117.178 158.377 117.524 156.937 117.293 155.323C117.063 153.652 116.256 152.327 115.046 151.52C113.778 150.656 112.049 150.367 109.975 150.656C107.036 151.059 104.155 153.71 102.541 155.496C103.521 153.306 104.904 149.676 104.155 146.795C103.636 144.778 102.714 143.337 101.446 142.473C100.179 141.666 98.6805 141.435 97.067 141.839C94.4163 142.53 92.0537 144.951 93.2639 149.618C93.6672 151.174 94.7044 152.615 95.9146 153.825L84.6202 146.276L79.7222 153.594L113.087 175.838L117.985 168.52L106.633 161.028ZM110.205 152.211C111.876 151.981 113.202 152.211 114.181 152.845C115.276 153.594 115.622 154.747 115.737 155.554C115.853 156.361 115.795 157.571 115.046 158.55C114.297 159.472 113.087 160.049 111.358 160.279C108.361 160.683 104.27 158.147 103.06 157.34C104.212 155.957 107.324 152.615 110.205 152.211ZM94.7621 149.215C93.9553 146.103 94.8773 143.971 97.4128 143.337C98.2195 143.106 99.4296 143.049 100.524 143.74C101.504 144.374 102.196 145.527 102.599 147.14C103.348 149.964 101.446 154.056 100.64 155.727C99.4873 154.978 95.5112 152.154 94.7621 149.215ZM112.626 173.706L101.274 166.099L81.9119 153.191L85.0236 148.523L115.737 169.038L112.626 173.706Z" fill="white"/>
<path d="M108.65 175.435L106.056 178.143L76.2071 179.354L73.2107 177.337L74.1327 175.204L105.019 173.937C105.48 173.937 105.768 173.533 105.768 173.13C105.768 172.669 105.365 172.381 104.962 172.381L74.8242 173.649L76.7258 169.327L96.779 168.52C97.2399 168.52 97.5281 168.116 97.5281 167.713C97.5281 167.252 97.1247 166.964 96.7213 166.964L77.4173 167.771L79.3188 163.449L88.5963 163.045C89.0573 163.045 89.3455 162.642 89.3455 162.239C89.3455 161.778 88.9421 161.489 88.5387 161.489L80.0679 161.835L81.9119 157.628C82.0848 157.225 81.9119 156.764 81.5086 156.591C81.1052 156.418 80.6442 156.591 80.4713 156.995L71.1938 177.913L93.8401 193.069L109.802 176.53C110.09 176.242 110.09 175.723 109.802 175.435C109.456 175.089 108.995 175.089 108.65 175.435ZM93.6096 190.994L86.6947 186.384L98.5077 185.923L93.6096 190.994ZM100.121 184.309L84.4474 184.886L78.3969 180.852L104.443 179.757L100.121 184.309Z" fill="white"/>
<path d="M76.1497 318.752L83.5256 321.633C83.6408 321.691 83.8137 321.691 83.9866 321.691C84.3323 321.691 84.6205 321.518 84.7933 321.23C85.0815 320.826 85.0815 320.308 84.7933 319.904C83.4104 318.176 80.4139 313.508 82.8917 307.86C83.0646 307.399 82.9493 306.881 82.546 306.535C82.1426 306.247 81.5664 306.247 81.2206 306.535L72.6922 313.335L81.0478 301.464L78.5123 302.501C75.5158 303.769 72.116 304.46 68.5433 304.576C62.4351 304.806 57.7099 303.25 57.6523 303.25L55.0592 302.386L64.2214 313.623L55.1744 307.572C54.7711 307.284 54.1948 307.342 53.8491 307.688C53.5033 308.033 53.3881 308.552 53.6186 309.013C56.4998 314.43 53.8491 319.328 52.5813 321.172C52.2932 321.575 52.3509 322.094 52.639 322.498C52.8695 322.728 53.1576 322.901 53.5033 322.901C53.6762 322.901 53.7915 322.843 53.9067 322.786L61.0521 319.328C55.0592 324.572 50.5069 334.714 50.7374 341.111C51.0255 349.697 60.5911 353.846 69.811 353.5C79.0309 353.155 88.2508 348.314 87.9051 339.728C87.7322 333.331 82.4884 323.592 76.1497 318.752ZM80.7596 308.955C79.4919 313.45 81.1054 317.253 82.546 319.559L72.4617 315.582L80.7596 308.955ZM59.4962 305.498C61.5707 305.959 64.7401 306.42 68.5433 306.304C71.4245 306.189 74.1329 305.728 76.6683 304.979L69.35 315.352C68.9467 315.928 68.0246 315.928 67.5637 315.409L59.4962 305.498ZM54.7711 320.538C56.0388 318.176 57.3641 314.257 55.7507 309.877L64.5096 315.87L54.7711 320.538ZM69.811 351.887C61.3402 352.175 52.639 348.545 52.4085 340.996C52.1203 333.331 59.6691 318.982 67.5637 317.542C67.1027 320.826 65.3163 331.314 60.9369 337.423C60.7064 337.768 60.764 338.287 61.1098 338.518C61.2826 338.633 61.4555 338.691 61.5707 338.691C61.8012 338.691 62.0317 338.575 62.2046 338.345C66.1231 332.928 67.967 324.514 68.7738 319.904C70.0991 323.42 72.4041 328.779 74.7091 330.392C74.882 330.508 75.0548 330.565 75.1701 330.565C75.4006 330.565 75.6311 330.45 75.804 330.219C76.0345 329.874 75.9768 329.355 75.6311 329.125C73.4413 327.569 70.7906 320.942 69.5805 317.484C77.5903 318.348 86.1187 332.063 86.4068 339.728C86.6373 347.277 78.2242 351.541 69.811 351.887Z" fill="white"/>
<path d="M57.2489 407.15L42.2666 390.554C41.9784 390.208 41.4598 390.208 41.1717 390.497C40.826 390.785 40.826 391.303 41.1141 391.591L55.0592 407.035L29.0706 430.489L15.0679 415.045C14.7798 414.7 14.2612 414.7 13.9731 414.988C13.6273 415.276 13.6273 415.794 13.9154 416.083L28.8977 432.679L57.2489 407.15Z" fill="white"/>
<path d="M19.7934 405.191C19.5053 404.845 18.9867 404.845 18.6985 405.134L10.2278 412.798L4.11962 406.056L15.2411 396.029L32.4708 415.161L31.1454 406.805L39.328 408.994L22.0984 389.863L33.2199 379.836L39.328 386.578L30.3963 394.646C30.0505 394.934 30.0505 395.452 30.3386 395.74C30.6268 396.086 31.1454 396.086 31.4335 395.798L41.5178 386.693L33.2775 377.588L25.4406 384.676C25.9592 383.869 26.305 383.12 26.5355 382.429C27.1117 380.354 26.8812 378.856 25.9016 377.819C24.9796 376.897 23.5966 376.493 22.2713 376.148C20.3697 375.629 18.4104 375.053 16.8546 376.436C16.1631 377.012 15.7021 377.934 15.2987 379.259C15.1835 379.663 15.1259 380.124 15.0682 380.642C14.7801 380.181 14.492 379.72 14.2039 379.375C10.9193 375.744 8.55668 377.934 6.59746 379.663C4.63824 381.391 2.27566 383.581 5.50262 387.212C5.84837 387.558 6.25174 387.903 6.65511 388.249C6.19411 388.249 5.7331 388.249 5.27211 388.307C3.94675 388.537 2.96715 388.941 2.33329 389.517C0.777434 390.9 1.1808 392.917 1.46892 394.876C1.69942 396.259 1.92991 397.7 2.79427 398.679C3.71626 399.774 5.21449 400.178 7.28896 399.832C7.98045 399.717 8.78717 399.429 9.65154 398.968L1.81466 406.056L10.0549 415.161L19.7358 406.459C20.0815 405.998 20.0815 405.537 19.7934 405.191ZM16.8546 379.605C17.1427 378.625 17.4884 377.934 17.9494 377.531C18.7562 376.781 19.9663 377.07 21.8679 377.588C23.0204 377.934 24.1729 378.222 24.8067 378.856C25.1525 379.259 25.6135 379.951 25.0372 381.91C24.5762 383.524 22.9627 385.598 20.312 387.961C19.6205 388.595 18.9291 389.171 18.4681 389.574C17.719 387.442 16.1055 382.371 16.8546 379.605ZM20.9459 390.842L34.6029 405.998L29.1862 404.557L30.0505 410.089L16.3936 394.934L20.9459 390.842ZM7.69233 380.7C9.88205 378.741 10.9193 377.934 13.0514 380.297C15.0106 382.429 15.7597 387.673 16.0478 389.978C13.8581 389.517 8.67192 388.191 6.77033 386.002C4.63823 383.697 5.50261 382.717 7.69233 380.7ZM7.11609 398.103C5.15687 398.449 4.46537 397.93 4.11962 397.527C3.54338 396.835 3.3705 395.625 3.14001 394.473C2.79426 392.513 2.67903 391.303 3.48577 390.554C3.94677 390.151 4.63825 389.863 5.67549 389.69C8.49907 389.171 13.3971 391.303 15.414 392.283C14.953 392.744 14.3767 393.32 13.6276 394.012C10.9769 396.432 8.72957 397.815 7.11609 398.103Z" fill="white"/>
<path d="M132.621 275.129C132.564 275.129 132.506 275.186 132.448 275.186C132.391 275.186 132.333 275.244 132.333 275.244H132.275L132.218 275.301C132.16 275.359 132.16 275.359 132.103 275.417C132.103 275.474 132.045 275.532 132.045 275.532C132.045 275.59 131.987 275.647 131.987 275.647C131.987 275.705 131.987 275.762 131.987 275.82C131.987 275.878 131.987 275.878 131.987 275.935V275.993C131.987 276.051 132.045 276.108 132.045 276.166C132.045 276.223 132.103 276.281 132.103 276.281V276.339L146.278 293.627L155.613 286.02L165.525 277.895L175.205 269.942L175.839 269.424L161.664 252.136C161.376 251.79 160.915 251.732 160.569 252.02C160.223 252.309 160.166 252.77 160.454 253.115L173.246 268.732L132.621 275.129C132.679 275.129 132.621 275.129 132.621 275.129ZM146.566 291.494L143.743 287.979L152.502 286.654L146.566 291.494ZM154.864 284.695L142.59 286.539L139.017 282.217L162.355 278.586L154.864 284.695ZM172.036 270.634L164.775 276.569L137.865 280.776L134.292 276.454L172.036 270.634Z" fill="white"/>
<path d="M121.327 252.193C121.212 254.902 122.825 257.898 127.665 258.129C128.53 258.186 129.452 258.014 130.316 257.725L120.635 265.62L128.415 275.129L161.26 248.275L153.481 238.766L143.8 246.661C144.261 245.854 144.549 244.99 144.722 244.126C145.471 239.343 142.878 237.153 140.17 236.749C138.499 236.461 137.001 236.865 135.848 237.787C134.638 238.766 133.889 240.322 133.543 242.339C133.082 245.278 134.811 248.793 135.963 250.868C134.177 249.254 131.065 246.892 128.126 246.776C126.052 246.661 124.381 247.122 123.171 248.102C122.076 249.081 121.384 250.522 121.327 252.193ZM135.099 242.627C135.387 240.956 135.963 239.746 136.828 238.997C137.865 238.19 139.075 238.132 139.882 238.305C142.475 238.709 143.627 240.726 143.109 243.895C142.648 246.834 139.017 250.061 137.865 250.983C136.943 249.427 134.696 245.509 135.099 242.627ZM153.251 241.014L159.013 248.044L148.468 256.63L128.587 272.881L122.825 265.851L153.251 241.014ZM124.208 249.37C125.13 248.62 126.398 248.332 128.069 248.39C131.008 248.505 134.35 251.502 135.675 252.77C134.523 253.692 130.719 256.63 127.723 256.515C124.496 256.4 122.767 254.844 122.883 252.251C122.94 251.386 123.228 250.234 124.208 249.37Z" fill="white"/>
<path d="M205.343 199.926L190.649 214.621L165.87 189.899L169.385 186.384C169.674 186.096 169.674 185.577 169.385 185.289C169.097 185.001 168.579 185.001 168.291 185.289L163.681 189.899L190.706 216.868L206.495 201.021C206.784 200.733 206.784 200.214 206.495 199.926C206.207 199.58 205.689 199.58 205.343 199.926Z" fill="white"/>
<path d="M201.655 175.262C201.367 175.55 201.367 176.069 201.655 176.357L216.81 191.455L210.356 197.909L201.252 188.804L200.733 188.343L199.062 186.672C198.774 186.384 198.255 186.384 197.967 186.672C197.679 186.96 197.679 187.479 197.967 187.767L199.638 189.438L200.099 189.899L210.356 200.099L219 191.398L202.75 175.205C202.462 174.916 201.943 174.916 201.655 175.262Z" fill="white"/>
<path d="M197.506 174.859C201.194 172.899 202.059 170.018 200.099 166.215C199.638 165.293 199.12 164.601 198.543 164.025C196.7 162.181 194.337 162.008 191.513 163.506C189.727 164.428 188.229 166.387 187.076 168.404C187.249 166.157 187.076 163.679 186.154 161.893C184.195 158.205 181.256 157.34 177.511 159.299C173.765 161.316 172.843 164.198 174.802 167.886C175.148 168.52 175.609 169.154 176.243 169.73C177.223 170.709 178.433 171.574 179.7 172.265C177.453 172.092 174.975 172.265 173.189 173.187C169.501 175.147 168.637 178.086 170.596 181.831C171.057 182.753 171.575 183.445 172.152 184.021C173.996 185.865 176.358 186.038 179.182 184.54C180.968 183.618 182.466 181.658 183.619 179.642C183.446 181.889 183.619 184.367 184.541 186.153C185.002 187.018 185.52 187.709 186.039 188.285C187.883 190.13 190.303 190.302 193.184 188.746C196.93 186.73 197.852 183.848 195.893 180.16C195.547 179.526 195.086 178.892 194.452 178.316C193.473 177.336 192.262 176.472 190.995 175.781C193.242 175.953 195.72 175.781 197.506 174.859ZM178.433 183.157C175.551 184.713 174.111 183.733 173.246 182.926C172.785 182.465 172.382 181.889 171.979 181.082C170.365 178.086 170.941 176.126 173.88 174.57C176.704 173.072 182.178 174.052 184.253 174.57C183.504 176.587 181.314 181.658 178.433 183.157ZM177.338 168.635C176.819 168.116 176.473 167.655 176.185 167.137C174.629 164.198 175.263 162.296 178.26 160.682C180.565 159.472 182.178 159.53 183.504 160.855C183.965 161.316 184.368 161.893 184.714 162.584C186.212 165.408 185.232 170.882 184.714 172.957C183.158 172.381 179.47 170.767 177.338 168.635ZM193.3 179.469C193.818 179.987 194.164 180.448 194.452 180.967C196.008 183.906 195.374 185.808 192.378 187.421C189.324 189.035 187.422 188.401 185.866 185.519C184.368 182.696 185.348 177.221 185.866 175.147C187.537 175.723 191.168 177.336 193.3 179.469ZM186.385 173.475C187.191 171.459 189.381 166.445 192.205 164.889C195.086 163.333 196.527 164.313 197.391 165.12C197.852 165.581 198.255 166.157 198.659 166.964C200.272 169.96 199.696 171.92 196.757 173.475C193.876 174.974 188.459 173.937 186.385 173.475Z" fill="white"/>
<path d="M167.023 365.083C164.833 363.181 158.091 361.971 154.691 361.51C157.976 360.358 164.372 357.938 166.159 355.632C166.735 354.883 166.965 354.249 166.908 353.673C166.792 352.405 165.525 352.06 164.142 351.656C163.104 351.368 161.894 351.022 160.915 350.273C159.935 349.524 159.301 348.487 158.783 347.507C158.149 346.412 157.573 345.433 156.535 345.375C155.613 345.317 154.922 346.066 154.518 346.643C153.193 348.372 152.444 352.636 152.041 356.151C151.003 352.809 149.505 348.717 147.834 347.277C147.315 346.816 146.509 346.182 145.587 346.412C144.607 346.643 144.204 347.738 143.743 348.948C143.397 349.985 142.936 351.138 142.129 352.06C141.322 352.982 140.228 353.5 139.248 354.019C137.98 354.653 136.828 355.229 136.943 356.497C137.001 357.073 137.346 357.649 138.038 358.283C140.228 360.185 146.97 361.395 150.369 361.856C147.085 363.009 140.689 365.429 138.902 367.734C138.326 368.483 138.095 369.117 138.153 369.693C138.268 370.961 139.536 371.307 140.919 371.71C141.956 371.998 143.166 372.344 144.146 373.093C145.126 373.842 145.76 374.88 146.278 375.859C146.97 377.012 147.488 377.934 148.525 377.991C149.447 378.049 150.139 377.3 150.542 376.724C151.868 374.995 152.617 370.731 153.02 367.215C154.057 370.558 155.556 374.649 157.227 376.09C157.745 376.551 158.552 377.185 159.474 376.954C160.511 376.724 160.857 375.629 161.318 374.419C161.664 373.381 162.125 372.229 162.932 371.307C163.738 370.385 164.833 369.866 165.813 369.348C167.08 368.714 168.233 368.137 168.118 366.87C168.06 366.236 167.714 365.659 167.023 365.083ZM139.306 356.9C139.017 356.612 138.845 356.439 138.845 356.382C139.075 356.209 139.651 355.863 140.17 355.632C141.265 355.114 142.59 354.422 143.627 353.27C144.665 352.117 145.183 350.734 145.587 349.582C145.76 349.063 145.99 348.429 146.163 348.199C146.278 348.256 146.451 348.372 146.739 348.602C148.526 350.158 150.485 356.612 151.407 360.127C147.719 359.666 141.092 358.514 139.306 356.9ZM149.217 375.571C148.986 375.917 148.814 376.032 148.698 376.09C148.468 375.917 148.122 375.283 147.834 374.822C147.2 373.785 146.451 372.517 145.241 371.537C144.031 370.615 142.59 370.212 141.438 369.866C140.919 369.751 140.228 369.52 139.997 369.348C140.055 369.232 140.112 369.059 140.4 368.714C141.841 366.87 148.122 364.449 151.58 363.297C151.349 367.042 150.658 373.727 149.217 375.571ZM155.901 347.738C156.132 347.392 156.305 347.277 156.42 347.219C156.651 347.392 156.996 348.026 157.284 348.487C157.918 349.524 158.667 350.792 159.877 351.714C161.088 352.636 162.528 353.039 163.681 353.385C164.199 353.5 164.891 353.731 165.121 353.904C165.064 354.019 165.006 354.192 164.718 354.538C163.277 356.439 156.996 358.802 153.539 359.954C153.769 356.324 154.461 349.639 155.901 347.738ZM165.006 367.676C163.911 368.195 162.586 368.887 161.549 370.039C160.511 371.192 159.993 372.575 159.589 373.727C159.416 374.246 159.186 374.88 159.013 375.11C158.898 375.053 158.725 374.937 158.437 374.707C156.651 373.151 154.691 366.697 153.769 363.181C157.4 363.7 164.026 364.853 165.813 366.409C166.159 366.697 166.274 366.87 166.331 366.927C166.101 367.158 165.467 367.446 165.006 367.676Z" fill="white"/>
<path d="M179.066 354.422L176.934 332.179L154.691 334.311L145.299 335.175L123.056 337.307L125.188 359.551L128.184 391.246L150.427 389.114L182.12 386.117L179.988 363.873L179.066 354.422ZM160.511 386.29L159.82 379.202C159.762 378.683 159.359 378.337 158.84 378.395C158.322 378.453 157.976 378.856 158.034 379.375L158.725 386.463L151.119 387.154L150.427 380.066C150.37 379.548 149.966 379.202 149.448 379.259C148.929 379.317 148.583 379.72 148.641 380.239L149.332 387.327L129.74 389.171L127.896 369.578L134.984 368.887C135.502 368.829 135.848 368.426 135.791 367.907C135.733 367.388 135.33 367.043 134.811 367.1L127.723 367.792L127.032 360.185L134.119 359.494C134.638 359.436 134.984 359.033 134.926 358.514C134.869 357.995 134.465 357.65 133.947 357.707L126.859 358.399L125.015 338.806L144.607 336.962L145.299 344.05C145.356 344.568 145.76 344.914 146.278 344.857C146.797 344.799 147.143 344.395 147.085 343.877L146.393 336.789L154 336.097L154.691 343.185C154.749 343.704 155.152 344.05 155.671 343.992C156.19 343.934 156.535 343.531 156.478 343.012L155.786 335.924L175.378 334.08L177.222 353.673L170.135 354.365C169.616 354.422 169.27 354.826 169.328 355.345C169.386 355.863 169.789 356.209 170.308 356.151L177.395 355.46L178.087 363.066L170.999 363.758C170.48 363.816 170.135 364.219 170.192 364.738C170.25 365.256 170.653 365.602 171.172 365.544L178.26 364.853L180.104 384.446L160.511 386.29Z" fill="white"/>
<path d="M100.755 47.0435C101.274 47.2163 101.619 47.274 101.619 47.274L102.138 47.3892L102.599 47.5621C102.599 47.5621 102.945 47.6773 103.463 47.8502C105.423 48.4265 110.263 49.5214 113.375 48.0231C117.754 45.8909 118.042 42.491 116.832 40.0707C116.083 38.5724 114.931 37.5351 113.49 37.1317C111.992 36.7283 110.263 36.9588 108.419 37.8809C105.768 39.1486 103.867 42.6062 102.83 44.7384C103.118 42.3757 103.291 38.4571 101.677 35.9792C100.582 34.2504 99.2569 33.0979 97.7587 32.6945C96.3181 32.2911 94.8198 32.5216 93.3792 33.4436C91.0743 34.8843 89.5184 37.9385 92.1691 42.03C94.0707 44.8537 98.7959 46.4672 100.755 47.0435ZM109.168 39.2063C110.666 38.4571 111.992 38.2842 113.144 38.5724C114.412 38.9181 115.104 39.8978 115.507 40.7046C116.659 43.0672 115.68 45.1418 112.799 46.5824C110.09 47.9078 105.423 46.7553 103.982 46.3519C104.616 44.5655 106.518 40.4741 109.168 39.2063ZM94.3012 34.6538C94.9927 34.1928 96.1452 33.7318 97.4129 34.0775C98.5078 34.3657 99.545 35.2877 100.467 36.6707C102.023 39.1486 101.504 43.5859 101.216 45.4299C99.8331 45.0265 95.2232 43.5859 93.6097 41.0503C91.8234 38.3419 92.0539 36.0944 94.3012 34.6538Z" fill="white"/>
<path d="M99.1992 57.6467C100.064 57.8772 120.232 63.5246 121.442 59.2026L123.113 53.3248C123.459 51.9993 122.076 50.5587 118.734 48.8299C118.33 48.5994 117.869 48.7723 117.639 49.1757C117.408 49.579 117.581 50.04 117.985 50.2706C121.327 52.057 121.557 52.9214 121.615 52.9214C120.981 53.8434 113.605 53.7281 101.274 50.2706C88.9421 46.813 82.661 43.0096 82.5458 41.9724C82.6034 41.9147 83.3525 41.2232 87.8472 41.6266C88.3082 41.6842 88.654 41.3385 88.7116 40.8775C88.7692 40.4164 88.4235 40.0707 87.9625 40.0131C82.2577 39.4944 81.2781 40.647 81.0476 41.5113L79.3188 47.6197H79.3765C78.8578 51.8841 98.3925 57.4162 99.1992 57.6467ZM82.0848 43.7011C86.0609 47.5045 100.179 51.5383 100.87 51.7688C101.562 51.9993 115.68 55.9179 121.096 54.7654L119.944 58.7993C119.252 59.7213 111.934 59.606 99.6026 56.1484C87.271 52.6909 80.99 48.8875 80.8747 47.7926L82.0848 43.7011Z" fill="white"/>
<path d="M93.0337 79.4869C94.82 80.0056 110.436 84.2699 111.473 80.6971L116.256 63.755C116.371 63.3516 116.141 62.8906 115.738 62.7753C115.334 62.6601 114.873 62.8906 114.758 63.2939L109.975 80.1785C109.226 80.87 103.118 80.6971 93.4947 77.931C83.8138 75.2226 78.57 72.1684 78.2819 71.1888L83.0647 54.3042C83.1799 53.9009 82.9494 53.4398 82.5461 53.3246C82.1427 53.2093 81.6817 53.4398 81.5665 53.8432L76.7836 70.7854C75.6888 74.4735 91.2473 78.9683 93.0337 79.4869Z" fill="white"/>
<path d="M185.175 103.46L199.12 118.903L173.131 142.357L159.128 126.913C158.84 126.568 158.322 126.568 158.034 126.856C157.688 127.144 157.688 127.663 157.976 127.951L172.958 144.547L201.309 118.961L186.327 102.365C186.039 102.019 185.52 102.019 185.232 102.307C184.886 102.653 184.886 103.114 185.175 103.46Z" fill="white"/>
<path d="M146.97 110.432C147.892 111.585 149.39 111.931 151.464 111.585C152.156 111.47 152.962 111.181 153.827 110.72L145.99 117.808L154.23 126.913L163.911 118.212C164.257 117.924 164.257 117.405 163.969 117.117C163.681 116.771 163.162 116.771 162.874 117.059L154.403 124.724L148.18 117.924L159.301 107.897L176.531 127.029L175.205 118.673L183.388 120.863L166.158 101.731L177.28 91.7038L183.388 98.446L174.456 106.514C174.111 106.802 174.111 107.321 174.399 107.609C174.687 107.954 175.205 107.954 175.494 107.666L185.578 98.5613L177.338 89.4563L169.501 96.5444C170.019 95.7376 170.365 94.9885 170.596 94.2969C171.172 92.2224 170.941 90.7241 169.962 89.6868C169.04 88.7648 167.657 88.3614 166.331 88.0157C164.43 87.497 162.47 86.9208 160.915 88.3038C160.223 88.8801 159.762 89.8021 159.359 91.1275C159.244 91.5309 159.186 91.9919 159.128 92.5105C158.84 92.0495 158.552 91.5885 158.264 91.2428C154.979 87.6123 152.617 89.8021 150.658 91.5309C148.698 93.2597 146.336 95.4495 149.563 99.0799C149.908 99.4257 150.312 99.7715 150.715 100.117C150.254 100.117 149.793 100.117 149.332 100.175C148.007 100.405 147.027 100.809 146.393 101.385C144.837 102.768 145.241 104.785 145.529 106.744C145.875 108.012 146.105 109.395 146.97 110.432ZM160.915 91.4733C161.203 90.4936 161.549 89.8021 162.009 89.3987C162.816 88.6496 164.026 88.9377 165.928 89.4563C167.08 89.8021 168.233 90.0902 168.867 90.7241C169.213 91.1275 169.674 91.819 169.097 93.7783C168.636 95.3918 167.023 97.4664 164.372 99.8291C163.681 100.463 162.989 101.039 162.528 101.443C161.779 99.3104 160.166 94.2393 160.915 91.4733ZM165.006 102.71L178.663 117.866L173.246 116.425L174.111 121.958L160.454 106.802L165.006 102.71ZM151.752 92.5682C153.942 90.6089 154.979 89.8021 157.111 92.1648C159.071 94.2969 159.82 99.5986 160.108 101.846C157.918 101.385 152.732 100.06 150.83 97.8698C148.698 95.5647 149.563 94.5851 151.752 92.5682ZM147.546 102.422C148.007 102.019 148.698 101.731 149.736 101.558C152.559 101.039 157.457 103.171 159.474 104.151C159.013 104.612 158.437 105.188 157.688 105.88C155.037 108.243 152.79 109.683 151.176 109.971C149.217 110.317 148.525 109.798 148.18 109.395C147.603 108.704 147.431 107.493 147.2 106.341C146.854 104.439 146.739 103.171 147.546 102.422Z" fill="white"/>
<path d="M-7.0599 68.3653C-7.00228 68.9415 -6.65652 69.5178 -5.96503 70.1517C-3.77532 72.0533 2.9667 73.2635 6.36652 73.7245C3.08195 74.877 -3.31433 77.2973 -5.10067 79.6024C-5.67691 80.3515 -5.9074 80.9854 -5.84978 81.5617C-5.73453 82.8295 -4.46681 83.1752 -3.08383 83.5786C-2.0466 83.8667 -0.836508 84.2125 0.1431 84.9616C1.12271 85.7108 1.75658 86.7481 2.2752 87.7277C2.96668 88.8226 3.48531 89.8023 4.52255 89.8599C5.44453 89.9175 6.13602 89.1684 6.53939 88.5921C7.86474 86.8633 8.61384 82.599 9.01721 79.0838C10.0544 82.4261 11.5527 86.5175 13.2238 87.9582C13.7424 88.4192 14.5491 89.0531 15.4711 88.8226C16.5083 88.5921 16.8541 87.4972 17.3151 86.287C17.6608 85.2498 18.1218 84.0972 18.9286 83.1752C19.7353 82.2532 20.8301 81.7346 21.8098 81.2159C23.0775 80.582 24.23 80.0058 24.1147 78.738C24.0571 78.1617 23.7113 77.5855 23.0198 76.9516C20.8301 75.0499 14.0881 73.8398 10.6883 73.3787C13.9729 72.2262 20.3691 69.8059 22.1555 67.5009C22.7317 66.7517 22.9622 66.1178 22.9046 65.5416C22.7893 64.2738 21.5216 63.928 20.1386 63.5246C19.1014 63.2365 17.8913 62.8907 16.9117 62.1416C15.9321 61.3925 15.2982 60.3552 14.7796 59.3755C14.1458 58.223 13.5695 57.301 12.5323 57.2434C11.6103 57.1857 10.9188 57.9349 10.5154 58.5111C9.19007 60.2399 8.44096 64.5043 8.0376 68.0195C7.00036 64.6772 5.50215 60.5857 3.83105 59.145C3.31244 58.684 2.50568 58.0501 1.5837 58.2806C0.604092 58.5111 0.200752 59.6061 -0.26024 60.8162C-0.605984 61.8535 -1.067 63.006 -1.87374 63.928C-2.68048 64.85 -3.77533 65.3687 -4.75494 65.8873C-6.02267 66.5212 -7.17515 67.0975 -7.0599 68.3653ZM21.7521 78.277C22.0978 78.5651 22.2131 78.738 22.2707 78.7956C22.0402 79.0261 21.464 79.3143 20.9454 79.5448C19.8505 80.0634 18.5252 80.7549 17.4879 81.9074C16.4507 83.06 15.9321 84.443 15.5287 85.5955C15.3558 86.1142 15.1254 86.7481 14.9525 86.9786C14.8372 86.9209 14.6644 86.8057 14.3762 86.5752C12.5899 85.0193 10.6307 78.5651 9.70871 75.0499C13.3966 75.5109 20.0234 76.7211 21.7521 78.277ZM11.8408 59.606C12.0713 59.2603 12.2442 59.145 12.3594 59.0874C12.5899 59.2603 12.9356 59.8942 13.2238 60.3552C13.8576 61.3925 14.6067 62.6602 15.8168 63.5823C17.0269 64.5043 18.4676 64.9077 19.62 65.2534C20.1387 65.3687 20.8301 65.5992 21.0606 65.7721C21.003 65.8873 20.9454 66.0602 20.6573 66.406C19.2167 68.25 12.9356 70.6703 9.4782 71.8228C9.70869 68.1924 10.4002 61.5077 11.8408 59.606ZM5.1564 87.4396C4.9259 87.7853 4.75305 87.9006 4.6378 87.9582C4.4073 87.7853 4.06156 87.1514 3.77344 86.6904C3.13958 85.6532 2.39046 84.3854 1.18036 83.4057C-0.0297437 82.4837 -1.47037 82.0803 -2.62285 81.7346C-3.14146 81.6193 -3.83295 81.3888 -4.06345 81.2159C-4.00582 81.1007 -3.94819 80.9278 -3.66007 80.582C-2.21947 78.738 4.06156 76.3177 7.519 75.1652C7.28851 78.9109 6.597 85.5955 5.1564 87.4396ZM-3.94819 67.5009C-2.85333 66.9822 -1.52798 66.2907 -0.49075 65.1382C0.546482 63.9857 1.06511 62.6026 1.46848 61.4501C1.64135 60.9315 1.87185 60.2976 2.04472 60.0671C2.15997 60.1247 2.33284 60.2399 2.62096 60.4704C4.4073 62.0264 6.36651 68.4805 7.28849 71.9957C3.65818 71.4771 -2.9686 70.3245 -4.75494 68.7686C-5.04306 68.4805 -5.21593 68.3076 -5.21593 68.25C-5.04305 68.0195 -4.40918 67.7314 -3.94819 67.5009Z" fill="white"/>
<path d="M-15.934 103.056L6.30897 100.924L38.0023 97.9275L35.8702 75.6837L35.0058 66.2907L32.9314 43.9893L10.6884 46.1214L1.23805 46.9858L-21.0049 49.118L-18.8728 71.3618L-15.934 103.056ZM0.546551 48.8875L1.23805 55.9755C1.29567 56.4942 1.69905 56.8399 2.21767 56.7823C2.73628 56.7247 3.08201 56.3213 3.02438 55.8027L2.33292 48.7146L9.93929 48.0231L10.6308 55.1111C10.6884 55.6298 11.0918 55.9755 11.6104 55.9179C12.129 55.8603 12.4748 55.4569 12.4172 54.9383L11.7257 47.8502L31.3179 46.0062L33.1619 65.5991L26.0741 66.2907C25.5555 66.3483 25.2097 66.7517 25.2673 67.2703C25.325 67.7889 25.7284 68.1347 26.247 68.0771L33.3347 67.3855L34.0262 74.9922L26.9384 75.6837C26.4198 75.7414 26.0741 76.1448 26.1317 76.6634C26.1893 77.182 26.5927 77.5278 27.1113 77.4702L34.1991 76.7786L36.0431 96.3716L16.4509 98.2156L15.7594 91.1276C15.7017 90.609 15.2984 90.2632 14.7797 90.3208C14.2611 90.3785 13.9154 90.7818 13.973 91.3005L14.6645 98.3885L7.05808 99.08L6.36662 91.992C6.30899 91.4734 5.90561 91.1276 5.387 91.1852C4.86838 91.2429 4.52262 91.6462 4.58024 92.1649L5.27174 99.2529L-14.3205 101.097L-16.1645 81.504L-9.0767 80.8125C-8.55808 80.7549 -8.21232 80.3515 -8.26995 79.8328C-8.32757 79.3142 -8.73095 78.9684 -9.24957 79.0261L-16.3373 79.7176L-17.0288 72.1109L-9.94106 71.4194C-9.42245 71.3618 -9.07669 70.9584 -9.13431 70.4397C-9.19193 69.9211 -9.59531 69.5754 -10.1139 69.633L-17.2017 70.3245L-19.0457 50.7315L0.546551 48.8875Z" fill="white"/>
<g clip-path="url(#clip0)">
<path d="M61.2824 990.058L46.5882 1004.75L21.8098 980.031L25.3249 976.516C25.613 976.227 25.613 975.709 25.3249 975.421C25.0368 975.133 24.5182 975.133 24.2301 975.421L19.6201 980.031L46.6458 1007L62.4349 991.153C62.723 990.865 62.723 990.346 62.4349 990.058C62.1468 989.712 61.6281 989.712 61.2824 990.058Z" fill="white"/>
<path d="M57.5944 965.394C57.3063 965.682 57.3063 966.2 57.5944 966.489L72.7496 981.587L66.2957 988.041L57.1911 978.936L56.6725 978.475L55.0014 976.804C54.7132 976.516 54.1946 976.516 53.9065 976.804C53.6184 977.092 53.6184 977.61 53.9065 977.899L55.5776 979.57L56.0386 980.031L66.2957 990.231L74.9394 981.529L58.6893 965.336C58.4012 965.048 57.8826 965.048 57.5944 965.394Z" fill="white"/>
<path d="M53.4457 964.99C57.1337 963.031 57.9981 960.15 56.0388 956.346C55.5778 955.424 55.0593 954.733 54.483 954.157C52.639 952.313 50.2764 952.14 47.4528 953.638C45.6665 954.56 44.1682 956.519 43.0158 958.536C43.1886 956.289 43.0158 953.811 42.0938 952.024C40.1346 948.336 37.1957 947.472 33.4501 949.431C29.7046 951.448 28.7826 954.329 30.7418 958.018C31.0875 958.651 31.5485 959.285 32.1824 959.862C33.162 960.841 34.3721 961.706 35.6399 962.397C33.3925 962.224 30.9147 962.397 29.1283 963.319C25.4404 965.278 24.576 968.217 26.5352 971.963C26.9962 972.885 27.5148 973.577 28.0911 974.153C29.935 975.997 32.2976 976.17 35.1212 974.672C36.9076 973.75 38.4058 971.79 39.5583 969.773C39.3854 972.021 39.5583 974.499 40.4803 976.285C40.9413 977.149 41.4599 977.841 41.9785 978.417C43.8225 980.261 46.2427 980.434 49.1239 978.878C52.8695 976.861 53.7915 973.98 51.8323 970.292C51.4865 969.658 51.0255 969.024 50.3917 968.448C49.4121 967.468 48.2019 966.604 46.9342 965.912C49.1816 966.085 51.6594 965.912 53.4457 964.99ZM34.3721 973.288C31.4909 974.844 30.0503 973.865 29.1859 973.058C28.7249 972.597 28.3216 972.021 27.9182 971.214C26.3047 968.217 26.8809 966.258 29.8198 964.702C32.6434 963.204 38.1177 964.184 40.1922 964.702C39.443 966.719 37.2533 971.79 34.3721 973.288ZM33.2772 958.767C32.7586 958.248 32.4129 957.787 32.1248 957.268C30.5689 954.329 31.2028 952.428 34.1993 950.814C36.5042 949.604 38.1177 949.662 39.443 950.987C39.904 951.448 40.3074 952.024 40.6532 952.716C42.1514 955.54 41.1718 961.014 40.6532 963.089C39.0973 962.512 35.4093 960.899 33.2772 958.767ZM49.2392 969.6C49.7578 970.119 50.1035 970.58 50.3917 971.099C51.9475 974.038 51.3137 975.939 48.3172 977.553C45.2631 979.166 43.3615 978.533 41.8057 975.651C40.3074 972.828 41.287 967.353 41.8057 965.278C43.4768 965.855 47.1071 967.468 49.2392 969.6ZM42.3243 963.607C43.131 961.59 45.3207 956.577 48.1443 955.021C51.0256 953.465 52.4662 954.445 53.3305 955.251C53.7915 955.713 54.1949 956.289 54.5982 957.096C56.2117 960.092 55.6355 962.051 52.6966 963.607C49.8154 965.106 44.3987 964.068 42.3243 963.607Z" fill="white"/>
<path d="M149.62 948.279C149.274 948.567 149.217 949.028 149.505 949.374L166.446 971.329L146.739 986.543L129.74 964.587C129.452 964.241 128.991 964.184 128.645 964.472C128.299 964.76 128.242 965.221 128.53 965.567L146.393 988.79L168.636 971.675L150.773 948.452C150.427 948.048 149.966 947.991 149.62 948.279Z" fill="white"/>
<path d="M130.489 957.096C130.201 956.75 129.74 956.692 129.394 956.98L123.459 961.533L118.331 954.906L129.51 946.262L129.625 946.204C130.316 948.682 132.103 950.987 133.947 953.35C137.058 957.384 140.343 961.533 138.269 967.007C138.096 967.411 138.326 967.872 138.73 968.045C139.018 968.16 139.306 968.102 139.479 967.929C139.594 967.814 139.709 967.699 139.709 967.584C142.014 961.245 138.384 956.519 135.099 952.37C133.659 950.584 132.333 948.797 131.527 947.069C135.33 950.18 142.59 955.77 145.529 955.194C145.644 955.194 145.76 955.136 145.875 955.021C146.105 954.848 146.221 954.56 146.163 954.272C146.105 953.868 145.644 953.58 145.241 953.638C143.109 954.041 135.906 948.682 131.296 944.764L131.642 944.475L142.821 935.831L147.949 942.458L141.957 947.069C141.611 947.357 141.553 947.818 141.841 948.163C142.129 948.509 142.59 948.567 142.936 948.279L150.197 942.689L143.167 933.526L137.174 938.136C137.404 937.618 137.635 937.042 137.75 936.465C138.672 931.682 136.079 929.435 133.428 928.916C131.757 928.628 130.259 928.916 129.106 929.838C127.896 930.76 127.032 932.316 126.686 934.333C126.167 937.214 127.723 940.787 128.876 942.919C127.147 941.306 124.093 938.828 121.154 938.598C119.08 938.425 117.409 938.828 116.141 939.808C114.931 940.73 114.239 942.113 114.124 943.784C113.951 946.492 115.449 949.547 120.29 949.892C120.866 949.95 121.442 949.892 122.019 949.777L116.026 954.387L123.056 963.55L130.259 958.018C130.72 957.902 130.777 957.441 130.489 957.096ZM128.242 934.852C128.53 933.181 129.164 932.028 130.086 931.279C131.123 930.472 132.333 930.472 133.198 930.645C135.791 931.106 136.886 933.123 136.252 936.35C135.675 939.289 131.988 942.401 130.835 943.265C129.855 941.652 127.723 937.675 128.242 934.852ZM120.463 948.509C117.236 948.279 115.565 946.723 115.738 944.072C115.795 943.208 116.083 942.055 117.12 941.248C118.042 940.557 119.368 940.269 121.039 940.384C123.92 940.614 127.262 943.669 128.53 944.994C127.435 945.858 123.459 948.682 120.463 948.509Z" fill="white"/>
<path d="M24.5755 683.486L6.71205 660.262C6.42393 659.916 5.96292 659.859 5.61718 660.147C5.27144 660.435 5.21384 660.896 5.50196 661.242L22.4434 683.197L2.73598 698.411L-14.3208 676.455C-14.6089 676.109 -15.0699 676.052 -15.4156 676.34C-15.7614 676.628 -15.819 677.089 -15.5308 677.435L2.33263 700.658L24.5755 683.486Z" fill="white"/>
<path d="M-13.5712 668.964C-13.8593 668.618 -14.3203 668.56 -14.666 668.848L-20.6014 673.401L-25.7299 666.774L-14.5508 658.13L-14.4356 658.072C-13.7441 660.55 -11.9577 662.855 -10.1137 665.218C-7.00203 669.252 -3.71745 673.401 -5.79192 678.875C-5.9648 679.279 -5.73431 679.74 -5.33093 679.913C-5.04281 680.028 -4.75466 679.97 -4.58179 679.797C-4.46654 679.682 -4.35131 679.567 -4.35131 679.452C-2.04634 673.113 -5.67667 668.387 -8.96126 664.238C-10.4019 662.452 -11.7272 660.666 -12.534 658.937C-8.73077 662.049 -1.47008 667.638 1.46877 667.062C1.58401 667.062 1.69925 667.004 1.8145 666.889C2.04499 666.716 2.16024 666.428 2.10262 666.082C2.04499 665.679 1.58401 665.391 1.18064 665.448C-0.951458 665.852 -8.1545 660.493 -12.7645 656.574L-12.4187 656.286L-1.23959 647.642L3.88896 654.269L-2.10395 658.879C-2.4497 659.167 -2.50733 659.628 -2.21921 659.974C-1.93109 660.32 -1.47008 660.377 -1.12433 660.089L6.13632 654.499L-0.893854 645.337L-6.88676 649.947C-6.65627 649.428 -6.42577 648.852 -6.31052 648.276C-5.38853 643.493 -7.98163 641.245 -10.6323 640.727C-12.3035 640.439 -13.8017 640.727 -14.9542 641.649C-16.1643 642.571 -17.0287 644.127 -17.3744 646.144C-17.893 649.025 -16.3372 652.598 -15.1847 654.73C-16.9134 653.116 -19.9675 650.639 -22.9064 650.408C-24.9808 650.235 -26.6519 650.639 -27.9197 651.618C-29.1298 652.54 -29.8213 653.923 -29.9365 655.594C-30.1094 658.303 -28.6112 661.357 -23.7707 661.703C-23.1945 661.76 -22.6182 661.703 -22.042 661.588L-28.0349 666.198L-21.0047 675.36L-13.8017 669.828C-13.3407 669.77 -13.2831 669.309 -13.5712 668.964ZM-15.8185 646.662C-15.5304 644.991 -14.8966 643.839 -13.9746 643.089C-12.9373 642.283 -11.7272 642.283 -10.8629 642.456C-8.26976 642.917 -7.17491 644.934 -7.80877 648.161C-8.38502 651.1 -12.073 654.211 -13.2254 655.076C-14.2051 653.52 -16.3372 649.544 -15.8185 646.662ZM-23.5978 660.377C-26.8248 660.147 -28.4959 658.591 -28.323 655.94C-28.2654 655.076 -27.9773 653.923 -26.94 653.116C-26.0181 652.425 -24.6927 652.137 -23.0216 652.252C-20.1404 652.483 -16.7982 655.537 -15.5304 656.862C-16.6253 657.727 -20.6014 660.55 -23.5978 660.377Z" fill="white"/>
<path d="M183.1 563.853L198.716 539.074C198.947 538.728 198.831 538.21 198.486 537.979C198.14 537.749 197.621 537.864 197.391 538.21L182.639 561.664L161.549 548.409L176.3 524.956C176.531 524.61 176.416 524.091 176.07 523.861C175.724 523.63 175.206 523.745 174.975 524.091L159.359 548.87L183.1 563.853Z" fill="white"/>
<path d="M183.619 523.054C183.849 522.708 183.734 522.19 183.388 521.959L177.05 517.983L181.487 510.895L193.472 518.444L193.588 518.501C191.456 520 189.957 522.478 188.344 525.013C185.636 529.335 182.87 533.83 176.992 533.83C176.531 533.83 176.185 534.176 176.185 534.637C176.185 534.925 176.358 535.155 176.531 535.328C176.646 535.386 176.819 535.444 176.934 535.444C183.676 535.444 186.846 530.372 189.612 525.878C190.822 523.918 191.974 522.074 193.357 520.691C191.744 525.301 188.978 534.118 190.534 536.654C190.591 536.769 190.707 536.827 190.764 536.942C190.995 537.115 191.34 537.115 191.571 536.942C191.917 536.711 192.09 536.25 191.859 535.847C190.764 534.003 193.3 525.359 195.374 519.712L195.72 519.942L207.706 527.491L203.269 534.579L196.872 530.545C196.527 530.315 196.008 530.43 195.777 530.776C195.547 531.122 195.662 531.64 196.008 531.871L203.73 536.711L209.895 526.973L203.499 522.939C204.075 522.996 204.709 522.996 205.228 522.881C210.011 522.074 211.221 518.905 210.817 516.196C210.529 514.525 209.723 513.257 208.455 512.451C207.129 511.644 205.458 511.356 203.384 511.702C200.503 512.163 197.679 514.929 196.123 516.715C197.045 514.525 198.313 510.78 197.506 507.956C196.93 505.939 195.95 504.498 194.683 503.691C193.415 502.885 191.917 502.712 190.246 503.173C187.595 503.922 185.29 506.4 186.615 511.068C186.788 511.644 187.019 512.163 187.307 512.681L180.91 508.647L174.745 518.386L182.409 523.227C182.927 523.573 183.388 523.457 183.619 523.054ZM203.73 513.315C205.401 513.027 206.726 513.2 207.706 513.834C208.801 514.525 209.204 515.678 209.377 516.485C209.838 519.078 208.282 520.807 205.113 521.325C202.174 521.844 197.967 519.366 196.757 518.617C197.852 517.176 200.848 513.776 203.73 513.315ZM188.229 510.722C187.307 507.61 188.229 505.478 190.764 504.786C191.571 504.556 192.781 504.441 193.876 505.132C194.855 505.766 195.605 506.861 196.066 508.474C196.872 511.298 195.144 515.447 194.337 517.118C193.069 516.312 189.035 513.603 188.229 510.722Z" fill="white"/>
<path d="M25.325 774.766C25.0369 774.42 24.5759 774.362 24.2301 774.593C23.8844 774.881 23.8267 775.342 24.0572 775.688L31.4332 785.484L36.0431 782.027L40.7682 778.454L45.4934 774.881L50.2186 771.308L54.9438 767.735L59.669 764.163L64.3942 760.59L69.1193 757.017L73.7293 753.559L66.3534 743.763C66.0653 743.417 65.6043 743.359 65.2585 743.59C64.9128 743.878 64.8552 744.339 65.0857 744.685L71.482 753.214L68.7736 755.23L62.3773 746.702C62.0892 746.356 61.6282 746.298 61.2825 746.529C60.9367 746.817 60.8791 747.278 61.1096 747.624L67.5059 756.153L64.0484 758.746L57.6522 750.217C57.364 749.871 56.903 749.814 56.5573 750.044C56.2115 750.332 56.1539 750.793 56.3844 751.139L62.7807 759.668L59.3232 762.261L52.927 753.732C52.6388 753.386 52.1778 753.329 51.8321 753.559C51.4863 753.847 51.4287 754.308 51.6592 754.654L58.0555 763.183L54.598 765.776L48.2018 757.247C47.9137 756.902 47.4526 756.844 47.1069 757.075C46.7612 757.363 46.7035 757.824 46.934 758.169L53.3303 766.698L49.8729 769.291L43.4766 760.763C43.1885 760.417 42.7275 760.359 42.3817 760.59C42.036 760.878 41.9784 761.339 42.2088 761.685L48.6052 770.213L45.1477 772.807L38.7514 764.278C38.4633 763.932 38.0023 763.874 37.6566 764.105C37.3108 764.393 37.2532 764.854 37.4837 765.2L43.88 773.729L40.4225 776.322L34.0262 767.793C33.7381 767.447 33.2771 767.39 32.9314 767.62C32.5856 767.908 32.528 768.369 32.7585 768.715L39.1548 777.244L35.6973 779.837L29.3011 771.308C29.0129 770.962 28.5519 770.905 28.2062 771.135C27.8604 771.423 27.8028 771.885 28.0333 772.23L34.4296 780.759L31.7213 782.776L25.325 774.766Z" fill="white"/>
<path d="M33.4498 734.312C33.0464 734.6 32.7583 735.119 32.643 735.983C32.182 738.519 34.4294 744.109 35.6395 746.932C33.2769 744.973 28.5517 741.285 25.9586 740.997C25.1519 740.882 24.5756 740.997 24.1723 741.343C23.3079 742.034 23.5961 743.129 23.9418 744.339C24.2299 745.261 24.518 746.298 24.4028 747.393C24.2875 748.431 23.7689 749.41 23.3079 750.275C22.7893 751.312 22.3283 752.176 22.7317 752.983C23.135 753.675 23.9994 753.847 24.6333 753.963C26.362 754.136 29.4161 753.041 32.0092 751.831L12.7627 766.064L18.8708 774.19L66.4684 738.519L60.3603 730.394L41.2291 744.743C43.073 742.553 45.0322 739.96 45.3204 738.231C45.4356 737.597 45.4932 736.732 44.917 736.156C44.2831 735.522 43.3035 735.695 42.151 735.926C41.229 736.099 40.1342 736.329 39.097 736.156C38.0597 735.983 37.1377 735.407 36.331 734.888C35.2938 734.255 34.3142 733.621 33.4498 734.312ZM24.6909 752.234C24.3452 752.176 24.1723 752.119 24.057 752.119C24.1146 751.888 24.4028 751.312 24.6333 750.909C25.1519 749.987 25.7281 748.834 25.901 747.451C26.0739 746.068 25.6705 744.858 25.3824 743.82C25.2672 743.359 25.0943 742.783 25.0943 742.553C25.1519 742.553 25.3824 742.495 25.7281 742.553C27.8026 742.783 32.4702 746.414 34.948 748.488C32.1244 749.929 26.7654 752.464 24.6909 752.234ZM60.0721 732.583L64.2787 738.173L19.2166 771.942L15.0101 766.352L60.0721 732.583ZM42.4968 737.539C42.9578 737.424 43.534 737.309 43.8221 737.366C43.8221 737.482 43.8221 737.654 43.7645 738C43.4188 740.075 39.4427 744.454 37.253 746.817C35.9852 743.878 33.7955 738.346 34.1989 736.271C34.2565 735.926 34.3141 735.753 34.3718 735.638C34.6023 735.695 35.1209 736.041 35.5242 736.271C36.3886 736.848 37.5411 737.539 38.8664 737.77C40.1918 738 41.5171 737.712 42.4968 737.539Z" fill="white"/>
<path d="M106.633 663.028C108.246 663.662 109.975 664.066 111.531 663.835C113.663 663.547 115.219 662.74 116.256 661.53C117.178 660.377 117.524 658.937 117.293 657.323C117.063 655.652 116.256 654.327 115.046 653.52C113.778 652.656 112.049 652.367 109.975 652.656C107.036 653.059 104.155 655.71 102.541 657.496C103.521 655.306 104.904 651.676 104.155 648.795C103.636 646.778 102.714 645.337 101.446 644.473C100.179 643.666 98.6805 643.435 97.067 643.839C94.4163 644.53 92.0537 646.951 93.2639 651.618C93.6672 653.174 94.7044 654.615 95.9146 655.825L84.6202 648.276L79.7222 655.594L113.087 677.838L117.985 670.52L106.633 663.028ZM110.205 654.211C111.876 653.981 113.202 654.211 114.181 654.845C115.276 655.594 115.622 656.747 115.737 657.554C115.853 658.361 115.795 659.571 115.046 660.55C114.297 661.472 113.087 662.049 111.358 662.279C108.361 662.683 104.27 660.147 103.06 659.34C104.212 657.957 107.324 654.615 110.205 654.211ZM94.7621 651.215C93.9553 648.103 94.8773 645.971 97.4128 645.337C98.2195 645.106 99.4296 645.049 100.524 645.74C101.504 646.374 102.196 647.527 102.599 649.14C103.348 651.964 101.446 656.056 100.64 657.727C99.4873 656.978 95.5112 654.154 94.7621 651.215ZM112.626 675.706L101.274 668.099L81.9119 655.191L85.0236 650.523L115.737 671.038L112.626 675.706Z" fill="white"/>
<path d="M108.65 677.435L106.056 680.143L76.2071 681.354L73.2107 679.337L74.1327 677.204L105.019 675.937C105.48 675.937 105.768 675.533 105.768 675.13C105.768 674.669 105.365 674.381 104.962 674.381L74.8242 675.649L76.7258 671.327L96.779 670.52C97.2399 670.52 97.5281 670.116 97.5281 669.713C97.5281 669.252 97.1247 668.964 96.7213 668.964L77.4173 669.771L79.3188 665.449L88.5963 665.045C89.0573 665.045 89.3455 664.642 89.3455 664.239C89.3455 663.778 88.9421 663.489 88.5387 663.489L80.0679 663.835L81.9119 659.628C82.0848 659.225 81.9119 658.764 81.5086 658.591C81.1052 658.418 80.6442 658.591 80.4713 658.995L71.1938 679.913L93.8401 695.069L109.802 678.53C110.09 678.242 110.09 677.723 109.802 677.435C109.456 677.089 108.995 677.089 108.65 677.435ZM93.6096 692.994L86.6947 688.384L98.5077 687.923L93.6096 692.994ZM100.121 686.309L84.4474 686.886L78.3969 682.852L104.443 681.757L100.121 686.309Z" fill="white"/>
<path d="M76.1497 820.752L83.5256 823.633C83.6408 823.691 83.8137 823.691 83.9866 823.691C84.3323 823.691 84.6205 823.518 84.7933 823.23C85.0815 822.826 85.0815 822.308 84.7933 821.904C83.4104 820.176 80.4139 815.508 82.8917 809.86C83.0646 809.399 82.9493 808.881 82.546 808.535C82.1426 808.247 81.5664 808.247 81.2206 808.535L72.6922 815.335L81.0478 803.464L78.5123 804.501C75.5158 805.769 72.116 806.46 68.5433 806.576C62.4351 806.806 57.7099 805.25 57.6523 805.25L55.0592 804.386L64.2214 815.623L55.1744 809.572C54.7711 809.284 54.1948 809.342 53.8491 809.688C53.5033 810.033 53.3881 810.552 53.6186 811.013C56.4998 816.43 53.8491 821.328 52.5813 823.172C52.2932 823.575 52.3509 824.094 52.639 824.498C52.8695 824.728 53.1576 824.901 53.5033 824.901C53.6762 824.901 53.7915 824.843 53.9067 824.786L61.0521 821.328C55.0592 826.572 50.5069 836.714 50.7374 843.111C51.0255 851.697 60.5911 855.846 69.811 855.5C79.0309 855.155 88.2508 850.314 87.9051 841.728C87.7322 835.331 82.4884 825.592 76.1497 820.752ZM80.7596 810.955C79.4919 815.45 81.1054 819.253 82.546 821.559L72.4617 817.582L80.7596 810.955ZM59.4962 807.498C61.5707 807.959 64.7401 808.42 68.5433 808.304C71.4245 808.189 74.1329 807.728 76.6683 806.979L69.35 817.352C68.9467 817.928 68.0246 817.928 67.5637 817.409L59.4962 807.498ZM54.7711 822.538C56.0388 820.176 57.3641 816.257 55.7507 811.877L64.5096 817.87L54.7711 822.538ZM69.811 853.887C61.3402 854.175 52.639 850.545 52.4085 842.996C52.1203 835.331 59.6691 820.982 67.5637 819.542C67.1027 822.826 65.3163 833.314 60.9369 839.423C60.7064 839.768 60.764 840.287 61.1098 840.518C61.2826 840.633 61.4555 840.691 61.5707 840.691C61.8012 840.691 62.0317 840.575 62.2046 840.345C66.1231 834.928 67.967 826.514 68.7738 821.904C70.0991 825.42 72.4041 830.779 74.7091 832.392C74.882 832.508 75.0548 832.565 75.1701 832.565C75.4006 832.565 75.6311 832.45 75.804 832.219C76.0345 831.874 75.9768 831.355 75.6311 831.125C73.4413 829.569 70.7906 822.942 69.5805 819.484C77.5903 820.348 86.1187 834.063 86.4068 841.728C86.6373 849.277 78.2242 853.541 69.811 853.887Z" fill="white"/>
<path d="M57.2489 909.15L42.2666 892.554C41.9784 892.208 41.4598 892.208 41.1717 892.497C40.826 892.785 40.826 893.303 41.1141 893.591L55.0592 909.035L29.0706 932.489L15.0679 917.045C14.7798 916.7 14.2612 916.7 13.9731 916.988C13.6273 917.276 13.6273 917.794 13.9154 918.083L28.8977 934.679L57.2489 909.15Z" fill="white"/>
<path d="M19.7934 907.191C19.5053 906.845 18.9867 906.845 18.6985 907.134L10.2278 914.798L4.11962 908.056L15.2411 898.029L32.4708 917.161L31.1454 908.805L39.328 910.994L22.0984 891.863L33.2199 881.836L39.328 888.578L30.3963 896.646C30.0505 896.934 30.0505 897.452 30.3386 897.74C30.6268 898.086 31.1454 898.086 31.4335 897.798L41.5178 888.693L33.2775 879.588L25.4406 886.676C25.9592 885.869 26.305 885.12 26.5355 884.429C27.1117 882.354 26.8812 880.856 25.9016 879.819C24.9796 878.897 23.5966 878.493 22.2713 878.148C20.3697 877.629 18.4104 877.053 16.8546 878.436C16.1631 879.012 15.7021 879.934 15.2987 881.259C15.1835 881.663 15.1259 882.124 15.0682 882.642C14.7801 882.181 14.492 881.72 14.2039 881.375C10.9193 877.744 8.55668 879.934 6.59746 881.663C4.63824 883.391 2.27566 885.581 5.50262 889.212C5.84837 889.558 6.25174 889.903 6.65511 890.249C6.19411 890.249 5.7331 890.249 5.27211 890.307C3.94675 890.537 2.96715 890.941 2.33329 891.517C0.777434 892.9 1.1808 894.917 1.46892 896.876C1.69942 898.259 1.92991 899.7 2.79427 900.679C3.71626 901.774 5.21449 902.178 7.28896 901.832C7.98045 901.717 8.78717 901.429 9.65154 900.968L1.81466 908.056L10.0549 917.161L19.7358 908.459C20.0815 907.998 20.0815 907.537 19.7934 907.191ZM16.8546 881.605C17.1427 880.625 17.4884 879.934 17.9494 879.531C18.7562 878.781 19.9663 879.07 21.8679 879.588C23.0204 879.934 24.1729 880.222 24.8067 880.856C25.1525 881.259 25.6135 881.951 25.0372 883.91C24.5762 885.524 22.9627 887.598 20.312 889.961C19.6205 890.595 18.9291 891.171 18.4681 891.574C17.719 889.442 16.1055 884.371 16.8546 881.605ZM20.9459 892.842L34.6029 907.998L29.1862 906.557L30.0505 912.089L16.3936 896.934L20.9459 892.842ZM7.69233 882.7C9.88205 880.741 10.9193 879.934 13.0514 882.297C15.0106 884.429 15.7597 889.673 16.0478 891.978C13.8581 891.517 8.67192 890.191 6.77033 888.002C4.63823 885.697 5.50261 884.717 7.69233 882.7ZM7.11609 900.103C5.15687 900.449 4.46537 899.93 4.11962 899.527C3.54338 898.835 3.3705 897.625 3.14001 896.473C2.79426 894.513 2.67903 893.303 3.48577 892.554C3.94677 892.151 4.63825 891.863 5.67549 891.69C8.49907 891.171 13.3971 893.303 15.414 894.283C14.953 894.744 14.3767 895.32 13.6276 896.012C10.9769 898.432 8.72957 899.815 7.11609 900.103Z" fill="white"/>
<path d="M132.621 777.129C132.564 777.129 132.506 777.186 132.448 777.186C132.391 777.186 132.333 777.244 132.333 777.244H132.275L132.218 777.301C132.16 777.359 132.16 777.359 132.103 777.417C132.103 777.474 132.045 777.532 132.045 777.532C132.045 777.59 131.987 777.647 131.987 777.647C131.987 777.705 131.987 777.762 131.987 777.82C131.987 777.878 131.987 777.878 131.987 777.935V777.993C131.987 778.051 132.045 778.108 132.045 778.166C132.045 778.223 132.103 778.281 132.103 778.281V778.339L146.278 795.627L155.613 788.02L165.525 779.895L175.205 771.942L175.839 771.424L161.664 754.136C161.376 753.79 160.915 753.732 160.569 754.02C160.223 754.309 160.166 754.77 160.454 755.115L173.246 770.732L132.621 777.129C132.679 777.129 132.621 777.129 132.621 777.129ZM146.566 793.494L143.743 789.979L152.502 788.654L146.566 793.494ZM154.864 786.695L142.59 788.539L139.017 784.217L162.355 780.586L154.864 786.695ZM172.036 772.634L164.775 778.569L137.865 782.776L134.292 778.454L172.036 772.634Z" fill="white"/>
<path d="M121.327 754.193C121.212 756.902 122.825 759.898 127.665 760.129C128.53 760.186 129.452 760.014 130.316 759.725L120.635 767.62L128.415 777.129L161.26 750.275L153.481 740.766L143.8 748.661C144.261 747.854 144.549 746.99 144.722 746.126C145.471 741.343 142.878 739.153 140.17 738.749C138.499 738.461 137.001 738.865 135.848 739.787C134.638 740.766 133.889 742.322 133.543 744.339C133.082 747.278 134.811 750.793 135.963 752.868C134.177 751.254 131.065 748.892 128.126 748.776C126.052 748.661 124.381 749.122 123.171 750.102C122.076 751.081 121.384 752.522 121.327 754.193ZM135.099 744.627C135.387 742.956 135.963 741.746 136.828 740.997C137.865 740.19 139.075 740.132 139.882 740.305C142.475 740.709 143.627 742.726 143.109 745.895C142.648 748.834 139.017 752.061 137.865 752.983C136.943 751.427 134.696 747.509 135.099 744.627ZM153.251 743.014L159.013 750.044L148.468 758.63L128.587 774.881L122.825 767.851L153.251 743.014ZM124.208 751.37C125.13 750.62 126.398 750.332 128.069 750.39C131.008 750.505 134.35 753.502 135.675 754.77C134.523 755.692 130.719 758.63 127.723 758.515C124.496 758.4 122.767 756.844 122.883 754.251C122.94 753.386 123.228 752.234 124.208 751.37Z" fill="white"/>
<path d="M205.343 701.926L190.649 716.621L165.87 691.899L169.385 688.384C169.674 688.096 169.674 687.577 169.385 687.289C169.097 687.001 168.579 687.001 168.291 687.289L163.681 691.899L190.706 718.868L206.495 703.021C206.784 702.733 206.784 702.214 206.495 701.926C206.207 701.58 205.689 701.58 205.343 701.926Z" fill="white"/>
<path d="M201.655 677.262C201.367 677.55 201.367 678.069 201.655 678.357L216.81 693.455L210.356 699.909L201.252 690.804L200.733 690.343L199.062 688.672C198.774 688.384 198.255 688.384 197.967 688.672C197.679 688.96 197.679 689.479 197.967 689.767L199.638 691.438L200.099 691.899L210.356 702.099L219 693.398L202.75 677.205C202.462 676.916 201.943 676.916 201.655 677.262Z" fill="white"/>
<path d="M197.506 676.859C201.194 674.899 202.059 672.018 200.099 668.215C199.638 667.293 199.12 666.601 198.543 666.025C196.7 664.181 194.337 664.008 191.513 665.506C189.727 666.428 188.229 668.387 187.076 670.404C187.249 668.157 187.076 665.679 186.154 663.893C184.195 660.205 181.256 659.34 177.511 661.299C173.765 663.316 172.843 666.198 174.802 669.886C175.148 670.52 175.609 671.154 176.243 671.73C177.223 672.709 178.433 673.574 179.7 674.265C177.453 674.092 174.975 674.265 173.189 675.187C169.501 677.147 168.637 680.086 170.596 683.831C171.057 684.753 171.575 685.445 172.152 686.021C173.996 687.865 176.358 688.038 179.182 686.54C180.968 685.618 182.466 683.658 183.619 681.642C183.446 683.889 183.619 686.367 184.541 688.153C185.002 689.018 185.52 689.709 186.039 690.285C187.883 692.13 190.303 692.302 193.184 690.746C196.93 688.73 197.852 685.848 195.893 682.16C195.547 681.526 195.086 680.892 194.452 680.316C193.473 679.336 192.262 678.472 190.995 677.781C193.242 677.953 195.72 677.781 197.506 676.859ZM178.433 685.157C175.551 686.713 174.111 685.733 173.246 684.926C172.785 684.465 172.382 683.889 171.979 683.082C170.365 680.086 170.941 678.126 173.88 676.57C176.704 675.072 182.178 676.052 184.253 676.57C183.504 678.587 181.314 683.658 178.433 685.157ZM177.338 670.635C176.819 670.116 176.473 669.655 176.185 669.137C174.629 666.198 175.263 664.296 178.26 662.682C180.565 661.472 182.178 661.53 183.504 662.855C183.965 663.316 184.368 663.893 184.714 664.584C186.212 667.408 185.232 672.882 184.714 674.957C183.158 674.381 179.47 672.767 177.338 670.635ZM193.3 681.469C193.818 681.987 194.164 682.448 194.452 682.967C196.008 685.906 195.374 687.808 192.378 689.421C189.324 691.035 187.422 690.401 185.866 687.519C184.368 684.696 185.348 679.221 185.866 677.147C187.537 677.723 191.168 679.336 193.3 681.469ZM186.385 675.475C187.191 673.459 189.381 668.445 192.205 666.889C195.086 665.333 196.527 666.313 197.391 667.12C197.852 667.581 198.255 668.157 198.659 668.964C200.272 671.96 199.696 673.92 196.757 675.475C193.876 676.974 188.459 675.937 186.385 675.475Z" fill="white"/>
<path d="M167.023 867.083C164.833 865.181 158.091 863.971 154.691 863.51C157.976 862.358 164.372 859.938 166.159 857.632C166.735 856.883 166.965 856.249 166.908 855.673C166.792 854.405 165.525 854.06 164.142 853.656C163.104 853.368 161.894 853.022 160.915 852.273C159.935 851.524 159.301 850.487 158.783 849.507C158.149 848.412 157.573 847.433 156.535 847.375C155.613 847.317 154.922 848.066 154.518 848.643C153.193 850.372 152.444 854.636 152.041 858.151C151.003 854.809 149.505 850.717 147.834 849.277C147.315 848.816 146.509 848.182 145.587 848.412C144.607 848.643 144.204 849.738 143.743 850.948C143.397 851.985 142.936 853.138 142.129 854.06C141.322 854.982 140.228 855.5 139.248 856.019C137.98 856.653 136.828 857.229 136.943 858.497C137.001 859.073 137.346 859.649 138.038 860.283C140.228 862.185 146.97 863.395 150.369 863.856C147.085 865.009 140.689 867.429 138.902 869.734C138.326 870.483 138.095 871.117 138.153 871.693C138.268 872.961 139.536 873.307 140.919 873.71C141.956 873.998 143.166 874.344 144.146 875.093C145.126 875.842 145.76 876.88 146.278 877.859C146.97 879.012 147.488 879.934 148.525 879.991C149.447 880.049 150.139 879.3 150.542 878.724C151.868 876.995 152.617 872.731 153.02 869.215C154.057 872.558 155.556 876.649 157.227 878.09C157.745 878.551 158.552 879.185 159.474 878.954C160.511 878.724 160.857 877.629 161.318 876.419C161.664 875.381 162.125 874.229 162.932 873.307C163.738 872.385 164.833 871.866 165.813 871.348C167.08 870.714 168.233 870.137 168.118 868.87C168.06 868.236 167.714 867.659 167.023 867.083ZM139.306 858.9C139.017 858.612 138.845 858.439 138.845 858.382C139.075 858.209 139.651 857.863 140.17 857.632C141.265 857.114 142.59 856.422 143.627 855.27C144.665 854.117 145.183 852.734 145.587 851.582C145.76 851.063 145.99 850.429 146.163 850.199C146.278 850.256 146.451 850.372 146.739 850.602C148.526 852.158 150.485 858.612 151.407 862.127C147.719 861.666 141.092 860.514 139.306 858.9ZM149.217 877.571C148.986 877.917 148.814 878.032 148.698 878.09C148.468 877.917 148.122 877.283 147.834 876.822C147.2 875.785 146.451 874.517 145.241 873.537C144.031 872.615 142.59 872.212 141.438 871.866C140.919 871.751 140.228 871.52 139.997 871.348C140.055 871.232 140.112 871.059 140.4 870.714C141.841 868.87 148.122 866.449 151.58 865.297C151.349 869.042 150.658 875.727 149.217 877.571ZM155.901 849.738C156.132 849.392 156.305 849.277 156.42 849.219C156.651 849.392 156.996 850.026 157.284 850.487C157.918 851.524 158.667 852.792 159.877 853.714C161.088 854.636 162.528 855.039 163.681 855.385C164.199 855.5 164.891 855.731 165.121 855.904C165.064 856.019 165.006 856.192 164.718 856.538C163.277 858.439 156.996 860.802 153.539 861.954C153.769 858.324 154.461 851.639 155.901 849.738ZM165.006 869.676C163.911 870.195 162.586 870.887 161.549 872.039C160.511 873.192 159.993 874.575 159.589 875.727C159.416 876.246 159.186 876.88 159.013 877.11C158.898 877.053 158.725 876.937 158.437 876.707C156.651 875.151 154.691 868.697 153.769 865.181C157.4 865.7 164.026 866.853 165.813 868.409C166.159 868.697 166.274 868.87 166.331 868.927C166.101 869.158 165.467 869.446 165.006 869.676Z" fill="white"/>
<path d="M179.066 856.422L176.934 834.179L154.691 836.311L145.299 837.175L123.056 839.307L125.188 861.551L128.184 893.246L150.427 891.114L182.12 888.117L179.988 865.873L179.066 856.422ZM160.511 888.29L159.82 881.202C159.762 880.683 159.359 880.337 158.84 880.395C158.322 880.453 157.976 880.856 158.034 881.375L158.725 888.463L151.119 889.154L150.427 882.066C150.37 881.548 149.966 881.202 149.448 881.259C148.929 881.317 148.583 881.72 148.641 882.239L149.332 889.327L129.74 891.171L127.896 871.578L134.984 870.887C135.502 870.829 135.848 870.426 135.791 869.907C135.733 869.388 135.33 869.043 134.811 869.1L127.723 869.792L127.032 862.185L134.119 861.494C134.638 861.436 134.984 861.033 134.926 860.514C134.869 859.995 134.465 859.65 133.947 859.707L126.859 860.399L125.015 840.806L144.607 838.962L145.299 846.05C145.356 846.568 145.76 846.914 146.278 846.857C146.797 846.799 147.143 846.395 147.085 845.877L146.393 838.789L154 838.097L154.691 845.185C154.749 845.704 155.152 846.05 155.671 845.992C156.19 845.934 156.535 845.531 156.478 845.012L155.786 837.924L175.378 836.08L177.222 855.673L170.135 856.365C169.616 856.422 169.27 856.826 169.328 857.345C169.386 857.863 169.789 858.209 170.308 858.151L177.395 857.46L178.087 865.066L170.999 865.758C170.48 865.816 170.135 866.219 170.192 866.738C170.25 867.256 170.653 867.602 171.172 867.544L178.26 866.853L180.104 886.446L160.511 888.29Z" fill="white"/>
<path d="M100.755 549.043C101.274 549.216 101.619 549.274 101.619 549.274L102.138 549.389L102.599 549.562C102.599 549.562 102.945 549.677 103.463 549.85C105.423 550.426 110.263 551.521 113.375 550.023C117.754 547.891 118.042 544.491 116.832 542.071C116.083 540.572 114.931 539.535 113.49 539.132C111.992 538.728 110.263 538.959 108.419 539.881C105.768 541.149 103.867 544.606 102.83 546.738C103.118 544.376 103.291 540.457 101.677 537.979C100.582 536.25 99.2569 535.098 97.7587 534.694C96.3181 534.291 94.8198 534.521 93.3792 535.444C91.0743 536.884 89.5184 539.938 92.1691 544.03C94.0707 546.854 98.7959 548.467 100.755 549.043ZM109.168 541.206C110.666 540.457 111.992 540.284 113.144 540.572C114.412 540.918 115.104 541.898 115.507 542.704C116.659 545.067 115.68 547.142 112.799 548.582C110.09 549.908 105.423 548.755 103.982 548.352C104.616 546.565 106.518 542.474 109.168 541.206ZM94.3012 536.654C94.9927 536.193 96.1452 535.732 97.4129 536.077C98.5078 536.366 99.545 537.288 100.467 538.671C102.023 541.149 101.504 545.586 101.216 547.43C99.8331 547.026 95.2232 545.586 93.6097 543.05C91.8234 540.342 92.0539 538.094 94.3012 536.654Z" fill="white"/>
<path d="M99.1992 559.647C100.064 559.877 120.232 565.525 121.442 561.203L123.113 555.325C123.459 553.999 122.076 552.559 118.734 550.83C118.33 550.599 117.869 550.772 117.639 551.176C117.408 551.579 117.581 552.04 117.985 552.271C121.327 554.057 121.557 554.921 121.615 554.921C120.981 555.843 113.605 555.728 101.274 552.271C88.9421 548.813 82.661 545.01 82.5458 543.972C82.6034 543.915 83.3525 543.223 87.8472 543.627C88.3082 543.684 88.654 543.338 88.7116 542.877C88.7692 542.416 88.4235 542.071 87.9625 542.013C82.2577 541.494 81.2781 542.647 81.0476 543.511L79.3188 549.62H79.3765C78.8578 553.884 98.3925 559.416 99.1992 559.647ZM82.0848 545.701C86.0609 549.504 100.179 553.538 100.87 553.769C101.562 553.999 115.68 557.918 121.096 556.765L119.944 560.799C119.252 561.721 111.934 561.606 99.6026 558.148C87.271 554.691 80.99 550.888 80.8747 549.793L82.0848 545.701Z" fill="white"/>
<path d="M93.0337 581.487C94.82 582.006 110.436 586.27 111.473 582.697L116.256 565.755C116.371 565.352 116.141 564.891 115.738 564.775C115.334 564.66 114.873 564.891 114.758 565.294L109.975 582.178C109.226 582.87 103.118 582.697 93.4947 579.931C83.8138 577.223 78.57 574.168 78.2819 573.189L83.0647 556.304C83.1799 555.901 82.9494 555.44 82.5461 555.325C82.1427 555.209 81.6817 555.44 81.5665 555.843L76.7836 572.785C75.6888 576.473 91.2473 580.968 93.0337 581.487Z" fill="white"/>
<path d="M185.175 605.46L199.12 620.903L173.131 644.357L159.128 628.913C158.84 628.568 158.322 628.568 158.034 628.856C157.688 629.144 157.688 629.663 157.976 629.951L172.958 646.547L201.309 620.961L186.327 604.365C186.039 604.019 185.52 604.019 185.232 604.307C184.886 604.653 184.886 605.114 185.175 605.46Z" fill="white"/>
<path d="M146.97 612.432C147.892 613.585 149.39 613.931 151.464 613.585C152.156 613.47 152.962 613.181 153.827 612.72L145.99 619.808L154.23 628.913L163.911 620.212C164.257 619.924 164.257 619.405 163.969 619.117C163.681 618.771 163.162 618.771 162.874 619.059L154.403 626.724L148.18 619.924L159.301 609.897L176.531 629.029L175.205 620.673L183.388 622.863L166.158 603.731L177.28 593.704L183.388 600.446L174.456 608.514C174.111 608.802 174.111 609.321 174.399 609.609C174.687 609.954 175.205 609.954 175.494 609.666L185.578 600.561L177.338 591.456L169.501 598.544C170.019 597.738 170.365 596.988 170.596 596.297C171.172 594.222 170.941 592.724 169.962 591.687C169.04 590.765 167.657 590.361 166.331 590.016C164.43 589.497 162.47 588.921 160.915 590.304C160.223 590.88 159.762 591.802 159.359 593.127C159.244 593.531 159.186 593.992 159.128 594.511C158.84 594.05 158.552 593.589 158.264 593.243C154.979 589.612 152.617 591.802 150.658 593.531C148.698 595.26 146.336 597.449 149.563 601.08C149.908 601.426 150.312 601.771 150.715 602.117C150.254 602.117 149.793 602.117 149.332 602.175C148.007 602.405 147.027 602.809 146.393 603.385C144.837 604.768 145.241 606.785 145.529 608.744C145.875 610.012 146.105 611.395 146.97 612.432ZM160.915 593.473C161.203 592.494 161.549 591.802 162.009 591.399C162.816 590.65 164.026 590.938 165.928 591.456C167.08 591.802 168.233 592.09 168.867 592.724C169.213 593.127 169.674 593.819 169.097 595.778C168.636 597.392 167.023 599.466 164.372 601.829C163.681 602.463 162.989 603.039 162.528 603.443C161.779 601.31 160.166 596.239 160.915 593.473ZM165.006 604.71L178.663 619.866L173.246 618.425L174.111 623.958L160.454 608.802L165.006 604.71ZM151.752 594.568C153.942 592.609 154.979 591.802 157.111 594.165C159.071 596.297 159.82 601.599 160.108 603.846C157.918 603.385 152.732 602.06 150.83 599.87C148.698 597.565 149.563 596.585 151.752 594.568ZM147.546 604.422C148.007 604.019 148.698 603.731 149.736 603.558C152.559 603.039 157.457 605.171 159.474 606.151C159.013 606.612 158.437 607.188 157.688 607.88C155.037 610.243 152.79 611.683 151.176 611.971C149.217 612.317 148.525 611.798 148.18 611.395C147.603 610.704 147.431 609.493 147.2 608.341C146.854 606.439 146.739 605.171 147.546 604.422Z" fill="white"/>
<path d="M-7.0599 570.365C-7.00228 570.942 -6.65652 571.518 -5.96503 572.152C-3.77532 574.053 2.9667 575.263 6.36652 575.725C3.08195 576.877 -3.31433 579.297 -5.10067 581.602C-5.67691 582.352 -5.9074 582.985 -5.84978 583.562C-5.73453 584.829 -4.46681 585.175 -3.08383 585.579C-2.0466 585.867 -0.836508 586.212 0.1431 586.962C1.12271 587.711 1.75658 588.748 2.2752 589.728C2.96668 590.823 3.48531 591.802 4.52255 591.86C5.44453 591.918 6.13602 591.168 6.53939 590.592C7.86474 588.863 8.61384 584.599 9.01721 581.084C10.0544 584.426 11.5527 588.518 13.2238 589.958C13.7424 590.419 14.5491 591.053 15.4711 590.823C16.5083 590.592 16.8541 589.497 17.3151 588.287C17.6608 587.25 18.1218 586.097 18.9286 585.175C19.7353 584.253 20.8301 583.735 21.8098 583.216C23.0775 582.582 24.23 582.006 24.1147 580.738C24.0571 580.162 23.7113 579.585 23.0198 578.952C20.8301 577.05 14.0881 575.84 10.6883 575.379C13.9729 574.226 20.3691 571.806 22.1555 569.501C22.7317 568.752 22.9622 568.118 22.9046 567.542C22.7893 566.274 21.5216 565.928 20.1386 565.525C19.1014 565.237 17.8913 564.891 16.9117 564.142C15.9321 563.392 15.2982 562.355 14.7796 561.376C14.1458 560.223 13.5695 559.301 12.5323 559.243C11.6103 559.186 10.9188 559.935 10.5154 560.511C9.19007 562.24 8.44096 566.504 8.0376 570.019C7.00036 566.677 5.50215 562.586 3.83105 561.145C3.31244 560.684 2.50568 560.05 1.5837 560.281C0.604092 560.511 0.200752 561.606 -0.26024 562.816C-0.605984 563.853 -1.067 565.006 -1.87374 565.928C-2.68048 566.85 -3.77533 567.369 -4.75494 567.887C-6.02267 568.521 -7.17515 569.097 -7.0599 570.365ZM21.7521 580.277C22.0978 580.565 22.2131 580.738 22.2707 580.796C22.0402 581.026 21.464 581.314 20.9454 581.545C19.8505 582.063 18.5252 582.755 17.4879 583.907C16.4507 585.06 15.9321 586.443 15.5287 587.596C15.3558 588.114 15.1254 588.748 14.9525 588.979C14.8372 588.921 14.6644 588.806 14.3762 588.575C12.5899 587.019 10.6307 580.565 9.70871 577.05C13.3966 577.511 20.0234 578.721 21.7521 580.277ZM11.8408 561.606C12.0713 561.26 12.2442 561.145 12.3594 561.087C12.5899 561.26 12.9356 561.894 13.2238 562.355C13.8576 563.392 14.6067 564.66 15.8168 565.582C17.0269 566.504 18.4676 566.908 19.62 567.253C20.1387 567.369 20.8301 567.599 21.0606 567.772C21.003 567.887 20.9454 568.06 20.6573 568.406C19.2167 570.25 12.9356 572.67 9.4782 573.823C9.70869 570.192 10.4002 563.508 11.8408 561.606ZM5.1564 589.44C4.9259 589.785 4.75305 589.901 4.6378 589.958C4.4073 589.785 4.06156 589.151 3.77344 588.69C3.13958 587.653 2.39046 586.385 1.18036 585.406C-0.0297437 584.484 -1.47037 584.08 -2.62285 583.735C-3.14146 583.619 -3.83295 583.389 -4.06345 583.216C-4.00582 583.101 -3.94819 582.928 -3.66007 582.582C-2.21947 580.738 4.06156 578.318 7.519 577.165C7.28851 580.911 6.597 587.596 5.1564 589.44ZM-3.94819 569.501C-2.85333 568.982 -1.52798 568.291 -0.49075 567.138C0.546482 565.986 1.06511 564.603 1.46848 563.45C1.64135 562.931 1.87185 562.298 2.04472 562.067C2.15997 562.125 2.33284 562.24 2.62096 562.47C4.4073 564.026 6.36651 570.481 7.28849 573.996C3.65818 573.477 -2.9686 572.325 -4.75494 570.769C-5.04306 570.481 -5.21593 570.308 -5.21593 570.25C-5.04305 570.019 -4.40918 569.731 -3.94819 569.501Z" fill="white"/>
<path d="M-15.934 605.056L6.30897 602.924L38.0023 599.928L35.8702 577.684L35.0058 568.291L32.9314 545.989L10.6884 548.121L1.23805 548.986L-21.0049 551.118L-18.8728 573.362L-15.934 605.056ZM0.546551 550.887L1.23805 557.976C1.29567 558.494 1.69905 558.84 2.21767 558.782C2.73628 558.725 3.08201 558.321 3.02438 557.803L2.33292 550.715L9.93929 550.023L10.6308 557.111C10.6884 557.63 11.0918 557.976 11.6104 557.918C12.129 557.86 12.4748 557.457 12.4172 556.938L11.7257 549.85L31.3179 548.006L33.1619 567.599L26.0741 568.291C25.5555 568.348 25.2097 568.752 25.2673 569.27C25.325 569.789 25.7284 570.135 26.247 570.077L33.3347 569.386L34.0262 576.992L26.9384 577.684C26.4198 577.741 26.0741 578.145 26.1317 578.663C26.1893 579.182 26.5927 579.528 27.1113 579.47L34.1991 578.779L36.0431 598.372L16.4509 600.216L15.7594 593.128C15.7017 592.609 15.2984 592.263 14.7797 592.321C14.2611 592.378 13.9154 592.782 13.973 593.3L14.6645 600.389L7.05808 601.08L6.36662 593.992C6.30899 593.473 5.90561 593.128 5.387 593.185C4.86838 593.243 4.52262 593.646 4.58024 594.165L5.27174 601.253L-14.3205 603.097L-16.1645 583.504L-9.0767 582.812C-8.55808 582.755 -8.21232 582.351 -8.26995 581.833C-8.32757 581.314 -8.73095 580.968 -9.24957 581.026L-16.3373 581.718L-17.0288 574.111L-9.94106 573.419C-9.42245 573.362 -9.07669 572.958 -9.13431 572.44C-9.19193 571.921 -9.59531 571.575 -10.1139 571.633L-17.2017 572.324L-19.0457 552.732L0.546551 550.887Z" fill="white"/>
</g>
<defs>
<clipPath id="clip0">
<rect width="537" height="504" fill="white" transform="translate(-318 503)"/>
</clipPath>
</defs>
</svg>
