<svg width="219" height="1006" viewBox="0 0 219 1006" fill="none" xmlns="http://www.w3.org/2000/svg">
<g clip-path="url(#clip0)">
<path d="M91.1613 487.058L76.4672 501.753L51.6887 477.031L55.2038 473.516C55.4919 473.227 55.4919 472.709 55.2038 472.421C54.9157 472.133 54.3971 472.133 54.109 472.421L49.499 477.031L76.5248 504L92.3138 488.153C92.6019 487.865 92.6019 487.346 92.3138 487.058C92.0257 486.712 91.5071 486.712 91.1613 487.058Z" fill="white"/>
<path d="M87.4734 462.394C87.1853 462.682 87.1853 463.2 87.4734 463.489L102.629 478.587L96.1746 485.041L87.07 475.936L86.5514 475.475L84.8803 473.804C84.5922 473.516 84.0735 473.516 83.7854 473.804C83.4973 474.092 83.4973 474.61 83.7854 474.899L85.4565 476.57L85.9751 477.031L96.2323 487.231L104.876 478.529L88.6259 462.336C88.2801 462.048 87.7615 462.048 87.4734 462.394Z" fill="white"/>
<path d="M83.3246 461.99C87.0126 460.031 87.8769 457.15 85.9177 453.346C85.4567 452.424 84.9381 451.733 84.3619 451.157C82.5179 449.313 80.1553 449.14 77.3317 450.638C75.5454 451.56 74.0471 453.519 72.8946 455.536C73.0675 453.289 72.8946 450.811 71.9727 449.024C70.0134 445.336 67.0746 444.472 63.329 446.431C59.5835 448.448 58.6615 451.329 60.6207 455.018C60.9664 455.651 61.4274 456.285 62.0613 456.862C63.0409 457.841 64.251 458.706 65.5187 459.397C63.2714 459.224 60.7936 459.397 59.0072 460.319C55.3193 462.278 54.4549 465.217 56.4141 468.963C56.8751 469.885 57.3937 470.577 57.97 471.153C59.814 472.997 62.1765 473.17 65.0001 471.672C66.7865 470.75 68.2847 468.79 69.4372 466.773C69.2643 469.021 69.4372 471.499 70.3592 473.285C70.8202 474.149 71.3388 474.841 71.8574 475.417C73.7014 477.261 76.1216 477.434 79.0028 475.878C82.7484 473.861 83.6704 470.98 81.7111 467.292C81.3654 466.658 80.9044 466.024 80.2705 465.448C79.2909 464.468 78.0808 463.604 76.8131 462.912C79.0604 463.085 81.5383 462.912 83.3246 461.99ZM64.251 470.288C61.3698 471.844 59.9292 470.865 59.0648 470.058C58.6038 469.597 58.2005 469.021 57.7971 468.214C56.1836 465.217 56.7599 463.258 59.6987 461.702C62.5223 460.204 67.9966 461.184 70.0711 461.702C69.3219 463.719 67.1322 468.79 64.251 470.288ZM63.1562 455.767C62.6375 455.248 62.2918 454.787 62.0037 454.268C60.4478 451.329 61.0817 449.428 64.0781 447.814C66.3831 446.604 67.9966 446.662 69.3219 447.987C69.7829 448.448 70.1863 449.024 70.5321 449.716C72.0303 452.54 71.0507 458.014 70.5321 460.089C68.9762 459.512 65.2883 457.899 63.1562 455.767ZM79.1181 466.6C79.6367 467.119 79.9824 467.58 80.2705 468.099C81.8264 471.038 81.1925 472.939 78.1961 474.553C75.142 476.166 73.2404 475.533 71.6845 472.651C70.1863 469.828 71.1659 464.353 71.6845 462.278C73.3556 462.855 76.986 464.468 79.1181 466.6ZM72.2032 460.607C73.0099 458.59 75.1996 453.577 78.0232 452.021C80.9044 450.465 82.345 451.445 83.2094 452.251C83.6704 452.713 84.0737 453.289 84.4771 454.096C86.0906 457.092 85.5143 459.051 82.5755 460.607C79.6943 462.106 74.2776 461.068 72.2032 460.607Z" fill="white"/>
<path d="M179.5 445.279C179.154 445.567 179.096 446.028 179.384 446.374L196.326 468.329L176.618 483.543L159.619 461.587C159.331 461.241 158.87 461.184 158.524 461.472C158.179 461.76 158.121 462.221 158.409 462.567L176.273 485.79L198.516 468.675L180.652 445.452C180.306 445.048 179.845 444.991 179.5 445.279Z" fill="white"/>
<path d="M160.368 454.096C160.08 453.75 159.619 453.692 159.273 453.98L153.338 458.533L148.209 451.906L159.388 443.262L159.503 443.204C160.195 445.682 161.981 447.987 163.825 450.35C166.937 454.384 170.221 458.533 168.147 464.007C167.974 464.411 168.205 464.872 168.608 465.045C168.896 465.16 169.184 465.102 169.357 464.929C169.472 464.814 169.588 464.699 169.588 464.584C171.893 458.245 168.262 453.519 164.978 449.37C163.537 447.584 162.212 445.797 161.405 444.069C165.208 447.18 172.469 452.77 175.408 452.194C175.523 452.194 175.638 452.136 175.753 452.021C175.984 451.848 176.099 451.56 176.042 451.272C175.984 450.868 175.523 450.58 175.12 450.638C172.987 451.041 165.784 445.682 161.174 441.764L161.52 441.475L172.699 432.831L177.828 439.458L171.835 444.069C171.489 444.357 171.432 444.818 171.72 445.163C172.008 445.509 172.469 445.567 172.815 445.279L180.075 439.689L173.045 430.526L167.052 435.136C167.283 434.618 167.513 434.042 167.628 433.465C168.55 428.682 165.957 426.435 163.307 425.916C161.635 425.628 160.137 425.916 158.985 426.838C157.775 427.76 156.91 429.316 156.565 431.333C156.046 434.214 157.602 437.787 158.754 439.919C157.026 438.306 153.971 435.828 151.033 435.598C148.958 435.425 147.287 435.828 146.077 436.808C144.867 437.73 144.175 439.113 144.06 440.784C143.887 443.492 145.385 446.547 150.226 446.892C150.802 446.95 151.378 446.892 151.955 446.777L145.962 451.387L152.992 460.55L160.195 455.018C160.598 454.902 160.656 454.441 160.368 454.096ZM158.12 431.852C158.408 430.181 159.042 429.028 159.964 428.279C161.002 427.472 162.212 427.472 163.018 427.645C165.612 428.106 166.706 430.123 166.073 433.35C165.496 436.289 161.808 439.401 160.656 440.265C159.734 438.652 157.602 434.675 158.12 431.852ZM150.341 445.509C147.114 445.279 145.443 443.723 145.616 441.072C145.674 440.208 145.962 439.055 146.999 438.248C147.921 437.557 149.246 437.269 150.917 437.384C153.799 437.614 157.141 440.669 158.408 441.994C157.314 442.858 153.338 445.682 150.341 445.509Z" fill="white"/>
<path d="M54.455 180.486L36.5915 157.262C36.3034 156.916 35.8424 156.859 35.4966 157.147C35.1509 157.435 35.0933 157.896 35.3814 158.242L52.3229 180.197L32.6154 195.411L15.5586 173.455C15.2705 173.109 14.8095 173.052 14.4638 173.34C14.118 173.628 14.0604 174.089 14.3485 174.435L32.212 197.658L54.455 180.486Z" fill="white"/>
<path d="M16.3072 165.964C16.0191 165.618 15.5581 165.56 15.2123 165.849L9.27702 170.401L4.14846 163.774L15.3276 155.13L15.4428 155.072C16.1343 157.55 17.9206 159.855 19.7646 162.218C22.8763 166.252 26.1609 170.401 24.0864 175.876C23.9136 176.279 24.1441 176.74 24.5474 176.913C24.8356 177.028 25.1237 176.97 25.2965 176.798C25.4118 176.682 25.527 176.567 25.527 176.452C27.832 170.113 24.2017 165.388 20.9171 161.238C19.4765 159.452 18.1511 157.666 17.3444 155.937C21.1476 159.049 28.4083 164.638 31.3471 164.062C31.4623 164.062 31.5776 164.005 31.6928 163.889C31.9233 163.716 32.0386 163.428 31.981 163.083C31.9233 162.679 31.4623 162.391 31.059 162.449C28.9269 162.852 21.7238 157.493 17.1139 153.574L17.4597 153.286L28.6388 144.642L33.7673 151.269L27.7744 155.879C27.4286 156.167 27.371 156.628 27.6591 156.974C27.9473 157.32 28.4083 157.378 28.754 157.089L36.0147 151.5L28.9845 142.337L22.9916 146.947C23.2221 146.428 23.4526 145.852 23.5678 145.276C24.4898 140.493 21.8967 138.246 19.246 137.727C17.5749 137.439 16.0767 137.727 14.9242 138.649C13.7141 139.571 12.8497 141.127 12.504 143.144C11.9854 146.025 13.5412 149.598 14.6937 151.73C12.965 150.117 9.91088 147.639 6.97205 147.408C4.89758 147.235 3.22647 147.639 2.01637 148.618C0.806257 149.54 0.114766 150.923 -0.000482059 152.595C-0.173355 155.303 1.32487 158.357 6.16531 158.703C6.74155 158.761 7.31779 158.703 7.89404 158.588L1.90112 163.198L8.93127 172.36L16.1343 166.828C16.5377 166.771 16.5953 166.31 16.3072 165.964ZM14.0598 143.662C14.3479 141.991 14.9818 140.839 15.9038 140.09C16.941 139.283 18.1511 139.283 18.9579 139.456C21.551 139.917 22.6458 141.934 22.012 145.161C21.4357 148.1 17.7478 151.211 16.5953 152.076C15.6733 150.52 13.5412 146.544 14.0598 143.662ZM6.28056 157.378C3.0536 157.147 1.3825 155.591 1.55537 152.94C1.613 152.076 1.90112 150.923 2.93835 150.117C3.86034 149.425 5.1857 149.137 6.8568 149.252C9.73801 149.483 13.0802 152.537 14.3479 153.862C13.2531 154.727 9.27702 157.55 6.28056 157.378Z" fill="white"/>
<path d="M55.2039 271.766C54.9158 271.42 54.4548 271.362 54.109 271.593C53.7633 271.881 53.7057 272.342 53.9361 272.688L61.312 282.484L65.922 279.027L70.6472 275.454L75.3724 271.881L80.0975 268.308L84.8227 264.735L89.5479 261.163L94.2731 257.59L98.9983 254.017L103.608 250.559L96.2323 240.763C95.9442 240.417 95.4832 240.359 95.1375 240.59C94.7917 240.878 94.7341 241.339 94.9646 241.685L101.361 250.214L98.6525 252.23L92.2563 243.702C91.9681 243.356 91.5071 243.298 91.1614 243.529C90.8156 243.817 90.758 244.278 90.9885 244.624L97.3848 253.153L93.9273 255.746L87.5311 247.217C87.2429 246.871 86.7819 246.814 86.4362 247.044C86.0905 247.332 86.0328 247.793 86.2633 248.139L92.6596 256.668L89.2022 259.261L82.8059 250.732C82.5178 250.386 82.0568 250.329 81.711 250.559C81.3653 250.847 81.3076 251.308 81.5381 251.654L87.9344 260.183L84.477 262.776L78.0807 254.247C77.7926 253.902 77.3316 253.844 76.9858 254.075C76.6401 254.363 76.5825 254.824 76.813 255.169L83.2092 263.698L79.7518 266.291L73.3555 257.763C73.0674 257.417 72.6064 257.359 72.2606 257.59C71.9149 257.878 71.8573 258.339 72.0878 258.685L78.4841 267.213L75.0266 269.807L68.6303 261.278C68.3422 260.932 67.8812 260.874 67.5355 261.105C67.1897 261.393 67.1321 261.854 67.3626 262.2L73.7589 270.729L70.3014 273.322L63.9051 264.793C63.617 264.447 63.156 264.39 62.8103 264.62C62.4645 264.908 62.4069 265.369 62.6374 265.715L69.0337 274.244L65.5762 276.837L59.18 268.308C58.8918 267.962 58.4308 267.905 58.0851 268.135C57.7393 268.423 57.6817 268.885 57.9122 269.23L64.3085 277.759L61.6002 279.776L55.2039 271.766Z" fill="white"/>
<path d="M63.3287 231.312C62.9253 231.6 62.6372 232.119 62.522 232.983C62.061 235.519 64.3083 241.109 65.5184 243.932C63.1558 241.973 58.4306 238.285 55.8375 237.997C55.0308 237.882 54.4546 237.997 54.0512 238.343C53.1868 239.034 53.475 240.129 53.8207 241.339C54.1088 242.261 54.3969 243.298 54.2817 244.393C54.1664 245.431 53.6478 246.41 53.1868 247.275C52.6682 248.312 52.2072 249.176 52.6106 249.983C53.014 250.675 53.8783 250.847 54.5122 250.963C56.2409 251.136 59.295 250.041 61.8881 248.831L42.6416 263.064L48.7498 271.19L96.3474 235.519L90.2392 227.394L71.108 241.743C72.9519 239.553 74.9112 236.96 75.1993 235.231C75.3145 234.597 75.3722 233.732 74.7959 233.156C74.162 232.522 73.1824 232.695 72.0299 232.926C71.108 233.099 70.0131 233.329 68.9759 233.156C67.9386 232.983 67.0166 232.407 66.2099 231.888C65.1727 231.255 64.1931 230.621 63.3287 231.312ZM54.5698 249.234C54.2241 249.176 54.0512 249.119 53.9359 249.119C53.9936 248.888 54.2817 248.312 54.5122 247.909C55.0308 246.987 55.607 245.834 55.7799 244.451C55.9528 243.068 55.5494 241.858 55.2613 240.82C55.1461 240.359 54.9732 239.783 54.9732 239.553C55.0308 239.553 55.2613 239.495 55.607 239.553C57.6815 239.783 62.3491 243.414 64.8269 245.488C62.0033 246.929 56.6443 249.464 54.5698 249.234ZM89.9511 229.583L94.1576 235.173L49.0955 268.942L44.8889 263.352L89.9511 229.583ZM72.3757 234.539C72.8367 234.424 73.4129 234.309 73.7011 234.366C73.7011 234.482 73.7011 234.654 73.6434 235C73.2977 237.075 69.3216 241.454 67.1319 243.817C65.8642 240.878 63.6744 235.346 64.0778 233.271C64.1354 232.926 64.1931 232.753 64.2507 232.638C64.4812 232.695 64.9998 233.041 65.4032 233.271C66.2675 233.848 67.42 234.539 68.7454 234.77C70.0707 235 71.3961 234.712 72.3757 234.539Z" fill="white"/>
<path d="M136.511 160.028C138.125 160.662 139.853 161.066 141.409 160.835C143.541 160.547 145.097 159.74 146.134 158.53C147.056 157.377 147.402 155.937 147.172 154.323C146.941 152.652 146.134 151.327 144.924 150.52C143.657 149.656 141.928 149.367 139.853 149.656C136.914 150.059 134.033 152.71 132.42 154.496C133.399 152.306 134.782 148.676 134.033 145.795C133.515 143.778 132.593 142.337 131.325 141.473C130.057 140.666 128.559 140.435 126.945 140.839C124.295 141.53 121.932 143.951 123.142 148.618C123.546 150.174 124.583 151.615 125.793 152.825L114.499 145.276L109.601 152.594L142.965 174.838L147.863 167.52L136.511 160.028ZM140.084 151.211C141.755 150.981 143.08 151.211 144.06 151.845C145.155 152.594 145.5 153.747 145.616 154.554C145.731 155.361 145.673 156.571 144.924 157.55C144.175 158.472 142.965 159.049 141.236 159.279C138.24 159.683 134.149 157.147 132.938 156.34C134.091 154.957 137.203 151.615 140.084 151.211ZM124.641 148.215C123.834 145.103 124.756 142.971 127.349 142.337C128.156 142.106 129.366 142.049 130.461 142.74C131.44 143.374 132.132 144.527 132.535 146.14C133.284 148.964 131.383 153.056 130.576 154.727C129.366 153.978 125.39 151.154 124.641 148.215ZM142.504 172.706L131.152 165.099L111.79 152.191L114.902 147.523L145.616 168.038L142.504 172.706Z" fill="white"/>
<path d="M138.528 174.435L135.935 177.143L106.086 178.354L103.089 176.337L104.011 174.204L134.898 172.937C135.359 172.937 135.647 172.533 135.647 172.13C135.647 171.669 135.243 171.381 134.84 171.381L104.703 172.649L106.604 168.327L126.657 167.52C127.118 167.52 127.407 167.116 127.407 166.713C127.407 166.252 127.003 165.964 126.6 165.964L107.296 166.771L109.197 162.449L118.475 162.045C118.936 162.045 119.224 161.642 119.224 161.239C119.224 160.778 118.821 160.489 118.417 160.489L109.946 160.835L111.79 156.628C111.963 156.225 111.79 155.764 111.387 155.591C110.984 155.418 110.523 155.591 110.35 155.995L101.072 176.913L123.719 192.069L139.68 175.53C139.969 175.242 139.969 174.723 139.68 174.435C139.335 174.089 138.874 174.089 138.528 174.435ZM123.488 189.994L116.573 185.384L128.386 184.923L123.488 189.994ZM130 183.309L114.326 183.886L108.275 179.852L134.321 178.757L130 183.309Z" fill="white"/>
<path d="M106.028 317.752L113.404 320.633C113.519 320.691 113.692 320.691 113.865 320.691C114.211 320.691 114.499 320.518 114.672 320.23C114.96 319.826 114.96 319.308 114.672 318.904C113.289 317.176 110.292 312.508 112.77 306.86C112.943 306.399 112.828 305.881 112.424 305.535C112.021 305.247 111.445 305.247 111.099 305.535L102.571 312.335L110.926 300.464L108.391 301.501C105.394 302.769 101.994 303.46 98.4217 303.576C92.3135 303.806 87.5883 302.25 87.5307 302.25L84.9376 301.386L94.0999 312.623L85.0529 306.572C84.6495 306.284 84.0733 306.342 83.7275 306.688C83.3818 307.033 83.2665 307.552 83.497 308.013C86.3782 313.43 83.7275 318.328 82.4598 320.172C82.1717 320.575 82.2293 321.094 82.5174 321.498C82.7479 321.728 83.036 321.901 83.3818 321.901C83.5546 321.901 83.6699 321.843 83.7851 321.786L90.9305 318.328C84.9376 323.572 80.3853 333.714 80.6158 340.111C80.9039 348.697 90.4695 352.846 99.6894 352.5C108.909 352.155 118.129 347.314 117.783 338.728C117.611 332.331 112.367 322.592 106.028 317.752ZM110.638 307.955C109.37 312.45 110.984 316.253 112.424 318.559L102.34 314.582L110.638 307.955ZM89.3747 304.498C91.4492 304.959 94.6185 305.42 98.4217 305.304C101.303 305.189 104.011 304.728 106.547 303.979L99.2284 314.352C98.8251 314.928 97.9031 314.928 97.4421 314.409L89.3747 304.498ZM84.6495 319.538C85.9172 317.176 87.2426 313.257 85.6291 308.877L94.388 314.87L84.6495 319.538ZM99.6894 350.887C91.2187 351.175 82.5174 347.545 82.2869 339.996C81.9988 332.331 89.5476 317.982 97.4421 316.542C96.9811 319.826 95.1947 330.314 90.8153 336.423C90.5848 336.768 90.6424 337.287 90.9882 337.518C91.161 337.633 91.3339 337.691 91.4492 337.691C91.6797 337.691 91.9102 337.575 92.083 337.345C96.0015 331.928 97.8454 323.514 98.6522 318.904C99.9775 322.42 102.283 327.779 104.587 329.392C104.76 329.508 104.933 329.565 105.048 329.565C105.279 329.565 105.509 329.45 105.682 329.219C105.913 328.874 105.855 328.355 105.509 328.125C103.32 326.569 100.669 319.942 99.4589 316.484C107.469 317.348 115.997 331.063 116.285 338.728C116.516 346.277 108.103 350.541 99.6894 350.887Z" fill="white"/>
<path d="M87.1268 406.15L72.1445 389.554C71.8563 389.208 71.3377 389.208 71.0496 389.497C70.7039 389.785 70.7039 390.303 70.992 390.591L84.937 406.035L58.9485 429.489L44.9458 414.045C44.6577 413.7 44.1391 413.7 43.851 413.988C43.5052 414.276 43.5052 414.794 43.7934 415.083L58.7757 431.679L87.1268 406.15Z" fill="white"/>
<path d="M49.6714 404.191C49.3832 403.845 48.8646 403.845 48.5765 404.134L40.1057 411.798L33.9976 405.056L45.119 395.029L62.3487 414.161L61.0233 405.805L69.206 407.994L51.9763 388.863L63.0978 378.836L69.206 385.578L60.2742 393.646C59.9285 393.934 59.9285 394.452 60.2166 394.74C60.5047 395.086 61.0233 395.086 61.3114 394.798L71.3957 385.693L63.1554 376.588L55.3185 383.676C55.8371 382.869 56.1829 382.12 56.4134 381.429C56.9896 379.354 56.7591 377.856 55.7795 376.819C54.8575 375.897 53.4746 375.493 52.1492 375.148C50.2476 374.629 48.2884 374.053 46.7325 375.436C46.041 376.012 45.58 376.934 45.1767 378.259C45.0614 378.663 45.0038 379.124 44.9462 379.642C44.658 379.181 44.3699 378.72 44.0818 378.375C40.7972 374.744 38.4346 376.934 36.4754 378.663C34.5162 380.391 32.1536 382.581 35.3805 386.212C35.7263 386.558 36.1297 386.903 36.533 387.249C36.072 387.249 35.611 387.249 35.1501 387.307C33.8247 387.537 32.8451 387.941 32.2112 388.517C30.6554 389.9 31.0587 391.917 31.3469 393.876C31.5774 395.259 31.8078 396.7 32.6722 397.679C33.5942 398.774 35.0924 399.178 37.1669 398.832C37.8584 398.717 38.6651 398.429 39.5295 397.968L31.6926 405.056L39.9329 414.161L49.6137 405.459C49.9595 404.998 50.0171 404.537 49.6714 404.191ZM46.7325 378.605C47.0206 377.625 47.3664 376.934 47.8274 376.531C48.6341 375.781 49.8442 376.07 51.7458 376.588C52.8983 376.934 54.0508 377.222 54.6847 377.856C55.0304 378.259 55.4914 378.951 54.9152 380.91C54.4542 382.524 52.8407 384.598 50.19 386.961C49.4985 387.595 48.807 388.171 48.346 388.574C47.5969 386.442 45.9834 381.371 46.7325 378.605ZM50.8238 389.842L64.4808 404.998L59.0641 403.557L59.9285 409.089L46.2715 393.934L50.8238 389.842ZM37.5703 379.7C39.76 377.741 40.7972 376.934 42.9293 379.297C44.8885 381.429 45.6377 386.673 45.9258 388.978C43.7361 388.517 38.5499 387.191 36.6483 385.002C34.5162 382.697 35.3805 381.717 37.5703 379.7ZM36.994 397.103C35.0348 397.449 34.3433 396.93 33.9976 396.527C33.4213 395.835 33.2485 394.625 33.018 393.473C32.6722 391.513 32.557 390.303 33.3637 389.554C33.8247 389.151 34.5162 388.863 35.5534 388.69C38.377 388.171 43.2751 390.303 45.2919 391.283C44.8309 391.744 44.2547 392.32 43.5056 393.012C40.8548 395.432 38.6075 396.815 36.994 397.103Z" fill="white"/>
<path d="M162.5 274.129C162.442 274.129 162.385 274.186 162.327 274.186C162.27 274.186 162.212 274.244 162.212 274.244H162.154L162.097 274.301C162.039 274.359 162.039 274.359 161.981 274.417C161.981 274.474 161.924 274.532 161.924 274.532C161.924 274.59 161.866 274.647 161.866 274.647C161.866 274.705 161.866 274.762 161.866 274.82C161.866 274.878 161.866 274.878 161.866 274.935V274.993C161.866 275.051 161.924 275.108 161.924 275.166C161.924 275.223 161.981 275.281 161.981 275.281V275.339L176.157 292.627L185.492 285.02L195.404 276.895L205.084 268.942L205.718 268.424L191.543 251.136C191.255 250.79 190.794 250.732 190.448 251.02C190.102 251.309 190.044 251.77 190.333 252.115L203.125 267.732L162.5 274.129C162.558 274.129 162.5 274.129 162.5 274.129ZM176.445 290.494L173.622 286.979L182.38 285.654L176.445 290.494ZM184.743 283.695L172.469 285.539L168.896 281.217L192.234 277.586L184.743 283.695ZM201.915 269.634L194.654 275.569L167.744 279.776L164.171 275.454L201.915 269.634Z" fill="white"/>
<path d="M151.205 251.193C151.09 253.902 152.703 256.898 157.544 257.129C158.408 257.186 159.33 257.014 160.195 256.725L150.514 264.62L158.293 274.129L191.139 247.275L183.359 237.766L173.679 245.661C174.14 244.854 174.485 243.99 174.601 243.126C175.35 238.343 172.757 236.153 170.048 235.749C168.377 235.461 166.879 235.865 165.726 236.787C164.516 237.766 163.767 239.322 163.421 241.339C162.96 244.278 164.689 247.793 165.842 249.868C164.055 248.254 160.944 245.892 158.005 245.776C155.93 245.661 154.259 246.122 153.049 247.102C151.954 248.081 151.263 249.522 151.205 251.193ZM165.035 241.627C165.323 239.956 165.899 238.746 166.764 237.997C167.801 237.19 169.011 237.132 169.818 237.305C172.411 237.709 173.563 239.726 173.045 242.895C172.584 245.834 168.953 249.061 167.801 249.983C166.821 248.427 164.574 244.509 165.035 241.627ZM183.129 240.014L188.891 247.044L178.346 255.63L158.466 271.881L152.703 264.851L183.129 240.014ZM154.086 248.37C154.951 247.62 156.276 247.332 157.947 247.39C160.886 247.505 164.228 250.502 165.554 251.77C164.401 252.692 160.598 255.63 157.601 255.515C154.374 255.4 152.646 253.844 152.761 251.251C152.819 250.386 153.107 249.234 154.086 248.37Z" fill="white"/>
<path d="M235.222 198.926L220.528 213.621L195.749 188.899L199.264 185.384C199.552 185.096 199.552 184.577 199.264 184.289C198.976 184.001 198.458 184.001 198.17 184.289L193.56 188.899L220.585 215.868L236.374 200.021C236.662 199.733 236.662 199.214 236.374 198.926C236.086 198.58 235.568 198.58 235.222 198.926Z" fill="white"/>
<path d="M227.385 173.859C231.073 171.899 231.937 169.018 229.978 165.215C229.517 164.293 228.999 163.601 228.422 163.025C226.578 161.181 224.216 161.008 221.392 162.506C219.606 163.428 218.108 165.387 216.955 167.404C217.128 165.157 216.955 162.679 216.033 160.893C214.074 157.205 211.135 156.34 207.39 158.299C203.644 160.316 202.722 163.198 204.681 166.886C205.027 167.52 205.488 168.154 206.122 168.73C207.101 169.709 208.312 170.574 209.579 171.265C207.332 171.092 204.854 171.265 203.068 172.187C199.38 174.147 198.515 177.086 200.475 180.831C200.936 181.753 201.454 182.445 202.031 183.021C203.875 184.865 206.237 185.038 209.061 183.54C210.847 182.618 212.345 180.658 213.498 178.642C213.325 180.889 213.498 183.367 214.42 185.153C214.881 186.018 215.399 186.709 215.918 187.285C217.762 189.13 220.182 189.302 223.063 187.746C226.809 185.73 227.731 182.848 225.772 179.16C225.426 178.526 224.965 177.892 224.331 177.316C223.351 176.336 222.141 175.472 220.874 174.781C223.121 174.953 225.599 174.781 227.385 173.859ZM208.312 182.157C205.43 183.713 203.99 182.733 203.125 181.926C202.664 181.465 202.261 180.889 201.858 180.082C200.244 177.086 200.82 175.126 203.759 173.57C206.583 172.072 212.057 173.052 214.132 173.57C213.382 175.587 211.193 180.658 208.312 182.157ZM207.217 167.635C206.698 167.116 206.352 166.655 206.064 166.137C204.508 163.198 205.142 161.296 208.139 159.682C210.444 158.472 212.057 158.53 213.382 159.855C213.843 160.316 214.247 160.893 214.593 161.584C216.091 164.408 215.111 169.882 214.593 171.957C213.037 171.381 209.349 169.767 207.217 167.635ZM223.179 178.469C223.697 178.987 224.043 179.448 224.331 179.967C225.887 182.906 225.253 184.808 222.257 186.421C219.203 188.035 217.301 187.401 215.745 184.519C214.247 181.696 215.226 176.221 215.745 174.147C217.416 174.723 221.046 176.336 223.179 178.469ZM216.264 172.475C217.07 170.459 219.26 165.445 222.084 163.889C224.965 162.333 226.406 163.313 227.27 164.12C227.731 164.581 228.134 165.157 228.538 165.964C230.151 168.96 229.575 170.92 226.636 172.475C223.755 173.974 218.338 172.937 216.264 172.475Z" fill="white"/>
<path d="M196.901 364.083C194.712 362.181 187.97 360.971 184.57 360.51C187.854 359.358 194.251 356.938 196.037 354.632C196.613 353.883 196.844 353.249 196.786 352.673C196.671 351.405 195.403 351.06 194.02 350.656C192.983 350.368 191.773 350.022 190.793 349.273C189.813 348.524 189.237 347.487 188.661 346.507C188.027 345.412 187.451 344.433 186.414 344.375C185.492 344.317 184.8 345.066 184.397 345.643C183.071 347.372 182.322 351.636 181.919 355.151C180.882 351.809 179.384 347.717 177.712 346.277C177.194 345.816 176.387 345.182 175.465 345.412C174.428 345.643 174.082 346.738 173.621 347.948C173.275 348.985 172.814 350.138 172.008 351.06C171.201 351.982 170.106 352.5 169.126 353.019C167.859 353.653 166.706 354.229 166.821 355.497C166.879 356.073 167.225 356.649 167.916 357.283C170.106 359.185 176.848 360.395 180.248 360.856C176.963 362.009 170.567 364.429 168.781 366.734C168.204 367.483 167.974 368.117 168.032 368.693C168.147 369.961 169.415 370.307 170.798 370.71C171.835 370.998 173.045 371.344 174.024 372.093C175.004 372.842 175.58 373.88 176.157 374.859C176.848 376.012 177.367 376.934 178.404 376.991C179.326 377.049 180.017 376.3 180.421 375.724C181.746 373.995 182.495 369.731 182.899 366.215C183.936 369.558 185.434 373.649 187.105 375.09C187.624 375.551 188.431 376.185 189.352 375.954C190.39 375.724 190.735 374.629 191.196 373.419C191.542 372.381 192.003 371.229 192.81 370.307C193.617 369.385 194.712 368.866 195.691 368.348C196.959 367.714 198.111 367.137 197.996 365.87C197.938 365.236 197.593 364.659 196.901 364.083ZM169.184 355.9C168.896 355.612 168.723 355.439 168.723 355.382C168.954 355.209 169.53 354.863 170.048 354.632C171.143 354.114 172.469 353.422 173.448 352.27C174.485 351.117 175.004 349.734 175.407 348.582C175.58 348.063 175.811 347.429 175.984 347.199C176.099 347.256 176.272 347.372 176.56 347.602C178.346 349.158 180.306 355.612 181.227 359.127C177.597 358.666 170.97 357.514 169.184 355.9ZM179.095 374.571C178.865 374.917 178.692 375.032 178.577 375.09C178.346 374.917 178.001 374.283 177.712 373.822C177.079 372.785 176.329 371.517 175.119 370.537C173.909 369.615 172.469 369.212 171.316 368.866C170.798 368.751 170.106 368.52 169.876 368.348C169.933 368.232 169.991 368.059 170.279 367.714C171.719 365.87 178.001 363.449 181.458 362.297C181.227 366.042 180.536 372.727 179.095 374.571ZM185.78 346.738C186.01 346.392 186.183 346.277 186.298 346.219C186.529 346.392 186.875 347.026 187.163 347.487C187.797 348.524 188.546 349.792 189.756 350.714C190.966 351.636 192.407 352.039 193.559 352.385C194.078 352.5 194.769 352.731 195 352.904C194.942 353.019 194.884 353.192 194.596 353.538C193.156 355.439 186.875 357.802 183.417 358.954C183.648 355.324 184.339 348.639 185.78 346.738ZM194.884 366.676C193.79 367.195 192.464 367.887 191.427 369.039C190.39 370.192 189.871 371.575 189.468 372.727C189.295 373.246 189.064 373.88 188.891 374.11C188.776 374.053 188.603 373.937 188.315 373.707C186.529 372.151 184.57 365.697 183.648 362.181C187.278 362.7 193.905 363.853 195.691 365.409C196.037 365.697 196.152 365.87 196.21 365.927C195.979 366.158 195.345 366.446 194.884 366.676Z" fill="white"/>
<path d="M208.945 353.422L206.813 331.179L184.57 333.311L175.178 334.175L152.935 336.307L155.067 358.551L158.063 390.246L180.306 388.114L211.999 385.117L209.867 362.873L208.945 353.422ZM190.448 385.29L189.756 378.202C189.699 377.683 189.295 377.337 188.777 377.395C188.258 377.453 187.912 377.856 187.97 378.375L188.662 385.463L181.055 386.154L180.364 379.066C180.306 378.548 179.903 378.202 179.384 378.259C178.865 378.317 178.52 378.72 178.577 379.239L179.269 386.327L159.677 388.171L157.833 368.578L164.92 367.887C165.439 367.829 165.785 367.426 165.727 366.907C165.67 366.388 165.266 366.043 164.748 366.1L157.66 366.792L156.968 359.185L164.056 358.494C164.575 358.436 164.92 358.033 164.863 357.514C164.805 356.995 164.402 356.65 163.883 356.707L156.795 357.399L154.951 337.806L174.544 335.962L175.235 343.05C175.293 343.568 175.696 343.914 176.215 343.857C176.733 343.799 177.079 343.395 177.022 342.877L176.33 335.789L183.936 335.097L184.628 342.185C184.686 342.704 185.089 343.05 185.608 342.992C186.126 342.934 186.472 342.531 186.414 342.012L185.723 334.924L205.315 333.08L207.159 352.673L200.071 353.365C199.553 353.422 199.207 353.826 199.264 354.345C199.322 354.863 199.725 355.209 200.244 355.151L207.332 354.46L208.023 362.066L200.936 362.758C200.417 362.816 200.071 363.219 200.129 363.738C200.186 364.256 200.59 364.602 201.108 364.544L208.196 363.853L210.04 383.446L190.448 385.29Z" fill="white"/>
<path d="M130.633 46.0435C131.152 46.2163 131.497 46.274 131.497 46.274L132.016 46.3892L132.477 46.5621C132.477 46.5621 132.823 46.6773 133.341 46.8502C135.301 47.4265 140.141 48.5214 143.253 47.0231C147.632 44.8909 147.92 41.491 146.71 39.0707C145.961 37.5724 144.809 36.5351 143.368 36.1317C141.87 35.7283 140.141 35.9588 138.297 36.8809C135.646 38.1486 133.745 41.6062 132.708 43.7384C132.996 41.3757 133.169 37.4571 131.555 34.9792C130.46 33.2504 129.135 32.0979 127.637 31.6945C126.196 31.2911 124.698 31.5216 123.257 32.4436C120.952 33.8843 119.396 36.9385 122.047 41.03C123.949 43.8537 128.674 45.4672 130.633 46.0435ZM139.046 38.2063C140.544 37.4571 141.87 37.2842 143.022 37.5724C144.29 37.9181 144.981 38.8978 145.385 39.7046C146.537 42.0672 145.558 44.1418 142.677 45.5824C139.968 46.9078 135.301 45.7553 133.86 45.3519C134.494 43.5655 136.395 39.4741 139.046 38.2063ZM124.179 33.6538C124.871 33.1928 126.023 32.7318 127.291 33.0775C128.386 33.3657 129.423 34.2877 130.345 35.6707C131.901 38.1486 131.382 42.5859 131.094 44.4299C129.711 44.0265 125.101 42.5859 123.488 40.0503C121.701 37.3419 121.932 35.0944 124.179 33.6538Z" fill="white"/>
<path d="M129.078 56.6467C129.942 56.8772 150.11 62.5246 151.321 58.2026L152.992 52.3248C153.337 50.9993 151.954 49.5587 148.612 47.8299C148.209 47.5994 147.748 47.7723 147.517 48.1757C147.287 48.579 147.46 49.04 147.863 49.2706C151.205 51.057 151.436 51.9214 151.493 51.9214C150.86 52.8434 143.484 52.7281 131.152 49.2706C118.821 45.813 112.539 42.0096 112.424 40.9724C112.482 40.9147 113.231 40.2232 117.726 40.6266C118.187 40.6842 118.532 40.3385 118.59 39.8775C118.648 39.4164 118.302 39.0707 117.841 39.0131C112.136 38.4944 111.156 39.647 110.926 40.5113L109.197 46.6197H109.255C108.736 50.8841 128.271 56.4162 129.078 56.6467ZM111.963 42.7011C115.939 46.5045 130.057 50.5383 130.749 50.7688C131.44 50.9993 145.558 54.9179 150.975 53.7654L149.822 57.7993C149.131 58.7213 141.813 58.606 129.539 55.1484C117.207 51.6909 110.926 47.8875 110.811 46.7926L111.963 42.7011Z" fill="white"/>
<path d="M122.912 78.4871C124.698 79.0057 140.314 83.2701 141.351 79.6972L146.134 62.7551C146.249 62.3517 146.019 61.8907 145.616 61.7754C145.212 61.6602 144.751 61.8907 144.636 62.2941L139.853 79.1786C139.104 79.8701 132.996 79.6972 123.373 76.9312C113.692 74.2227 108.448 71.1685 108.16 70.1889L112.943 53.3044C113.058 52.901 112.827 52.44 112.424 52.3247C112.021 52.2095 111.56 52.44 111.444 52.8433L106.662 69.7855C105.567 73.4736 121.125 77.9684 122.912 78.4871Z" fill="white"/>
<path d="M215.053 102.46L228.998 117.903L203.009 141.357L189.006 125.913C188.718 125.568 188.2 125.568 187.912 125.856C187.566 126.144 187.566 126.663 187.854 126.951L202.836 143.547L231.187 117.961L216.205 101.365C215.917 101.019 215.398 101.019 215.11 101.307C214.764 101.653 214.764 102.114 215.053 102.46Z" fill="white"/>
<path d="M176.848 109.432C177.77 110.585 179.268 110.931 181.343 110.585C182.034 110.47 182.841 110.182 183.705 109.721L175.868 116.809L184.109 125.914L193.79 117.212C194.135 116.924 194.135 116.405 193.847 116.117C193.559 115.771 193.04 115.771 192.752 116.059L184.282 123.724L178.058 116.924L189.18 106.897L206.409 126.029L205.084 117.673L213.266 119.863L196.037 100.731L207.158 90.7039L213.266 97.4462L204.335 105.514C203.989 105.802 203.989 106.321 204.277 106.609C204.565 106.955 205.084 106.955 205.372 106.666L215.456 97.5614L207.216 88.4565L199.379 95.5445C199.898 94.7377 200.243 93.9886 200.474 93.2971C201.05 91.2225 200.82 89.7242 199.84 88.687C198.918 87.7649 197.535 87.3616 196.21 87.0158C194.308 86.4972 192.349 85.9209 190.793 87.3039C190.102 87.8802 189.641 88.8022 189.237 90.1276C189.122 90.531 189.064 90.992 189.007 91.5107C188.719 91.0496 188.43 90.5886 188.142 90.2429C184.858 86.6124 182.495 88.8022 180.536 90.531C178.577 92.2598 176.214 94.4496 179.441 98.0801C179.787 98.4258 180.19 98.7716 180.594 99.1173C180.133 99.1173 179.672 99.1173 179.211 99.175C177.885 99.4055 176.906 99.8088 176.272 100.385C174.716 101.768 175.119 103.785 175.407 105.744C175.753 107.012 175.984 108.395 176.848 109.432ZM190.793 90.4734C191.081 89.4937 191.427 88.8022 191.888 88.3988C192.695 87.6497 193.905 87.9378 195.806 88.4565C196.959 88.8022 198.111 89.0903 198.745 89.7242C199.091 90.1276 199.552 90.8191 198.976 92.7784C198.515 94.392 196.901 96.4665 194.251 98.8292C193.559 99.4631 192.868 100.039 192.407 100.443C191.657 98.3106 190.044 93.2394 190.793 90.4734ZM194.884 101.711L208.541 116.866L203.125 115.426L203.989 120.958L190.332 105.802L194.884 101.711ZM181.631 91.5683C183.821 89.609 184.858 88.8022 186.99 91.1649C188.949 93.2971 189.698 98.5987 189.986 100.846C187.797 100.385 182.61 99.0597 180.709 96.8699C178.577 94.5649 179.441 93.5852 181.631 91.5683ZM177.424 101.422C177.885 101.019 178.577 100.731 179.614 100.558C182.438 100.039 187.336 102.172 189.352 103.151C188.891 103.612 188.315 104.188 187.566 104.88C184.915 107.243 182.668 108.683 181.055 108.971C179.095 109.317 178.404 108.799 178.058 108.395C177.482 107.704 177.309 106.494 177.078 105.341C176.733 103.439 176.618 102.172 177.424 101.422Z" fill="white"/>
<path d="M22.8185 67.3651C22.8761 67.9414 23.2219 68.5177 23.9134 69.1515C26.1031 71.0532 32.8451 72.2634 36.245 72.7244C32.9604 73.8769 26.5641 76.2972 24.7777 78.6023C24.2015 79.3514 23.971 79.9853 24.0286 80.5616C24.1439 81.8293 25.4116 82.1751 26.7946 82.5785C27.8318 82.8666 29.0419 83.2124 30.0215 83.9615C31.0012 84.7107 31.5774 85.7479 32.1536 86.7276C32.8451 87.8225 33.3637 88.8021 34.401 88.8598C35.323 88.9174 36.0145 88.1682 36.4178 87.592C37.7432 85.8632 38.4923 81.5988 38.8957 78.0836C39.9329 81.426 41.4311 85.5174 43.1022 86.9581C43.6209 87.4191 44.4276 88.053 45.3496 87.8225C46.3868 87.592 46.7326 86.4971 47.1936 85.2869C47.5393 84.2497 48.0003 83.0971 48.807 82.1751C49.6138 81.2531 50.7086 80.7344 51.6882 80.2158C52.956 79.5819 54.1085 79.0056 53.9932 77.7379C53.9356 77.1616 53.5898 76.5853 52.8984 75.9515C50.7086 74.0498 43.9666 72.8396 40.5668 72.3786C43.8514 71.2261 50.2476 68.8058 52.034 66.5007C52.6102 65.7516 52.8407 65.1177 52.7831 64.5414C52.6679 63.2737 51.4001 62.9279 50.0171 62.5245C48.9799 62.2364 47.7698 61.8906 46.7902 61.1415C45.8106 60.3923 45.2343 59.3551 44.6581 58.3754C44.0242 57.2229 43.448 56.3009 42.4107 56.2432C41.4888 56.1856 40.7973 56.9348 40.3939 57.511C39.0685 59.2398 38.3194 63.5042 37.9161 67.0194C36.8788 63.677 35.3806 59.5856 33.7095 58.1449C33.1909 57.6839 32.3841 57.05 31.4621 57.2805C30.4249 57.511 30.0792 58.6059 29.6182 59.8161C29.2724 60.8534 28.8114 62.0059 28.0047 62.9279C27.198 63.8499 26.1031 64.3686 25.1235 64.8872C23.8558 65.5211 22.7033 66.0974 22.8185 67.3651ZM51.6306 77.2769C51.9764 77.565 52.0916 77.7379 52.1492 77.7955C51.9187 78.026 51.3425 78.3141 50.8239 78.5446C49.729 79.0633 48.4037 79.7548 47.3664 80.9073C46.3292 82.0598 45.8106 83.4429 45.4072 84.5954C45.2343 85.114 45.0038 85.7479 44.831 85.9784C44.7157 85.9208 44.5428 85.8056 44.2547 85.5751C42.4684 84.0191 40.5091 77.565 39.5872 74.0498C43.2751 74.5108 49.9019 75.721 51.6306 77.2769ZM41.7193 58.6059C41.9498 58.2602 42.1226 58.1449 42.2379 58.0873C42.4684 58.2602 42.8141 58.8941 43.1022 59.3551C43.7361 60.3923 44.4852 61.6601 45.6953 62.5821C46.9054 63.5042 48.346 63.9076 49.4985 64.2533C50.0171 64.3686 50.7086 64.5991 50.9391 64.7719C50.8815 64.8872 50.8239 65.0601 50.5358 65.4058C49.0951 67.2499 42.8141 69.6702 39.3567 70.8227C39.5872 67.1923 40.2787 60.5076 41.7193 58.6059ZM35.0348 86.4395C34.8043 86.7852 34.6315 86.9005 34.5162 86.9581C34.2857 86.7852 33.94 86.1513 33.6519 85.6903C33.018 84.653 32.2689 83.3853 31.0588 82.4056C29.8487 81.4836 28.4081 81.0802 27.2556 80.7344C26.737 80.6192 26.0455 80.3887 25.815 80.2158C25.8726 80.1006 25.9302 79.9277 26.2183 79.5819C27.6589 77.7955 33.9976 75.3752 37.4551 74.2227C37.1669 77.9108 36.4755 84.5954 35.0348 86.4395ZM25.9302 66.5007C27.0251 65.9821 28.3504 65.2906 29.3301 64.1381C30.3673 62.9855 30.8859 61.6025 31.2893 60.45C31.4621 59.9313 31.6926 59.2974 31.8655 59.0669C31.9808 59.1246 32.1536 59.2398 32.4418 59.4703C34.2281 61.0262 36.1873 67.4804 37.1093 70.9956C33.479 70.477 26.8522 69.3244 25.0659 67.7685C24.7777 67.4804 24.6049 67.3075 24.6049 67.2499C24.8354 67.0194 25.4692 66.7312 25.9302 66.5007Z" fill="white"/>
<path d="M13.945 102.056L36.1879 99.9241L67.8812 96.9275L65.7491 74.6837L64.8848 65.2907L62.8103 42.9893L40.5673 45.1214L31.117 45.9858L8.87402 48.118L11.0061 70.3618L13.945 102.056ZM30.4255 47.8875L31.117 54.9755C31.1746 55.4942 31.578 55.8399 32.0966 55.7823C32.6152 55.7247 32.9609 55.3213 32.9033 54.8027L32.2118 47.7146L39.8182 47.0231L40.5097 54.1111C40.5673 54.6298 40.9707 54.9755 41.4893 54.9179C42.0079 54.8603 42.3537 54.4569 42.2961 53.9383L41.6046 46.8502L61.1968 45.0062L63.0408 64.5991L55.953 65.2907C55.4344 65.3483 55.0886 65.7517 55.1463 66.2703C55.2039 66.7889 55.6073 67.1347 56.1259 67.0771L63.2136 66.3855L63.9051 73.9922L56.8174 74.6837C56.2987 74.7414 55.953 75.1448 56.0106 75.6634C56.0682 76.182 56.4716 76.5278 56.9902 76.4702L64.078 75.7786L65.922 95.3716L46.3298 97.2156L45.6383 90.1276C45.5806 89.609 45.1773 89.2632 44.6587 89.3208C44.14 89.3785 43.7943 89.7818 43.8519 90.3005L44.5434 97.3885L36.937 98.08L36.3031 90.992C36.2455 90.4734 35.8422 90.1276 35.3235 90.1852C34.8049 90.2429 34.4592 90.6462 34.5168 91.1649L35.2083 98.2529L15.6161 100.097L13.7721 80.504L20.8599 79.8125C21.3785 79.7549 21.7242 79.3515 21.6666 78.8328C21.609 78.3142 21.2056 77.9684 20.687 78.0261L13.5992 78.7176L12.9077 71.1109L19.9955 70.4194C20.5141 70.3618 20.8599 69.9584 20.8022 69.4397C20.7446 68.9211 20.3412 68.5754 19.8226 68.633L12.6772 69.3245L10.8332 49.7315L30.4255 47.8875Z" fill="white"/>
</g>
<g clip-path="url(#clip1)">
<path d="M91.1613 989.058L76.4672 1003.75L51.6887 979.031L55.2038 975.516C55.4919 975.227 55.4919 974.709 55.2038 974.421C54.9157 974.133 54.3971 974.133 54.109 974.421L49.499 979.031L76.5248 1006L92.3138 990.153C92.6019 989.865 92.6019 989.346 92.3138 989.058C92.0257 988.712 91.5071 988.712 91.1613 989.058Z" fill="white"/>
<path d="M87.4734 964.394C87.1853 964.682 87.1853 965.2 87.4734 965.489L102.629 980.587L96.1746 987.041L87.07 977.936L86.5514 977.475L84.8803 975.804C84.5922 975.516 84.0735 975.516 83.7854 975.804C83.4973 976.092 83.4973 976.61 83.7854 976.899L85.4565 978.57L85.9751 979.031L96.2323 989.231L104.876 980.529L88.6259 964.336C88.2801 964.048 87.7615 964.048 87.4734 964.394Z" fill="white"/>
<path d="M83.3246 963.99C87.0126 962.031 87.8769 959.15 85.9177 955.346C85.4567 954.424 84.9381 953.733 84.3619 953.157C82.5179 951.313 80.1553 951.14 77.3317 952.638C75.5454 953.56 74.0471 955.519 72.8946 957.536C73.0675 955.289 72.8946 952.811 71.9727 951.024C70.0134 947.336 67.0746 946.472 63.329 948.431C59.5835 950.448 58.6615 953.329 60.6207 957.018C60.9664 957.651 61.4274 958.285 62.0613 958.862C63.0409 959.841 64.251 960.706 65.5187 961.397C63.2714 961.224 60.7936 961.397 59.0072 962.319C55.3193 964.278 54.4549 967.217 56.4141 970.963C56.8751 971.885 57.3937 972.577 57.97 973.153C59.814 974.997 62.1765 975.17 65.0001 973.672C66.7865 972.75 68.2847 970.79 69.4372 968.773C69.2643 971.021 69.4372 973.499 70.3592 975.285C70.8202 976.149 71.3388 976.841 71.8574 977.417C73.7014 979.261 76.1216 979.434 79.0028 977.878C82.7484 975.861 83.6704 972.98 81.7111 969.292C81.3654 968.658 80.9044 968.024 80.2705 967.448C79.2909 966.468 78.0808 965.604 76.8131 964.912C79.0604 965.085 81.5383 964.912 83.3246 963.99ZM64.251 972.288C61.3698 973.844 59.9292 972.865 59.0648 972.058C58.6038 971.597 58.2005 971.021 57.7971 970.214C56.1836 967.217 56.7599 965.258 59.6987 963.702C62.5223 962.204 67.9966 963.184 70.0711 963.702C69.3219 965.719 67.1322 970.79 64.251 972.288ZM63.1562 957.767C62.6375 957.248 62.2918 956.787 62.0037 956.268C60.4478 953.329 61.0817 951.428 64.0781 949.814C66.3831 948.604 67.9966 948.662 69.3219 949.987C69.7829 950.448 70.1863 951.024 70.5321 951.716C72.0303 954.54 71.0507 960.014 70.5321 962.089C68.9762 961.512 65.2883 959.899 63.1562 957.767ZM79.1181 968.6C79.6367 969.119 79.9824 969.58 80.2705 970.099C81.8264 973.038 81.1925 974.939 78.1961 976.553C75.142 978.166 73.2404 977.533 71.6845 974.651C70.1863 971.828 71.1659 966.353 71.6845 964.278C73.3556 964.855 76.986 966.468 79.1181 968.6ZM72.2032 962.607C73.0099 960.59 75.1996 955.577 78.0232 954.021C80.9044 952.465 82.345 953.445 83.2094 954.251C83.6704 954.713 84.0737 955.289 84.4771 956.096C86.0906 959.092 85.5143 961.051 82.5755 962.607C79.6943 964.106 74.2776 963.068 72.2032 962.607Z" fill="white"/>
<path d="M179.5 947.279C179.154 947.567 179.096 948.028 179.384 948.374L196.326 970.329L176.618 985.543L159.619 963.587C159.331 963.241 158.87 963.184 158.524 963.472C158.179 963.76 158.121 964.221 158.409 964.567L176.273 987.79L198.516 970.675L180.652 947.452C180.306 947.048 179.845 946.991 179.5 947.279Z" fill="white"/>
<path d="M160.368 956.096C160.08 955.75 159.619 955.692 159.273 955.98L153.338 960.533L148.209 953.906L159.388 945.262L159.503 945.204C160.195 947.682 161.981 949.987 163.825 952.35C166.937 956.384 170.221 960.533 168.147 966.007C167.974 966.411 168.205 966.872 168.608 967.045C168.896 967.16 169.184 967.102 169.357 966.929C169.472 966.814 169.588 966.699 169.588 966.584C171.893 960.245 168.262 955.519 164.978 951.37C163.537 949.584 162.212 947.797 161.405 946.069C165.208 949.18 172.469 954.77 175.408 954.194C175.523 954.194 175.638 954.136 175.753 954.021C175.984 953.848 176.099 953.56 176.042 953.272C175.984 952.868 175.523 952.58 175.12 952.638C172.987 953.041 165.784 947.682 161.174 943.764L161.52 943.475L172.699 934.831L177.828 941.458L171.835 946.069C171.489 946.357 171.432 946.818 171.72 947.163C172.008 947.509 172.469 947.567 172.815 947.279L180.075 941.689L173.045 932.526L167.052 937.136C167.283 936.618 167.513 936.042 167.628 935.465C168.55 930.682 165.957 928.435 163.307 927.916C161.635 927.628 160.137 927.916 158.985 928.838C157.775 929.76 156.91 931.316 156.565 933.333C156.046 936.214 157.602 939.787 158.754 941.919C157.026 940.306 153.971 937.828 151.033 937.598C148.958 937.425 147.287 937.828 146.077 938.808C144.867 939.73 144.175 941.113 144.06 942.784C143.887 945.492 145.385 948.547 150.226 948.892C150.802 948.95 151.378 948.892 151.955 948.777L145.962 953.387L152.992 962.55L160.195 957.018C160.598 956.902 160.656 956.441 160.368 956.096ZM158.12 933.852C158.408 932.181 159.042 931.028 159.964 930.279C161.002 929.472 162.212 929.472 163.018 929.645C165.612 930.106 166.706 932.123 166.073 935.35C165.496 938.289 161.808 941.401 160.656 942.265C159.734 940.652 157.602 936.675 158.12 933.852ZM150.341 947.509C147.114 947.279 145.443 945.723 145.616 943.072C145.674 942.208 145.962 941.055 146.999 940.248C147.921 939.557 149.246 939.269 150.917 939.384C153.799 939.614 157.141 942.669 158.408 943.994C157.314 944.858 153.338 947.682 150.341 947.509Z" fill="white"/>
<path d="M54.455 682.486L36.5915 659.262C36.3034 658.916 35.8424 658.859 35.4966 659.147C35.1509 659.435 35.0933 659.896 35.3814 660.242L52.3229 682.197L32.6154 697.411L15.5586 675.455C15.2705 675.109 14.8095 675.052 14.4638 675.34C14.118 675.628 14.0604 676.089 14.3485 676.435L32.212 699.658L54.455 682.486Z" fill="white"/>
<path d="M16.3072 667.964C16.0191 667.618 15.5581 667.56 15.2123 667.848L9.27702 672.401L4.14846 665.774L15.3276 657.13L15.4428 657.072C16.1343 659.55 17.9206 661.855 19.7646 664.218C22.8763 668.252 26.1609 672.401 24.0864 677.875C23.9136 678.279 24.1441 678.74 24.5474 678.913C24.8356 679.028 25.1237 678.97 25.2965 678.797C25.4118 678.682 25.527 678.567 25.527 678.452C27.832 672.113 24.2017 667.387 20.9171 663.238C19.4765 661.452 18.1511 659.666 17.3444 657.937C21.1476 661.049 28.4083 666.638 31.3471 666.062C31.4623 666.062 31.5776 666.004 31.6928 665.889C31.9233 665.716 32.0386 665.428 31.981 665.082C31.9233 664.679 31.4623 664.391 31.059 664.448C28.9269 664.852 21.7238 659.493 17.1139 655.574L17.4597 655.286L28.6388 646.642L33.7673 653.269L27.7744 657.879C27.4286 658.167 27.371 658.628 27.6591 658.974C27.9473 659.32 28.4083 659.377 28.754 659.089L36.0147 653.499L28.9845 644.337L22.9916 648.947C23.2221 648.428 23.4526 647.852 23.5678 647.276C24.4898 642.493 21.8967 640.245 19.246 639.727C17.5749 639.439 16.0767 639.727 14.9242 640.649C13.7141 641.571 12.8497 643.127 12.504 645.144C11.9854 648.025 13.5412 651.598 14.6937 653.73C12.965 652.116 9.91088 649.639 6.97205 649.408C4.89758 649.235 3.22647 649.639 2.01637 650.618C0.806257 651.54 0.114766 652.923 -0.000482059 654.594C-0.173355 657.303 1.32487 660.357 6.16531 660.703C6.74155 660.76 7.31779 660.703 7.89404 660.588L1.90112 665.198L8.93127 674.36L16.1343 668.828C16.5377 668.77 16.5953 668.309 16.3072 667.964ZM14.0598 645.662C14.3479 643.991 14.9818 642.839 15.9038 642.089C16.941 641.283 18.1511 641.283 18.9579 641.456C21.551 641.917 22.6458 643.934 22.012 647.161C21.4357 650.1 17.7478 653.211 16.5953 654.076C15.6733 652.52 13.5412 648.544 14.0598 645.662ZM6.28056 659.377C3.0536 659.147 1.3825 657.591 1.55537 654.94C1.613 654.076 1.90112 652.923 2.93835 652.116C3.86034 651.425 5.1857 651.137 6.8568 651.252C9.73801 651.483 13.0802 654.537 14.3479 655.862C13.2531 656.727 9.27702 659.55 6.28056 659.377Z" fill="white"/>
<path d="M55.2039 773.766C54.9158 773.42 54.4548 773.362 54.109 773.593C53.7633 773.881 53.7057 774.342 53.9361 774.688L61.312 784.484L65.922 781.027L70.6472 777.454L75.3724 773.881L80.0975 770.308L84.8227 766.735L89.5479 763.163L94.2731 759.59L98.9983 756.017L103.608 752.559L96.2323 742.763C95.9442 742.417 95.4832 742.359 95.1375 742.59C94.7917 742.878 94.7341 743.339 94.9646 743.685L101.361 752.214L98.6525 754.23L92.2563 745.702C91.9681 745.356 91.5071 745.298 91.1614 745.529C90.8156 745.817 90.758 746.278 90.9885 746.624L97.3848 755.153L93.9273 757.746L87.5311 749.217C87.2429 748.871 86.7819 748.814 86.4362 749.044C86.0905 749.332 86.0328 749.793 86.2633 750.139L92.6596 758.668L89.2022 761.261L82.8059 752.732C82.5178 752.386 82.0568 752.329 81.711 752.559C81.3653 752.847 81.3076 753.308 81.5381 753.654L87.9344 762.183L84.477 764.776L78.0807 756.247C77.7926 755.902 77.3316 755.844 76.9858 756.075C76.6401 756.363 76.5825 756.824 76.813 757.169L83.2092 765.698L79.7518 768.291L73.3555 759.763C73.0674 759.417 72.6064 759.359 72.2606 759.59C71.9149 759.878 71.8573 760.339 72.0878 760.685L78.4841 769.213L75.0266 771.807L68.6303 763.278C68.3422 762.932 67.8812 762.874 67.5355 763.105C67.1897 763.393 67.1321 763.854 67.3626 764.2L73.7589 772.729L70.3014 775.322L63.9051 766.793C63.617 766.447 63.156 766.39 62.8103 766.62C62.4645 766.908 62.4069 767.369 62.6374 767.715L69.0337 776.244L65.5762 778.837L59.18 770.308C58.8918 769.962 58.4308 769.905 58.0851 770.135C57.7393 770.423 57.6817 770.885 57.9122 771.23L64.3085 779.759L61.6002 781.776L55.2039 773.766Z" fill="white"/>
<path d="M63.3287 733.312C62.9253 733.6 62.6372 734.119 62.522 734.983C62.061 737.519 64.3083 743.109 65.5184 745.932C63.1558 743.973 58.4306 740.285 55.8375 739.997C55.0308 739.882 54.4546 739.997 54.0512 740.343C53.1868 741.034 53.475 742.129 53.8207 743.339C54.1088 744.261 54.3969 745.298 54.2817 746.393C54.1664 747.431 53.6478 748.41 53.1868 749.275C52.6682 750.312 52.2072 751.176 52.6106 751.983C53.014 752.675 53.8783 752.847 54.5122 752.963C56.2409 753.136 59.295 752.041 61.8881 750.831L42.6416 765.064L48.7498 773.19L96.3474 737.519L90.2392 729.394L71.108 743.743C72.9519 741.553 74.9112 738.96 75.1993 737.231C75.3145 736.597 75.3722 735.732 74.7959 735.156C74.162 734.522 73.1824 734.695 72.0299 734.926C71.108 735.099 70.0131 735.329 68.9759 735.156C67.9386 734.983 67.0166 734.407 66.2099 733.888C65.1727 733.255 64.1931 732.621 63.3287 733.312ZM54.5698 751.234C54.2241 751.176 54.0512 751.119 53.9359 751.119C53.9936 750.888 54.2817 750.312 54.5122 749.909C55.0308 748.987 55.607 747.834 55.7799 746.451C55.9528 745.068 55.5494 743.858 55.2613 742.82C55.1461 742.359 54.9732 741.783 54.9732 741.553C55.0308 741.553 55.2613 741.495 55.607 741.553C57.6815 741.783 62.3491 745.414 64.8269 747.488C62.0033 748.929 56.6443 751.464 54.5698 751.234ZM89.9511 731.583L94.1576 737.173L49.0955 770.942L44.8889 765.352L89.9511 731.583ZM72.3757 736.539C72.8367 736.424 73.4129 736.309 73.7011 736.366C73.7011 736.482 73.7011 736.654 73.6434 737C73.2977 739.075 69.3216 743.454 67.1319 745.817C65.8642 742.878 63.6744 737.346 64.0778 735.271C64.1354 734.926 64.1931 734.753 64.2507 734.638C64.4812 734.695 64.9998 735.041 65.4032 735.271C66.2675 735.848 67.42 736.539 68.7454 736.77C70.0707 737 71.3961 736.712 72.3757 736.539Z" fill="white"/>
<path d="M136.511 662.028C138.125 662.662 139.853 663.066 141.409 662.835C143.541 662.547 145.097 661.74 146.134 660.53C147.056 659.377 147.402 657.937 147.172 656.323C146.941 654.652 146.134 653.327 144.924 652.52C143.657 651.656 141.928 651.367 139.853 651.656C136.914 652.059 134.033 654.71 132.42 656.496C133.399 654.306 134.782 650.676 134.033 647.795C133.515 645.778 132.593 644.337 131.325 643.473C130.057 642.666 128.559 642.435 126.945 642.839C124.295 643.53 121.932 645.951 123.142 650.618C123.546 652.174 124.583 653.615 125.793 654.825L114.499 647.276L109.601 654.594L142.965 676.838L147.863 669.52L136.511 662.028ZM140.084 653.211C141.755 652.981 143.08 653.211 144.06 653.845C145.155 654.594 145.5 655.747 145.616 656.554C145.731 657.361 145.673 658.571 144.924 659.55C144.175 660.472 142.965 661.049 141.236 661.279C138.24 661.683 134.149 659.147 132.938 658.34C134.091 656.957 137.203 653.615 140.084 653.211ZM124.641 650.215C123.834 647.103 124.756 644.971 127.349 644.337C128.156 644.106 129.366 644.049 130.461 644.74C131.44 645.374 132.132 646.527 132.535 648.14C133.284 650.964 131.383 655.056 130.576 656.727C129.366 655.978 125.39 653.154 124.641 650.215ZM142.504 674.706L131.152 667.099L111.79 654.191L114.902 649.523L145.616 670.038L142.504 674.706Z" fill="white"/>
<path d="M138.528 676.435L135.935 679.143L106.086 680.354L103.089 678.337L104.011 676.204L134.898 674.937C135.359 674.937 135.647 674.533 135.647 674.13C135.647 673.669 135.243 673.381 134.84 673.381L104.703 674.649L106.604 670.327L126.657 669.52C127.118 669.52 127.407 669.116 127.407 668.713C127.407 668.252 127.003 667.964 126.6 667.964L107.296 668.771L109.197 664.449L118.475 664.045C118.936 664.045 119.224 663.642 119.224 663.239C119.224 662.778 118.821 662.489 118.417 662.489L109.946 662.835L111.79 658.628C111.963 658.225 111.79 657.764 111.387 657.591C110.984 657.418 110.523 657.591 110.35 657.995L101.072 678.913L123.719 694.069L139.68 677.53C139.969 677.242 139.969 676.723 139.68 676.435C139.335 676.089 138.874 676.089 138.528 676.435ZM123.488 691.994L116.573 687.384L128.386 686.923L123.488 691.994ZM130 685.309L114.326 685.886L108.275 681.852L134.321 680.757L130 685.309Z" fill="white"/>
<path d="M106.028 819.752L113.404 822.633C113.519 822.691 113.692 822.691 113.865 822.691C114.211 822.691 114.499 822.518 114.672 822.23C114.96 821.826 114.96 821.308 114.672 820.904C113.289 819.176 110.292 814.508 112.77 808.86C112.943 808.399 112.828 807.881 112.424 807.535C112.021 807.247 111.445 807.247 111.099 807.535L102.571 814.335L110.926 802.464L108.391 803.501C105.394 804.769 101.994 805.46 98.4217 805.576C92.3135 805.806 87.5883 804.25 87.5307 804.25L84.9376 803.386L94.0999 814.623L85.0529 808.572C84.6495 808.284 84.0733 808.342 83.7275 808.688C83.3818 809.033 83.2665 809.552 83.497 810.013C86.3782 815.43 83.7275 820.328 82.4598 822.172C82.1717 822.575 82.2293 823.094 82.5174 823.498C82.7479 823.728 83.036 823.901 83.3818 823.901C83.5546 823.901 83.6699 823.843 83.7851 823.786L90.9305 820.328C84.9376 825.572 80.3853 835.714 80.6158 842.111C80.9039 850.697 90.4695 854.846 99.6894 854.5C108.909 854.155 118.129 849.314 117.783 840.728C117.611 834.331 112.367 824.592 106.028 819.752ZM110.638 809.955C109.37 814.45 110.984 818.253 112.424 820.559L102.34 816.582L110.638 809.955ZM89.3747 806.498C91.4492 806.959 94.6185 807.42 98.4217 807.304C101.303 807.189 104.011 806.728 106.547 805.979L99.2284 816.352C98.8251 816.928 97.9031 816.928 97.4421 816.409L89.3747 806.498ZM84.6495 821.538C85.9172 819.176 87.2426 815.257 85.6291 810.877L94.388 816.87L84.6495 821.538ZM99.6894 852.887C91.2187 853.175 82.5174 849.545 82.2869 841.996C81.9988 834.331 89.5476 819.982 97.4421 818.542C96.9811 821.826 95.1947 832.314 90.8153 838.423C90.5848 838.768 90.6424 839.287 90.9882 839.518C91.161 839.633 91.3339 839.691 91.4492 839.691C91.6797 839.691 91.9102 839.575 92.083 839.345C96.0015 833.928 97.8454 825.514 98.6522 820.904C99.9775 824.42 102.283 829.779 104.587 831.392C104.76 831.508 104.933 831.565 105.048 831.565C105.279 831.565 105.509 831.45 105.682 831.219C105.913 830.874 105.855 830.355 105.509 830.125C103.32 828.569 100.669 821.942 99.4589 818.484C107.469 819.348 115.997 833.063 116.285 840.728C116.516 848.277 108.103 852.541 99.6894 852.887Z" fill="white"/>
<path d="M87.1268 908.15L72.1445 891.554C71.8563 891.208 71.3377 891.208 71.0496 891.497C70.7039 891.785 70.7039 892.303 70.992 892.591L84.937 908.035L58.9485 931.489L44.9458 916.045C44.6577 915.7 44.1391 915.7 43.851 915.988C43.5052 916.276 43.5052 916.794 43.7934 917.083L58.7757 933.679L87.1268 908.15Z" fill="white"/>
<path d="M49.6714 906.191C49.3832 905.845 48.8646 905.845 48.5765 906.134L40.1057 913.798L33.9976 907.056L45.119 897.029L62.3487 916.161L61.0233 907.805L69.206 909.994L51.9763 890.863L63.0978 880.836L69.206 887.578L60.2742 895.646C59.9285 895.934 59.9285 896.452 60.2166 896.74C60.5047 897.086 61.0233 897.086 61.3114 896.798L71.3957 887.693L63.1554 878.588L55.3185 885.676C55.8371 884.869 56.1829 884.12 56.4134 883.429C56.9896 881.354 56.7591 879.856 55.7795 878.819C54.8575 877.897 53.4746 877.493 52.1492 877.148C50.2476 876.629 48.2884 876.053 46.7325 877.436C46.041 878.012 45.58 878.934 45.1767 880.259C45.0614 880.663 45.0038 881.124 44.9462 881.642C44.658 881.181 44.3699 880.72 44.0818 880.375C40.7972 876.744 38.4346 878.934 36.4754 880.663C34.5162 882.391 32.1536 884.581 35.3805 888.212C35.7263 888.558 36.1297 888.903 36.533 889.249C36.072 889.249 35.611 889.249 35.1501 889.307C33.8247 889.537 32.8451 889.941 32.2112 890.517C30.6554 891.9 31.0587 893.917 31.3469 895.876C31.5774 897.259 31.8078 898.7 32.6722 899.679C33.5942 900.774 35.0924 901.178 37.1669 900.832C37.8584 900.717 38.6651 900.429 39.5295 899.968L31.6926 907.056L39.9329 916.161L49.6137 907.459C49.9595 906.998 50.0171 906.537 49.6714 906.191ZM46.7325 880.605C47.0206 879.625 47.3664 878.934 47.8274 878.531C48.6341 877.781 49.8442 878.07 51.7458 878.588C52.8983 878.934 54.0508 879.222 54.6847 879.856C55.0304 880.259 55.4914 880.951 54.9152 882.91C54.4542 884.524 52.8407 886.598 50.19 888.961C49.4985 889.595 48.807 890.171 48.346 890.574C47.5969 888.442 45.9834 883.371 46.7325 880.605ZM50.8238 891.842L64.4808 906.998L59.0641 905.557L59.9285 911.089L46.2715 895.934L50.8238 891.842ZM37.5703 881.7C39.76 879.741 40.7972 878.934 42.9293 881.297C44.8885 883.429 45.6377 888.673 45.9258 890.978C43.7361 890.517 38.5499 889.191 36.6483 887.002C34.5162 884.697 35.3805 883.717 37.5703 881.7ZM36.994 899.103C35.0348 899.449 34.3433 898.93 33.9976 898.527C33.4213 897.835 33.2485 896.625 33.018 895.473C32.6722 893.513 32.557 892.303 33.3637 891.554C33.8247 891.151 34.5162 890.863 35.5534 890.69C38.377 890.171 43.2751 892.303 45.2919 893.283C44.8309 893.744 44.2547 894.32 43.5056 895.012C40.8548 897.432 38.6075 898.815 36.994 899.103Z" fill="white"/>
<path d="M162.5 776.129C162.442 776.129 162.385 776.186 162.327 776.186C162.27 776.186 162.212 776.244 162.212 776.244H162.154L162.097 776.301C162.039 776.359 162.039 776.359 161.981 776.417C161.981 776.474 161.924 776.532 161.924 776.532C161.924 776.59 161.866 776.647 161.866 776.647C161.866 776.705 161.866 776.762 161.866 776.82C161.866 776.878 161.866 776.878 161.866 776.935V776.993C161.866 777.051 161.924 777.108 161.924 777.166C161.924 777.223 161.981 777.281 161.981 777.281V777.339L176.157 794.627L185.492 787.02L195.404 778.895L205.084 770.942L205.718 770.424L191.543 753.136C191.255 752.79 190.794 752.732 190.448 753.02C190.102 753.309 190.044 753.77 190.333 754.115L203.125 769.732L162.5 776.129C162.558 776.129 162.5 776.129 162.5 776.129ZM176.445 792.494L173.622 788.979L182.38 787.654L176.445 792.494ZM184.743 785.695L172.469 787.539L168.896 783.217L192.234 779.586L184.743 785.695ZM201.915 771.634L194.654 777.569L167.744 781.776L164.171 777.454L201.915 771.634Z" fill="white"/>
<path d="M151.205 753.193C151.09 755.902 152.703 758.898 157.544 759.129C158.408 759.186 159.33 759.014 160.195 758.725L150.514 766.62L158.293 776.129L191.139 749.275L183.359 739.766L173.679 747.661C174.14 746.854 174.485 745.99 174.601 745.126C175.35 740.343 172.757 738.153 170.048 737.749C168.377 737.461 166.879 737.865 165.726 738.787C164.516 739.766 163.767 741.322 163.421 743.339C162.96 746.278 164.689 749.793 165.842 751.868C164.055 750.254 160.944 747.892 158.005 747.776C155.93 747.661 154.259 748.122 153.049 749.102C151.954 750.081 151.263 751.522 151.205 753.193ZM165.035 743.627C165.323 741.956 165.899 740.746 166.764 739.997C167.801 739.19 169.011 739.132 169.818 739.305C172.411 739.709 173.563 741.726 173.045 744.895C172.584 747.834 168.953 751.061 167.801 751.983C166.821 750.427 164.574 746.509 165.035 743.627ZM183.129 742.014L188.891 749.044L178.346 757.63L158.466 773.881L152.703 766.851L183.129 742.014ZM154.086 750.37C154.951 749.62 156.276 749.332 157.947 749.39C160.886 749.505 164.228 752.502 165.554 753.77C164.401 754.692 160.598 757.63 157.601 757.515C154.374 757.4 152.646 755.844 152.761 753.251C152.819 752.386 153.107 751.234 154.086 750.37Z" fill="white"/>
<path d="M235.222 700.926L220.528 715.621L195.749 690.899L199.264 687.384C199.552 687.096 199.552 686.577 199.264 686.289C198.976 686.001 198.458 686.001 198.17 686.289L193.56 690.899L220.585 717.868L236.374 702.021C236.662 701.733 236.662 701.214 236.374 700.926C236.086 700.58 235.568 700.58 235.222 700.926Z" fill="white"/>
<path d="M227.385 675.859C231.073 673.899 231.937 671.018 229.978 667.215C229.517 666.293 228.999 665.601 228.422 665.025C226.578 663.181 224.216 663.008 221.392 664.506C219.606 665.428 218.108 667.387 216.955 669.404C217.128 667.157 216.955 664.679 216.033 662.893C214.074 659.205 211.135 658.34 207.39 660.299C203.644 662.316 202.722 665.198 204.681 668.886C205.027 669.52 205.488 670.154 206.122 670.73C207.101 671.709 208.312 672.574 209.579 673.265C207.332 673.092 204.854 673.265 203.068 674.187C199.38 676.147 198.515 679.086 200.475 682.831C200.936 683.753 201.454 684.445 202.031 685.021C203.875 686.865 206.237 687.038 209.061 685.54C210.847 684.618 212.345 682.658 213.498 680.642C213.325 682.889 213.498 685.367 214.42 687.153C214.881 688.018 215.399 688.709 215.918 689.285C217.762 691.13 220.182 691.302 223.063 689.746C226.809 687.73 227.731 684.848 225.772 681.16C225.426 680.526 224.965 679.892 224.331 679.316C223.351 678.336 222.141 677.472 220.874 676.781C223.121 676.953 225.599 676.781 227.385 675.859ZM208.312 684.157C205.43 685.713 203.99 684.733 203.125 683.926C202.664 683.465 202.261 682.889 201.858 682.082C200.244 679.086 200.82 677.126 203.759 675.57C206.583 674.072 212.057 675.052 214.132 675.57C213.382 677.587 211.193 682.658 208.312 684.157ZM207.217 669.635C206.698 669.116 206.352 668.655 206.064 668.137C204.508 665.198 205.142 663.296 208.139 661.682C210.444 660.472 212.057 660.53 213.382 661.855C213.843 662.316 214.247 662.893 214.593 663.584C216.091 666.408 215.111 671.882 214.593 673.957C213.037 673.381 209.349 671.767 207.217 669.635ZM223.179 680.469C223.697 680.987 224.043 681.448 224.331 681.967C225.887 684.906 225.253 686.808 222.257 688.421C219.203 690.035 217.301 689.401 215.745 686.519C214.247 683.696 215.226 678.221 215.745 676.147C217.416 676.723 221.046 678.336 223.179 680.469ZM216.264 674.475C217.07 672.459 219.26 667.445 222.084 665.889C224.965 664.333 226.406 665.313 227.27 666.12C227.731 666.581 228.134 667.157 228.538 667.964C230.151 670.96 229.575 672.92 226.636 674.475C223.755 675.974 218.338 674.937 216.264 674.475Z" fill="white"/>
<path d="M196.901 866.083C194.712 864.181 187.97 862.971 184.57 862.51C187.854 861.358 194.251 858.938 196.037 856.632C196.613 855.883 196.844 855.249 196.786 854.673C196.671 853.405 195.403 853.06 194.02 852.656C192.983 852.368 191.773 852.022 190.793 851.273C189.813 850.524 189.237 849.487 188.661 848.507C188.027 847.412 187.451 846.433 186.414 846.375C185.492 846.317 184.8 847.066 184.397 847.643C183.071 849.372 182.322 853.636 181.919 857.151C180.882 853.809 179.384 849.717 177.712 848.277C177.194 847.816 176.387 847.182 175.465 847.412C174.428 847.643 174.082 848.738 173.621 849.948C173.275 850.985 172.814 852.138 172.008 853.06C171.201 853.982 170.106 854.5 169.126 855.019C167.859 855.653 166.706 856.229 166.821 857.497C166.879 858.073 167.225 858.649 167.916 859.283C170.106 861.185 176.848 862.395 180.248 862.856C176.963 864.009 170.567 866.429 168.781 868.734C168.204 869.483 167.974 870.117 168.032 870.693C168.147 871.961 169.415 872.307 170.798 872.71C171.835 872.998 173.045 873.344 174.024 874.093C175.004 874.842 175.58 875.88 176.157 876.859C176.848 878.012 177.367 878.934 178.404 878.991C179.326 879.049 180.017 878.3 180.421 877.724C181.746 875.995 182.495 871.731 182.899 868.215C183.936 871.558 185.434 875.649 187.105 877.09C187.624 877.551 188.431 878.185 189.352 877.954C190.39 877.724 190.735 876.629 191.196 875.419C191.542 874.381 192.003 873.229 192.81 872.307C193.617 871.385 194.712 870.866 195.691 870.348C196.959 869.714 198.111 869.137 197.996 867.87C197.938 867.236 197.593 866.659 196.901 866.083ZM169.184 857.9C168.896 857.612 168.723 857.439 168.723 857.382C168.954 857.209 169.53 856.863 170.048 856.632C171.143 856.114 172.469 855.422 173.448 854.27C174.485 853.117 175.004 851.734 175.407 850.582C175.58 850.063 175.811 849.429 175.984 849.199C176.099 849.256 176.272 849.372 176.56 849.602C178.346 851.158 180.306 857.612 181.227 861.127C177.597 860.666 170.97 859.514 169.184 857.9ZM179.095 876.571C178.865 876.917 178.692 877.032 178.577 877.09C178.346 876.917 178.001 876.283 177.712 875.822C177.079 874.785 176.329 873.517 175.119 872.537C173.909 871.615 172.469 871.212 171.316 870.866C170.798 870.751 170.106 870.52 169.876 870.348C169.933 870.232 169.991 870.059 170.279 869.714C171.719 867.87 178.001 865.449 181.458 864.297C181.227 868.042 180.536 874.727 179.095 876.571ZM185.78 848.738C186.01 848.392 186.183 848.277 186.298 848.219C186.529 848.392 186.875 849.026 187.163 849.487C187.797 850.524 188.546 851.792 189.756 852.714C190.966 853.636 192.407 854.039 193.559 854.385C194.078 854.5 194.769 854.731 195 854.904C194.942 855.019 194.884 855.192 194.596 855.538C193.156 857.439 186.875 859.802 183.417 860.954C183.648 857.324 184.339 850.639 185.78 848.738ZM194.884 868.676C193.79 869.195 192.464 869.887 191.427 871.039C190.39 872.192 189.871 873.575 189.468 874.727C189.295 875.246 189.064 875.88 188.891 876.11C188.776 876.053 188.603 875.937 188.315 875.707C186.529 874.151 184.57 867.697 183.648 864.181C187.278 864.7 193.905 865.853 195.691 867.409C196.037 867.697 196.152 867.87 196.21 867.927C195.979 868.158 195.345 868.446 194.884 868.676Z" fill="white"/>
<path d="M208.945 855.422L206.813 833.179L184.57 835.311L175.178 836.175L152.935 838.307L155.067 860.551L158.063 892.246L180.306 890.114L211.999 887.117L209.867 864.873L208.945 855.422ZM190.448 887.29L189.756 880.202C189.699 879.683 189.295 879.337 188.777 879.395C188.258 879.453 187.912 879.856 187.97 880.375L188.662 887.463L181.055 888.154L180.364 881.066C180.306 880.548 179.903 880.202 179.384 880.259C178.865 880.317 178.52 880.72 178.577 881.239L179.269 888.327L159.677 890.171L157.833 870.578L164.92 869.887C165.439 869.829 165.785 869.426 165.727 868.907C165.67 868.388 165.266 868.043 164.748 868.1L157.66 868.792L156.968 861.185L164.056 860.494C164.575 860.436 164.92 860.033 164.863 859.514C164.805 858.995 164.402 858.65 163.883 858.707L156.795 859.399L154.951 839.806L174.544 837.962L175.235 845.05C175.293 845.568 175.696 845.914 176.215 845.857C176.733 845.799 177.079 845.395 177.022 844.877L176.33 837.789L183.936 837.097L184.628 844.185C184.686 844.704 185.089 845.05 185.608 844.992C186.126 844.934 186.472 844.531 186.414 844.012L185.723 836.924L205.315 835.08L207.159 854.673L200.071 855.365C199.553 855.422 199.207 855.826 199.264 856.345C199.322 856.863 199.725 857.209 200.244 857.151L207.332 856.46L208.023 864.066L200.936 864.758C200.417 864.816 200.071 865.219 200.129 865.738C200.186 866.256 200.59 866.602 201.108 866.544L208.196 865.853L210.04 885.446L190.448 887.29Z" fill="white"/>
<path d="M130.633 548.043C131.152 548.216 131.497 548.274 131.497 548.274L132.016 548.389L132.477 548.562C132.477 548.562 132.823 548.677 133.341 548.85C135.301 549.426 140.141 550.521 143.253 549.023C147.632 546.891 147.92 543.491 146.71 541.071C145.961 539.572 144.809 538.535 143.368 538.132C141.87 537.728 140.141 537.959 138.297 538.881C135.646 540.149 133.745 543.606 132.708 545.738C132.996 543.376 133.169 539.457 131.555 536.979C130.46 535.25 129.135 534.098 127.637 533.694C126.196 533.291 124.698 533.521 123.257 534.444C120.952 535.884 119.396 538.938 122.047 543.03C123.949 545.854 128.674 547.467 130.633 548.043ZM139.046 540.206C140.544 539.457 141.87 539.284 143.022 539.572C144.29 539.918 144.981 540.898 145.385 541.704C146.537 544.067 145.558 546.142 142.677 547.582C139.968 548.908 135.301 547.755 133.86 547.352C134.494 545.565 136.395 541.474 139.046 540.206ZM124.179 535.654C124.871 535.193 126.023 534.732 127.291 535.077C128.386 535.366 129.423 536.288 130.345 537.671C131.901 540.149 131.382 544.586 131.094 546.43C129.711 546.026 125.101 544.586 123.488 542.05C121.701 539.342 121.932 537.094 124.179 535.654Z" fill="white"/>
<path d="M129.078 558.647C129.942 558.877 150.11 564.525 151.321 560.203L152.992 554.325C153.337 552.999 151.954 551.559 148.612 549.83C148.209 549.599 147.748 549.772 147.517 550.176C147.287 550.579 147.46 551.04 147.863 551.271C151.205 553.057 151.436 553.921 151.493 553.921C150.86 554.843 143.484 554.728 131.152 551.271C118.821 547.813 112.539 544.01 112.424 542.972C112.482 542.915 113.231 542.223 117.726 542.627C118.187 542.684 118.532 542.338 118.59 541.877C118.648 541.416 118.302 541.071 117.841 541.013C112.136 540.494 111.156 541.647 110.926 542.511L109.197 548.62H109.255C108.736 552.884 128.271 558.416 129.078 558.647ZM111.963 544.701C115.939 548.504 130.057 552.538 130.749 552.769C131.44 552.999 145.558 556.918 150.975 555.765L149.822 559.799C149.131 560.721 141.813 560.606 129.539 557.148C117.207 553.691 110.926 549.888 110.811 548.793L111.963 544.701Z" fill="white"/>
<path d="M122.912 580.487C124.698 581.006 140.314 585.27 141.351 581.697L146.134 564.755C146.249 564.352 146.019 563.891 145.616 563.775C145.212 563.66 144.751 563.891 144.636 564.294L139.853 581.178C139.104 581.87 132.996 581.697 123.373 578.931C113.692 576.223 108.448 573.168 108.16 572.189L112.943 555.304C113.058 554.901 112.827 554.44 112.424 554.325C112.021 554.209 111.56 554.44 111.444 554.843L106.662 571.785C105.567 575.473 121.125 579.968 122.912 580.487Z" fill="white"/>
<path d="M215.053 604.46L228.998 619.903L203.009 643.357L189.006 627.913C188.718 627.568 188.2 627.568 187.912 627.856C187.566 628.144 187.566 628.663 187.854 628.951L202.836 645.547L231.187 619.961L216.205 603.365C215.917 603.019 215.398 603.019 215.11 603.307C214.764 603.653 214.764 604.114 215.053 604.46Z" fill="white"/>
<path d="M176.848 611.432C177.77 612.585 179.268 612.931 181.343 612.585C182.034 612.47 182.841 612.181 183.705 611.72L175.868 618.808L184.109 627.913L193.79 619.212C194.135 618.924 194.135 618.405 193.847 618.117C193.559 617.771 193.04 617.771 192.752 618.059L184.282 625.724L178.058 618.924L189.18 608.897L206.409 628.029L205.084 619.673L213.266 621.863L196.037 602.731L207.158 592.704L213.266 599.446L204.335 607.514C203.989 607.802 203.989 608.321 204.277 608.609C204.565 608.954 205.084 608.954 205.372 608.666L215.456 599.561L207.216 590.456L199.379 597.544C199.898 596.738 200.243 595.988 200.474 595.297C201.05 593.222 200.82 591.724 199.84 590.687C198.918 589.765 197.535 589.361 196.21 589.016C194.308 588.497 192.349 587.921 190.793 589.304C190.102 589.88 189.641 590.802 189.237 592.127C189.122 592.531 189.064 592.992 189.007 593.511C188.719 593.05 188.43 592.589 188.142 592.243C184.858 588.612 182.495 590.802 180.536 592.531C178.577 594.26 176.214 596.449 179.441 600.08C179.787 600.426 180.19 600.771 180.594 601.117C180.133 601.117 179.672 601.117 179.211 601.175C177.885 601.405 176.906 601.809 176.272 602.385C174.716 603.768 175.119 605.785 175.407 607.744C175.753 609.012 175.984 610.395 176.848 611.432ZM190.793 592.473C191.081 591.494 191.427 590.802 191.888 590.399C192.695 589.65 193.905 589.938 195.806 590.456C196.959 590.802 198.111 591.09 198.745 591.724C199.091 592.127 199.552 592.819 198.976 594.778C198.515 596.392 196.901 598.466 194.251 600.829C193.559 601.463 192.868 602.039 192.407 602.443C191.657 600.31 190.044 595.239 190.793 592.473ZM194.884 603.71L208.541 618.866L203.125 617.425L203.989 622.958L190.332 607.802L194.884 603.71ZM181.631 593.568C183.821 591.609 184.858 590.802 186.99 593.165C188.949 595.297 189.698 600.599 189.986 602.846C187.797 602.385 182.61 601.06 180.709 598.87C178.577 596.565 179.441 595.585 181.631 593.568ZM177.424 603.422C177.885 603.019 178.577 602.731 179.614 602.558C182.438 602.039 187.336 604.171 189.352 605.151C188.891 605.612 188.315 606.188 187.566 606.88C184.915 609.243 182.668 610.683 181.055 610.971C179.095 611.317 178.404 610.798 178.058 610.395C177.482 609.704 177.309 608.493 177.078 607.341C176.733 605.439 176.618 604.171 177.424 603.422Z" fill="white"/>
<path d="M22.8185 569.365C22.8761 569.942 23.2219 570.518 23.9134 571.152C26.1031 573.053 32.8451 574.263 36.245 574.725C32.9604 575.877 26.5641 578.297 24.7777 580.602C24.2015 581.352 23.971 581.985 24.0286 582.562C24.1439 583.829 25.4116 584.175 26.7946 584.579C27.8318 584.867 29.0419 585.212 30.0215 585.962C31.0012 586.711 31.5774 587.748 32.1536 588.728C32.8451 589.823 33.3637 590.802 34.401 590.86C35.323 590.918 36.0145 590.168 36.4178 589.592C37.7432 587.863 38.4923 583.599 38.8957 580.084C39.9329 583.426 41.4311 587.518 43.1022 588.958C43.6209 589.419 44.4276 590.053 45.3496 589.823C46.3868 589.592 46.7326 588.497 47.1936 587.287C47.5393 586.25 48.0003 585.097 48.807 584.175C49.6138 583.253 50.7086 582.735 51.6882 582.216C52.956 581.582 54.1085 581.006 53.9932 579.738C53.9356 579.162 53.5898 578.585 52.8984 577.952C50.7086 576.05 43.9666 574.84 40.5668 574.379C43.8514 573.226 50.2476 570.806 52.034 568.501C52.6102 567.752 52.8407 567.118 52.7831 566.542C52.6679 565.274 51.4001 564.928 50.0171 564.525C48.9799 564.237 47.7698 563.891 46.7902 563.142C45.8106 562.392 45.2343 561.355 44.6581 560.376C44.0242 559.223 43.448 558.301 42.4107 558.243C41.4888 558.186 40.7973 558.935 40.3939 559.511C39.0685 561.24 38.3194 565.504 37.9161 569.019C36.8788 565.677 35.3806 561.586 33.7095 560.145C33.1909 559.684 32.3841 559.05 31.4621 559.281C30.4249 559.511 30.0792 560.606 29.6182 561.816C29.2724 562.853 28.8114 564.006 28.0047 564.928C27.198 565.85 26.1031 566.369 25.1235 566.887C23.8558 567.521 22.7033 568.097 22.8185 569.365ZM51.6306 579.277C51.9764 579.565 52.0916 579.738 52.1492 579.796C51.9187 580.026 51.3425 580.314 50.8239 580.545C49.729 581.063 48.4037 581.755 47.3664 582.907C46.3292 584.06 45.8106 585.443 45.4072 586.596C45.2343 587.114 45.0038 587.748 44.831 587.979C44.7157 587.921 44.5428 587.806 44.2547 587.575C42.4684 586.019 40.5091 579.565 39.5872 576.05C43.2751 576.511 49.9019 577.721 51.6306 579.277ZM41.7193 560.606C41.9498 560.26 42.1226 560.145 42.2379 560.087C42.4684 560.26 42.8141 560.894 43.1022 561.355C43.7361 562.392 44.4852 563.66 45.6953 564.582C46.9054 565.504 48.346 565.908 49.4985 566.253C50.0171 566.369 50.7086 566.599 50.9391 566.772C50.8815 566.887 50.8239 567.06 50.5358 567.406C49.0951 569.25 42.8141 571.67 39.3567 572.823C39.5872 569.192 40.2787 562.508 41.7193 560.606ZM35.0348 588.44C34.8043 588.785 34.6315 588.901 34.5162 588.958C34.2857 588.785 33.94 588.151 33.6519 587.69C33.018 586.653 32.2689 585.385 31.0588 584.406C29.8487 583.484 28.4081 583.08 27.2556 582.735C26.737 582.619 26.0455 582.389 25.815 582.216C25.8726 582.101 25.9302 581.928 26.2183 581.582C27.6589 579.796 33.9976 577.375 37.4551 576.223C37.1669 579.911 36.4755 586.596 35.0348 588.44ZM25.9302 568.501C27.0251 567.982 28.3504 567.291 29.3301 566.138C30.3673 564.986 30.8859 563.603 31.2893 562.45C31.4621 561.931 31.6926 561.298 31.8655 561.067C31.9808 561.125 32.1536 561.24 32.4418 561.47C34.2281 563.026 36.1873 569.481 37.1093 572.996C33.479 572.477 26.8522 571.325 25.0659 569.769C24.7777 569.481 24.6049 569.308 24.6049 569.25C24.8354 569.019 25.4692 568.731 25.9302 568.501Z" fill="white"/>
<path d="M13.945 604.056L36.1879 601.924L67.8812 598.928L65.7491 576.684L64.8848 567.291L62.8103 544.989L40.5673 547.121L31.117 547.986L8.87402 550.118L11.0061 572.362L13.945 604.056ZM30.4255 549.887L31.117 556.976C31.1746 557.494 31.578 557.84 32.0966 557.782C32.6152 557.725 32.9609 557.321 32.9033 556.803L32.2118 549.715L39.8182 549.023L40.5097 556.111C40.5673 556.63 40.9707 556.976 41.4893 556.918C42.0079 556.86 42.3537 556.457 42.2961 555.938L41.6046 548.85L61.1968 547.006L63.0408 566.599L55.953 567.291C55.4344 567.348 55.0886 567.752 55.1463 568.27C55.2039 568.789 55.6073 569.135 56.1259 569.077L63.2136 568.386L63.9051 575.992L56.8174 576.684C56.2987 576.741 55.953 577.145 56.0106 577.663C56.0682 578.182 56.4716 578.528 56.9902 578.47L64.078 577.779L65.922 597.372L46.3298 599.216L45.6383 592.128C45.5806 591.609 45.1773 591.263 44.6587 591.321C44.14 591.378 43.7943 591.782 43.8519 592.3L44.5434 599.389L36.937 600.08L36.3031 592.992C36.2455 592.473 35.8422 592.128 35.3235 592.185C34.8049 592.243 34.4592 592.646 34.5168 593.165L35.2083 600.253L15.6161 602.097L13.7721 582.504L20.8599 581.812C21.3785 581.755 21.7242 581.351 21.6666 580.833C21.609 580.314 21.2056 579.968 20.687 580.026L13.5992 580.718L12.9077 573.111L19.9955 572.419C20.5141 572.362 20.8599 571.958 20.8022 571.44C20.7446 570.921 20.3412 570.575 19.8226 570.633L12.6772 571.324L10.8332 551.732L30.4255 549.887Z" fill="white"/>
</g>
<defs>
<clipPath id="clip0">
<rect width="537" height="504" fill="white"/>
</clipPath>
<clipPath id="clip1">
<rect width="537" height="504" fill="white" transform="translate(0 502)"/>
</clipPath>
</defs>
</svg>
