<svg width="10" height="17" viewBox="0 0 10 17" fill="none" xmlns="http://www.w3.org/2000/svg">
<path fill-rule="evenodd" clip-rule="evenodd" d="M4.91129 8.266C5.72877 8.266 6.52787 8.02358 7.20756 7.5694C7.88725 7.11521 8.41699 6.46967 8.72977 5.7144C9.04256 4.95914 9.12437 4.12808 8.96482 3.32633C8.80527 2.52458 8.41152 1.78815 7.83341 1.21018C7.2553 0.632205 6.51878 0.238653 5.71699 0.0792937C4.9152 -0.0800661 4.08415 0.00192666 3.32896 0.314897C2.57377 0.627867 1.92836 1.15776 1.47434 1.83756C1.02032 2.51736 0.7781 3.31653 0.778297 4.134C0.778297 4.67671 0.885219 5.2141 1.09293 5.71548C1.30065 6.21686 1.60507 6.67242 1.98887 7.05612C2.37267 7.43983 2.82832 7.74417 3.32975 7.95176C3.83118 8.15935 4.36859 8.26613 4.91129 8.266ZM4.91129 2.101C5.31334 2.1012 5.70631 2.2206 6.0405 2.44411C6.3747 2.66762 6.63511 2.9852 6.78883 3.3567C6.94255 3.7282 6.98268 4.13694 6.90412 4.53124C6.82556 4.92553 6.63184 5.28768 6.34748 5.5719C6.06312 5.85612 5.70089 6.04965 5.30656 6.12802C4.91222 6.20638 4.50348 6.16606 4.13206 6.01216C3.76063 5.85825 3.4432 5.59768 3.21986 5.26338C2.99651 4.92907 2.8773 4.53605 2.8773 4.134C2.8773 3.86694 2.92991 3.6025 3.03214 3.35578C3.13437 3.10906 3.2842 2.88489 3.47309 2.6961C3.66198 2.50731 3.88623 2.35758 4.133 2.25547C4.37977 2.15336 4.64423 2.10087 4.91129 2.101ZM9.67429 8.771C9.59428 8.61754 9.4775 8.48629 9.33439 8.38896C9.19128 8.29163 9.02629 8.23125 8.85416 8.21323C8.68204 8.1952 8.50814 8.22009 8.34797 8.28566C8.1878 8.35123 8.04636 8.45545 7.93629 8.58901C7.03986 9.18509 5.98733 9.5031 4.9108 9.5031C3.83428 9.5031 2.78172 9.18509 1.88529 8.58901C1.77522 8.45545 1.63378 8.35123 1.47361 8.28566C1.31344 8.22009 1.13954 8.1952 0.967415 8.21323C0.795287 8.23125 0.630298 8.29163 0.48719 8.38896C0.344082 8.48629 0.227301 8.61754 0.147285 8.771C-0.259715 9.58801 0.200282 9.983 1.23728 10.648C2.12541 11.1436 3.11177 11.4375 4.12629 11.509L3.47028 12.165L1.03529 14.6C0.947119 14.6879 0.877177 14.7923 0.829445 14.9073C0.781713 15.0223 0.757149 15.1455 0.757149 15.27C0.757149 15.3945 0.781713 15.5177 0.829445 15.6327C0.877177 15.7477 0.947119 15.8521 1.03529 15.94L1.15031 16.05C1.32806 16.2276 1.56903 16.3273 1.82029 16.3273C2.07155 16.3273 2.31255 16.2276 2.4903 16.05L4.92631 13.615L7.36131 16.05C7.53906 16.2276 7.78003 16.3273 8.03129 16.3273C8.28255 16.3273 8.52354 16.2276 8.7013 16.05L8.8133 15.938C8.99088 15.7602 9.09061 15.5193 9.09061 15.268C9.09061 15.0167 8.99088 14.7758 8.8133 14.598L6.3773 12.163L5.71931 11.505C6.72695 11.4319 7.70628 11.1387 8.58829 10.646C9.62129 9.983 10.0813 9.58801 9.67429 8.771Z" fill="white"/>
</svg>
