<svg width="17" height="10" viewBox="0 0 17 10" fill="none" xmlns="http://www.w3.org/2000/svg">
<path fill-rule="evenodd" clip-rule="evenodd" d="M14.1287 5.90256C14.6923 6.41374 15.229 6.9538 15.7367 7.52056C15.9581 7.77466 16.1509 8.05232 16.3117 8.34855C16.3692 8.42907 16.4057 8.52268 16.4178 8.62086C16.4299 8.71905 16.4173 8.81871 16.3812 8.9108C16.345 9.00288 16.2864 9.08448 16.2107 9.14818C16.135 9.21188 16.0446 9.25566 15.9477 9.27556H13.5577C13.2732 9.2967 12.9877 9.25174 12.7235 9.14418C12.4593 9.03662 12.2235 8.86939 12.0347 8.65556C11.7047 8.31856 11.3977 7.95555 11.0787 7.61156C10.9525 7.46591 10.8079 7.33719 10.6487 7.22856C10.5884 7.17459 10.5159 7.13607 10.4374 7.11632C10.3589 7.09656 10.2768 7.09615 10.1981 7.11513C10.1194 7.13412 10.0465 7.17192 9.98563 7.22529C9.92477 7.27867 9.87779 7.34602 9.84871 7.42156C9.67936 7.76901 9.5931 8.15106 9.59671 8.53756C9.61609 8.64081 9.60956 8.74727 9.57768 8.84737C9.54581 8.94748 9.48958 9.03811 9.41407 9.11115C9.33855 9.18419 9.2461 9.23735 9.14499 9.26587C9.04387 9.29439 8.93726 9.29737 8.83471 9.27456C7.64714 9.36777 6.45819 9.11233 5.41371 8.53956C4.50412 7.99084 3.72041 7.25654 3.11371 6.38456C1.91347 4.69794 0.897339 2.88761 0.0827091 0.984556C-0.108291 0.559556 0.0317084 0.331561 0.500708 0.322561C1.28171 0.307561 2.06171 0.309561 2.84171 0.322561C2.98759 0.324192 3.12916 0.37215 3.246 0.459509C3.36284 0.546867 3.44888 0.669103 3.49171 0.808561C3.90566 1.84644 4.4382 2.83298 5.07871 3.74856C5.23787 4.0022 5.44106 4.22538 5.67871 4.40756C5.72481 4.4554 5.78312 4.48971 5.84733 4.50677C5.91155 4.52384 5.97921 4.52299 6.04298 4.50435C6.10674 4.4857 6.16419 4.44996 6.2091 4.40099C6.254 4.35202 6.28464 4.2917 6.29771 4.22656C6.37579 4.02946 6.42203 3.82118 6.43471 3.60956C6.50692 2.89025 6.49451 2.16497 6.39771 1.44856C6.38277 1.24415 6.2985 1.05096 6.15885 0.900945C6.0192 0.75093 5.83253 0.653071 5.62971 0.623556C5.40171 0.580556 5.43471 0.49556 5.54571 0.36556C5.62795 0.248374 5.73817 0.153602 5.86636 0.0898569C5.99455 0.0261118 6.13664 -0.00458993 6.27971 0.000554831H8.97971C9.06371 0.00845453 9.14532 0.0328381 9.21989 0.0723017C9.29446 0.111765 9.36052 0.165539 9.4143 0.230551C9.46807 0.295562 9.50851 0.37053 9.53329 0.451177C9.55807 0.531825 9.5667 0.61657 9.55871 0.700559V3.70056C9.55135 3.85031 9.58252 3.99945 9.64922 4.13373C9.71592 4.268 9.81594 4.38294 9.93971 4.46756C10.0457 4.48348 10.1541 4.46675 10.2504 4.41959C10.3466 4.37243 10.4263 4.29708 10.4787 4.20356C11.1 3.50465 11.613 2.71656 12.0007 1.86556C12.1827 1.49556 12.3407 1.11156 12.4937 0.72756C12.5309 0.597607 12.6123 0.484719 12.7238 0.408399C12.8354 0.33208 12.9701 0.297122 13.1047 0.309561H15.7047C15.782 0.307694 15.8592 0.312378 15.9357 0.323561C16.0198 0.315873 16.1043 0.331875 16.1797 0.369764C16.2552 0.407654 16.3185 0.465913 16.3625 0.537939C16.4066 0.609965 16.4295 0.692882 16.4289 0.777296C16.4282 0.861709 16.4039 0.944242 16.3587 1.01555C16.1121 1.66456 15.7626 2.26963 15.3237 2.80755C14.8897 3.40755 14.4237 3.98756 13.9957 4.59056C13.9002 4.67649 13.8263 4.78373 13.78 4.90357C13.7337 5.02341 13.7164 5.15249 13.7293 5.2803C13.7423 5.40812 13.7852 5.53108 13.8546 5.6392C13.924 5.74731 14.0179 5.83754 14.1287 5.90256Z" fill="white"/>
</svg>
